<?xml version="1.0" encoding="utf-8"?>
<!-- Generator: Adobe Illustrator 24.3.0, SVG Export Plug-In . SVG Version: 6.00 Build 0)  -->
<svg version="1.1" id="Layer_1" xmlns="http://www.w3.org/2000/svg" xmlns:xlink="http://www.w3.org/1999/xlink" x="0px" y="0px"
	 viewBox="0 0 500 500" style="enable-background:new 0 0 500 500;" xml:space="preserve">
<style type="text/css">
	.st0{opacity:0.7;fill:#F9DA55;enable-background:new    ;}
	.st1{fill:#EA4256;}
	.st2{fill:#F9B973;}
	.st3{fill:#D87F52;}
	.st4{fill:#FFFFFF;}
	.st5{fill:#5199CE;}
	.st6{fill:#446BAA;}
	.st7{fill:#385B8E;}
	.st8{fill:#2D4959;}
	.st9{fill:#F9DA55;}
	.st10{fill:#F772A9;}
	.st11{fill:#7A5332;}
	.st12{fill:#5E3425;}
	.st13{fill:#A52D3E;}
	.st14{fill:#DE953D;}
	.st15{fill:#C15B33;}
	.st16{fill:#DB5A89;}
</style>
<g id="Background">
</g>
<g id="Objects">
	<g>
		<ellipse class="st0" cx="257.6" cy="285.9" rx="150.8" ry="98.7"/>
		<g>
			<g>
				<path class="st1" d="M191.4,287.3c0.5,2.3,0.1,5.1,0,7.4c0,3,0,6-0.2,9c0,0.1,0,0.2-0.1,0.3c2.7,0.4,5.5,0.7,8.3,1
					c2.9,0.3,5.9,0.4,8.8,0.5c2.2,0,4.5-0.1,6.8-0.1c0-2,0.1-3.9,0-5.9c-0.1-4.4-0.5-8.9-0.7-13.3c-1.4,0-2.8,0.1-4.2,0.2
					C203.9,286.7,197.6,287.5,191.4,287.3z M213.1,293.3c-0.4-0.3-0.8-0.7-1.1-1.1c-0.1-0.1,0.1-0.3,0.2-0.2
					c0.4,0.4,0.8,0.7,1.1,1.1C213.3,293.2,213.2,293.3,213.1,293.3z M211.5,289.5c0.6,0.5,1.3,1,1.8,1.6c0.1,0.1,0,0.4-0.2,0.3
					c-0.7-0.4-1.2-1.1-1.8-1.6C211.1,289.6,211.3,289.4,211.5,289.5z"/>
				<path class="st2" d="M214.7,306.6L214.7,306.6c-1.6,0.1-4.2,0-6.3,0c-3.1-0.1-6-0.2-9.1-0.5c-5.7-0.5-12.1-1-17.4-3.2
					c-0.1-0.1-0.1-0.3,0-0.3c0.8,0.1,1.7,0.2,2.5,0.3c-1.3-1.2-2.3-3.4-2-4.9c0,0,0-0.1,0.1-0.1c0.2-2.1,0.3-4.1-0.4-6.1
					c-0.9-2.3-3.2-5.1-5.6-2.8c1.3,2.4,1.1,5.7,0.6,8.3c-0.4,2.2-1.6,6.1-3.8,7.3c0,0,0,0.1,0,0.1c0,2.4-0.1,4.7,0.5,7.1
					c0.6,2.4,1.9,4.3,3.2,6.3c2.6,0.9,5.3,1.6,8.1,1.9c0.1-0.2,0.3-0.2,0.4,0c3.4,0.4,6.8,0.2,10.2-0.5c2.8-0.6,5.5-1.6,8.1-2.8
					c2.1-1.1,4-2.5,6-3.8c-3.6,0.6-7.6,0.2-11.1,0c-0.2,0-0.2-0.3,0-0.3c2.1,0.1,4.3,0.1,6.4-0.1c1.9-0.1,3.7-0.5,5.6-0.6
					c1.4-0.4,2.8-0.9,4-1.6c0.8-0.5,1.9-1.3,2.1-2.3c0.1-0.6-0.1-1.1-0.2-1.6c-0.6,0.1-1.2,0.1-1.8,0.2
					C214.9,306.6,214.7,306.6,214.7,306.6z"/>
				<path class="st3" d="M176.4,300c-0.6,1.9-1.6,3.8-3,4.6c0,0,0,0.1,0,0.1c0,2.4-0.1,4.7,0.5,7.1c0.6,2.4,1.9,4.3,3.2,6.3
					c2.6,0.9,5.3,1.6,8.1,1.9c0.1-0.2,0.3-0.2,0.4,0c3.4,0.4,6.8,0.2,10.2-0.5c2.8-0.6,5.5-1.6,8.1-2.8c0.1-0.1,0.2-0.1,0.3-0.2
					C192.7,318,180.2,310.4,176.4,300z"/>
				<path class="st4" d="M201.7,275.7c0,0.3,0.1,0.7,0.1,1c0,0.4,0.1,0.8,0.2,1.1c0.2-0.1,0.4-0.1,0.7-0.1c0,0,0.1,0,0.1,0
					c-0.1-0.2-0.2-0.4-0.3-0.6c-0.3-0.4-0.4-0.9-0.6-1.4C201.8,275.7,201.7,275.7,201.7,275.7z"/>
				<path class="st5" d="M124.4,297.2C124.4,297.3,124.4,297.3,124.4,297.2c1.2,6.4,4.4,12.5,9.3,17c5.6,5.2,12.9,8.1,20.5,8.5
					c3.7,0.2,7.4-0.1,11-0.7c-2.3-4.3-3.4-11-0.8-15.4c-0.7-0.1-1.4-0.1-2.1-0.2c-3.8-0.3-7.5-0.8-11-2.4c-6.9-3.1-9.8-9.9-9.3-17.2
					c0-0.2,0.3-0.2,0.3,0c0.1,3.5,0.6,7,2.4,10.1c1.7,2.9,4.4,4.9,7.4,6.1c2.3,1,4.8,1.5,7.3,1.8c-2.7-2.5-4.9-6.1-6.6-9.3
					c-1-1.8-1.8-3.8-2.5-5.7c-0.6-1.6-1.3-3.4-1.3-5.2c-1.1-0.2-2.1-0.8-2.4-2c-0.2-0.9,0.2-1.8,0.2-2.7c0.1-1.4-0.6-2.6-1.1-3.9
					c-0.9-2.5-1-5.9,1-7.7c-0.5-1.1-0.4-2.3-0.5-3.4c-0.1-1.2-0.1-2.4,0-3.6c-6.9,2.5-12.9,6.3-17.2,12.5
					c-4.7,6.9-6.1,15.2-4.7,23.1C124.4,297.1,124.4,297.2,124.4,297.2z"/>
				<path class="st6" d="M180.9,350.6c-3.4,0.9-6.8,1.6-10.3,2.1c-2.1,0.3-4.4,0.8-6.6,0.8l-1.3-0.1l-0.2-0.7
					c-0.5-2.2-0.8-4.5-1.2-6.7c-0.2-0.9-0.3-1.8-0.5-2.7c-0.1,0.8-0.3,1.4-0.5,2.2c-0.5,2.3-1.1,4.5-1.7,6.9c0,0,0,0,0,0l-0.3,1.1
					l-1,0.2c-7.2,0.6-14.6,0.8-21.8,0.2c-5.3-0.4-11.3-1.1-16.4-3.2c-0.1,3.3,0,6.4,0.8,9.7c0.8,3.2,1.9,6.3,2.9,9.4
					c2.2,6.4,4.6,12.9,6.6,19.4c0.5,0.1,1.1,0.3,1.6,0.5c0.3,0.1,0.3,0.6-0.1,0.6c-4.2-0.1-8.6-1.2-12.6-2.3
					c-4.1-1.1-8.4-2.1-12.3-3.8c0,0-0.1,0-0.1-0.1c-0.3,0.9-0.9,1.7-1.3,2.6c-0.8,1.5-1.4,3.2-1.9,4.8c-1,3.3-1,6.4-1.1,9.8
					c7.4,3.5,14.8,6.9,22.5,9.7c7.3,2.6,15.4,4.4,23.1,2.1c3.5-1.1,7-3,8.9-6.3c2.3-3.9,0.8-8.3-0.2-12.3c-2-8.1-3.9-16.3-6.1-24.3
					c-0.1-0.4,0.5-0.6,0.6-0.2c0.2,0.8,0.4,1.5,0.6,2.3c3.5-1.2,7.5-1.4,11.1-1.8c4.1-0.5,8.1-0.8,12.2-1c3.7-0.2,7.6-0.4,11.3,0
					c2.7,0.2,6,0.7,7.9,2.8c0.2,0.2,0.1,0.6-0.1,0.7c0.3,3,0.3,6,0.8,9c0.4,2.5,0.8,5,0.9,7.6c0.1,2.9,0.1,5.9-0.1,8.8
					c-0.2,2.4-0.1,5.4-0.9,7.8c1.9,0.1,3.8,0.5,5.6,0.7c1.9,0.2,3.9,0.2,5.9,0.2c2.3-0.1,4.5-0.3,6.8-0.7c1.3-0.2,2.6-0.8,3.9-0.7
					c-1.7-13.5,1.7-27,0.4-40.5c-0.3-3.2-0.8-6.5-1.9-9.6c-1.3-3.7-4-5.6-7.8-6c-3.4-0.4-6.9-0.3-10.3-0.2
					c-3.4,0.1-7.1,0.5-10.5,0.1C184.3,349.7,182.6,350.2,180.9,350.6z"/>
				<path class="st7" d="M200.3,396.2c-0.3-5.7,0.1-11.4,0.1-17.1c0-2.9,0.2-7-2.1-9.1c-2.4-2.2-6.4-2.2-9.4-2.6
					c-0.3,0-0.4-0.5-0.2-0.7c0.6-0.6,3.2-2.7,1.6-3.6c-0.9-0.4-1.9-0.6-2.9-0.6c-2.6,0-5.2,0.2-7.7,0.4c-6.5,0.5-13,1.2-19.6,1.3
					c-0.4,0-0.6-0.6-0.2-0.8c5.5-3,11.3-5.1,16.8-8.1c2.8-1.6,5.9-3.4,8.3-5.8c-1.4,0.4-2.8,0.8-4.2,1.1c-3.4,0.9-6.8,1.6-10.3,2.1
					c-2.1,0.3-4.4,0.8-6.6,0.8l-1.3-0.1l-0.2-0.7c-0.5-2.2-0.8-4.5-1.2-6.7c-0.2-0.9-0.3-1.8-0.5-2.7c-0.1,0.8-0.3,1.4-0.5,2.2
					c-0.5,2.3-1.1,4.5-1.7,6.9c0,0,0,0,0,0l-0.3,1.1l-1,0.2c-7.2,0.6-14.6,0.8-21.8,0.2c-5.3-0.4-11.3-1.1-16.4-3.2
					c-0.1,3.3,0,6.4,0.8,9.7c0.8,3.2,1.9,6.3,2.9,9.4c2.2,6.4,4.6,12.9,6.6,19.4c0.5,0.1,1.1,0.3,1.6,0.5c0.3,0.1,0.3,0.6-0.1,0.6
					c-4.2-0.1-8.6-1.2-12.6-2.3c-4.1-1.1-8.4-2.1-12.3-3.8c0,0-0.1,0-0.1-0.1c-0.3,0.9-0.9,1.7-1.3,2.6c-0.8,1.5-1.4,3.2-1.9,4.8
					c-1,3.3-1,6.4-1.1,9.8c7.4,3.5,14.8,6.9,22.5,9.7c7.3,2.6,15.4,4.4,23.1,2.1c3.5-1.1,7-3,8.9-6.3c2.3-3.9,0.8-8.3-0.2-12.3
					c-2-8.1-3.9-16.3-6.1-24.3c-0.1-0.4,0.5-0.6,0.6-0.2c0.2,0.8,0.4,1.5,0.6,2.3c3.5-1.2,7.5-1.4,11.1-1.8c4.1-0.5,8.1-0.8,12.2-1
					c3.7-0.2,7.6-0.4,11.3,0c2.7,0.2,6,0.7,7.9,2.8c0.2,0.2,0.1,0.6-0.1,0.7c0.3,3,0.3,6,0.8,9c0.4,2.5,0.8,5,0.9,7.6
					c0.1,2.9,0.1,5.9-0.1,8.8c-0.2,2.4-0.1,5.4-0.9,7.8c1.9,0.1,3.8,0.5,5.6,0.7c0.7,0.1,1.4,0.1,2.1,0.1
					C200.7,403.4,200.5,399.5,200.3,396.2z"/>
				<path class="st8" d="M92.3,383.9C92.3,384,92.2,384,92.3,383.9c-0.6,2.7-1.4,5.3-1.9,7.9c-0.6,3.3-1,6.7-1.1,10.1
					c-0.1,3.1-0.3,6.6,0.4,9.7c0.7,3,2.7,4.2,4.9,5.4c1.9,0.7,3.9,1.1,5.9,0.3c3-1.2,4.2-4.2,2.7-7c-1.4-2.7-4.8-6.1-2.9-9.2
					c-0.4-3.2,0.2-6.7,1-9.7c0.6-2.1,1.6-5.6,3.3-7.5C100.8,383.1,95.2,379.9,92.3,383.9z"/>
				<path class="st4" d="M203.8,274.2c-0.2-0.3-0.4-0.6-0.6-0.9c-0.2,0.4-0.3,0.7-0.5,1c-0.1,0.2-0.2,0.4-0.4,0.6c0.3,0,0.6,0,0.8,0
					c0.4,0,0.8-0.1,1.2-0.1C204.1,274.7,203.9,274.4,203.8,274.2z"/>
				<path class="st5" d="M185.2,321c-1.9-0.2-3.9-0.6-5.8-1.2c-0.1,0.1-0.1,0.1-0.2,0.2c-9.4,2.9-19.8,5.2-29.7,3.4
					c-12.1-2.1-21.9-11.1-25.5-22.5c-0.9,7.9-2,15.8-3,23.6c-1,8.2-1.9,16.4-3.1,24.6c6.1,1.9,12.1,3.3,18.6,3.7c7,0.4,14,0,21-0.2
					c0.7-2.4,1.4-4.8,1.9-7.3c0.4-1.6,0.7-3.2,0.9-4.8l0.5-3l0.5,2.8c0.3,2.1,0.7,4.2,1.1,6.2c0.4,2,0.8,4,1.2,5.9
					c2.6-0.5,5.4-0.6,8-1c3.1-0.5,6.2-1.2,9.2-2c1.8-0.5,3.6-1,5.3-1.6c-0.3-3.6-0.5-7.2-0.6-10.8
					C185.3,331.8,184.9,326.3,185.2,321z"/>
				<path class="st8" d="M211.6,407.5c-2,0.3-4,0.5-6,0.6c-3.4,0.1-7.4,0.1-10.7-0.9c-0.8,3.4-2.6,6.7-0.4,10c0,0,0,0.1,0.1,0.1
					c0.3,0.2,0.7,0.3,0.9,0.5c6.3,0.1,12.5,0.2,18.8,0.2c4.3,0,8.5-0.1,12.8-0.3c0.7,0,1.4-0.1,2.1-0.1c2.8-0.8,5-3.4,3.3-6.3
					c-1.3-2.1-3.9-2.7-6.1-2.9c-3.1-0.3-7.5,0.4-10.1-1.9C214.8,407.2,213,407.3,211.6,407.5z"/>
				<path class="st5" d="M204.6,275.6c-0.8,0.1-1.7,0.2-2.5,0.1c0.2,0.3,0.4,0.7,0.7,1c0.2,0.3,0.5,0.6,0.6,0.9c0.2,0,0.4,0,0.7,0
					c0,0,0,0,0,0c-0.1-0.4,0.1-0.8,0.2-1.2C204.4,276.2,204.5,275.9,204.6,275.6z"/>
				<path class="st4" d="M206,278c-0.2-0.3-0.2-0.7-0.3-1c-0.1-0.5-0.2-1-0.3-1.5c-0.1,0-0.2,0-0.3,0.1c-0.1,0.4-0.1,0.8-0.2,1.2
					c-0.1,0.4-0.2,0.7-0.4,1c0.5,0.1,1.1,0.2,1.6,0.4C206,278.1,206,278,206,278z"/>
				<path class="st4" d="M199.5,273.5c-0.3,0.4-0.8,1-1.2,1.3c1,0,2,0,2.9,0.1c-0.4-0.8-0.8-1.6-0.8-2.4c0,0,0,0,0,0
					C199.7,272.9,199.8,273.2,199.5,273.5z"/>
				<path class="st5" d="M201.2,277.2c-0.1-0.5-0.1-1.1,0.1-1.5c-0.9-0.1-1.7-0.2-2.4-0.4c0.5,0.4,1,0.8,1.5,1.3
					C200.6,276.8,200.9,277,201.2,277.2z"/>
				<path class="st9" d="M198,281.9c-0.7,1.3-0.8,2.6-1,3.9c0.8-0.1,1.7-0.1,2.5-0.2c0-0.1,0-0.2,0-0.3c0,0,0,0,0,0
					c-0.1,0-0.3-0.1-0.3-0.3c0.1-0.2,0.2-0.3,0.3-0.4c0.3-1.9,2.2-3.4,4.1-3.5c1.9-0.1,4.9,1.8,3.9,4c0,0-0.1,0.1-0.1,0.1
					c0.7,0,1.5-0.1,2.2-0.1c0,0,0,0,0.1,0c0,0,0-0.1,0-0.1c-0.2-3.9-3.5-7-7.5-6.2C200.5,279.2,198.9,280.3,198,281.9z"/>
				<path class="st5" d="M200.3,272.4c0,0,0.1,0,0.1,0.1c0.5,0.8,1,1.6,1.3,2.5c0.1-0.3,0.3-0.6,0.5-0.9c0.2-0.4,0.5-0.8,0.8-1.1
					c-0.9-0.1-1.8-0.4-2.5-0.8C200.5,272.3,200.4,272.3,200.3,272.4z"/>
				<path class="st5" d="M206.3,277.1c0.2-0.4,0.4-0.8,0.7-1.2c0.2-0.3,0.4-0.7,0.7-1c-0.6,0.2-1.3,0.4-2,0.5
					c0.2,0.5,0.4,0.9,0.5,1.4C206.2,276.9,206.3,277,206.3,277.1z"/>
				<path class="st4" d="M207,272.7c0-0.1-0.1-0.1-0.1-0.1c-0.2,0.4-0.5,0.8-0.7,1.1c-0.3,0.4-0.5,0.7-0.8,1
					c0.8-0.1,1.7-0.3,2.5-0.5C207.6,273.7,207.4,273.1,207,272.7z"/>
				<path class="st5" d="M203.3,273c0.3,0.3,0.6,0.5,0.9,0.8c0.3,0.3,0.6,0.6,0.7,0.9c0,0,0,0,0,0c0,0,0,0,0,0c0,0,0,0,0,0
					c0.3-0.5,0.5-1,0.8-1.4c0.3-0.4,0.5-0.9,0.8-1.2c-0.1-0.1-0.1-0.2-0.2-0.2C205.7,272.8,204.5,273.1,203.3,273z"/>
				<path class="st4" d="M203.7,271.9c-1,0.1-2,0.2-3-0.1c0,0,0,0.1,0,0.1c0,0,0,0,0,0c1,0.4,2.1,0.6,3.2,0.5
					c0.9-0.1,1.6-0.5,2.5-0.8c0,0,0,0,0,0C205.5,272,204.6,271.9,203.7,271.9z"/>
				<path class="st4" d="M154,295.4c1.9,3.5,4.5,6.4,6.8,9.7c0.7,0.1,1.3,0.1,2,0.2c0.7,0,1.5,0.1,2.3,0.2c2-3.8,4-7.5,5.5-11.5
					c0.7-2,1.4-4,1.9-6c0.5-1.7,0.7-3.5,1.4-5.2c-0.3-0.1-0.6-0.2-0.8-0.3c-2.3-0.8-5-2.4-6.6-4.4c0,0.2-0.1,0.4-0.2,0.7
					c-0.1,0.2-0.2,0.3-0.4,0.3c-0.6,0.6-1.6,1-2.6,1.2c0.5,4-0.1,8.2-0.1,12.2c0,4.1-0.1,8.2-0.3,12.2c0,0.4-0.6,0.4-0.6,0
					c-0.1-4.2,0.1-8.4,0.3-12.6c0.2-3.8-0.1-7.9,0.5-11.7c-0.5,0.1-1,0.1-1.3,0.1c-0.4-0.1-0.6-0.4-0.8-0.8
					c-1.9,1.4-3.8,2.6-5.9,3.5c-1.6,0.7-3.5,1.7-5.3,1.8c0.7,1.5,1,3.3,1.6,4.8C152.2,291.7,153,293.6,154,295.4z"/>
				<path class="st4" d="M184.1,241.9c0-0.3,0-0.7-0.1-1c0-0.4-0.2-0.8-0.2-1.2c-4.6,1.1-9.6,1.2-14.3,0.8c-2.4-0.2-4.8-0.6-7.1-1.1
					c-1.1-0.3-2-0.7-3.1,0.4c-0.4,0.4-0.6,1.1-0.7,1.7c4,1.5,8.2,2.4,12.4,2.5C175.6,244,179.7,242.8,184.1,241.9z"/>
				<path class="st10" d="M159.6,247.1C159.6,247.1,159.7,247.1,159.6,247.1c3.3-1.6,7.1-2,10.6-1.7c1.8,0.1,3.6,0.5,5.3,1
					c1.4,0.4,3.3,0.9,4.4,2c0.1,0.1,0.1,0.5-0.2,0.4c-1.5-0.2-2.9-1.1-4.4-1.5c-1.7-0.5-3.4-0.8-5.1-1c-3.6-0.3-6.9,0.3-10.4,1.1
					c0,0,0,0,0,0c2.7,3.9,8.6,4.6,13,3.8c4.9-0.9,11.1-2.8,11.3-8.7c-3.8,2.1-8.7,2.6-13,2.5c-4.3-0.1-8.6-0.9-12.6-2.6
					c-0.1,1,0,1.9,0.3,2.9C159,246,159.3,246.6,159.6,247.1z"/>
				<path class="st4" d="M152.8,209.8c-0.3,0.9-0.3,1.9,0.4,2.6c0.4,0.4,1,0.6,1.6,0.5c0.4,0,0.8-0.3,1.2-0.4
					c-0.1-0.6-0.2-1.3-0.5-1.8C154.8,209.7,153.6,209.4,152.8,209.8z"/>
				<path class="st2" d="M148,260l0.4,0.2c2.2,0.9,4.4,1.7,6.6,2.6c0.3,0.1,0.2,0.5-0.1,0.5c-1.2-0.2-2.5-0.6-3.7-0.9
					c2.1,3.6,5.5,6.4,9.9,6.7c2.3,0.2,4.7-0.4,6.7-1.6c1-0.6,1.8-1.4,2.6-2.2c-2.3,0-4.7-0.5-6.6-1.7c-0.8-0.1-1.6-0.2-2.4-0.3
					c-0.1,0-0.1-0.2,0-0.2c0.6,0.1,1.3,0.1,2,0.1l0.3,0c0.6,0,1.2,0.1,1.9,0.1l0.9,0c2,0.1,3.9,0.1,5.9,0l0.4,0
					c4-0.2,8-0.9,11.7-2.2c5.5-1.9,10.7-5.4,13.9-10.4c3.5-5.5,4-12.2,3.5-18.5c-0.6-7.1-1.9-14.1-3-21.1c-0.5-3.5-1.1-7-1.6-10.5
					c-0.5-3.3-1.2-6.7-1.2-10.1c-1.6,0.1-3.3,0-4.9-0.2c-2.3-0.3-4.7-0.7-6.9-1.7c1.5,1.8,2.6,3.9,3.4,6.2c2.3,0,4.6,1.2,5.2,3.6
					c0.1,0.3-0.3,0.4-0.4,0.2c-1-1.6-2.6-2.9-4.6-2.8c-0.1,0-0.1,0-0.2,0c-0.1,0.1-0.2,0.2-0.4,0.2c-0.1,0-0.2,0-0.3,0
					c-1.5,0.4-2.5,1.7-3.3,3.1c-0.2,0.2-0.6,0.2-0.6-0.2c0.1-1.5,0.8-2.6,1.8-3.2c-4.8-0.6-9.5-1.3-14.2-2.3
					c-2.8-0.6-5.6-1.2-8.3-1.9c-1.4-0.4-2.9-0.9-4-1.8c0.6,1.6,1.1,3.3,1.4,5.1c0.1,0.4-0.2,0.8-0.7,0.7c-5.3-0.9-10.7-1.8-15.9-3.4
					c-3.4-1-7.1-2.3-10.3-4.3c3,5.1,3.8,12.5,2.5,18.1c-0.7,2.8-2.1,5.4-4,7.6c-1.9,2.2-4.4,5-7.1,6.3c0.1,0.4,0.2,0.7,0.3,1.1
					c0,0.2-0.2,0.3-0.3,0.1c-1.2-2.2-2.5-4.3-4.8-5.5c-2.4-1.2-5.1-0.9-7.2,0.8c-3.8,3-4,8.4-3.1,12.8c1.7,7.8,9.9,18.4,18.1,10.9
					c0,0,0,0,0,0c0-0.6,0-1.2,0-1.8c0-0.2,0.2-0.2,0.3,0c0.7,6.3,4.4,12,9.3,15.8C140.2,256.7,144,258.4,148,260
					C148,260,148,260,148,260z M193.1,215.4c0.6-0.4,1.1-0.9,1.7-1.3c0.1-0.1,0.3,0.1,0.2,0.2c-0.5,0.5-1.1,0.9-1.7,1.3
					C193.1,215.7,192.9,215.5,193.1,215.4z M124,233.8c0,0.4-0.7,0.6-0.8,0.1c-0.4-1.8-0.7-3.7-1.2-5.4c-0.3,0-0.6,0.1-1,0.3
					c-0.5,0.3-0.9,0.7-1.1,1.2c-0.6,0.9-0.9,1.9-0.9,3c0,0.3-0.5,0.3-0.5,0c-0.1-1.6,0.3-3.3,1.5-4.4c0.4-0.4,1-0.8,1.7-0.9
					c-0.2-0.5-0.3-0.9-0.6-1.4c-0.7-1.5-2-3.3-4-2.8c-1.9,0.4-2.6,2.6-2.7,4.3c0,0.3-0.5,0.3-0.5,0c0-2.9,2.1-6.6,5.5-5
					c1.7,0.9,3,2.9,3.7,5.1c0.1,0.1,0.2,0.2,0.3,0.4c0.1,0.1,0,0.3,0,0.4C123.9,230.5,124.1,232.4,124,233.8z M133.1,246.3
					c-0.1,0.1-0.2,0-0.2-0.1c0.1-0.6,0.3-1.3,0.5-1.9c0.1-0.2,0.4-0.1,0.3,0.1C133.5,245,133.4,245.7,133.1,246.3z M134.3,247.1
					c-0.1,0.1-0.3,0.1-0.3-0.1c0-0.5,0.2-1,0.3-1.5c0.1-0.3,0.5-0.2,0.4,0.1C134.7,246.1,134.6,246.6,134.3,247.1z M136.5,249.2
					c0,0.1-0.2,0.1-0.2,0c0-0.4,0-0.9,0-1.3c0-0.2,0.3-0.2,0.3,0C136.5,248.3,136.5,248.8,136.5,249.2z M185.9,208.4
					c0.1-1.4,0.1-3.2,1.4-4.1c0.6-0.5,1.3-0.5,1.9-0.2c1,0.2,1.9,0.9,2.4,1.7c1.1,2.1,1,7.2-1.6,8.3
					C186.7,215.5,185.8,210.5,185.9,208.4z M174.8,213c0-0.1,0.3-0.1,0.3,0c0,1.6,0.1,3.2,0.3,4.8c0.2,1.5,0.5,3.9,1.9,4.6
					c1.8,0.9,3.7-0.8,5.3,1c3,3.3-1.6,6.9-4.5,7.8c-0.3,0.1-0.5-0.3-0.2-0.5c1.1-0.7,2.4-1.3,3.3-2.2c1.3-1.3,2.1-3.8-0.1-4.7
					c-1.3-0.5-3.1,0.6-4.3-0.4c-1.2-1-1.5-3.3-1.8-4.7C174.5,216.7,174.5,214.9,174.8,213z M157.6,241.5c0.1-0.4,0.2-0.7,0.3-1.1
					c0.8-2.2,2-2.8,4.2-2.3c7.4,1.7,14.6,1.7,22.1,0.9c0,0,0,0,0,0c0.2,0,0.4,0,0.6-0.1c0.3,0,0.3,0.4,0.1,0.5c-0.1,0-0.1,0-0.2,0
					c0.2,0.4,0.2,0.8,0.3,1.2c0.1,0.4,0.2,1,0.1,1.4c1.3,6.1-6.2,8.9-10.9,9.8c-5.3,1.1-11.8,0.7-15.2-4.2c-1.2-1.7-1.7-3.9-1.5-5.9
					C157.5,241.8,157.5,241.6,157.6,241.5z M154.8,218.7c-3.3,1.3-4.2-3.7-4.1-5.7c0.1-1.4,0.1-3.2,1.4-4.1c0.6-0.5,1.3-0.5,1.9-0.2
					c1,0.2,1.9,0.9,2.4,1.7C157.5,212.5,157.4,217.6,154.8,218.7z M146.2,203.1c1-2.3,3.3-4.6,5.8-5.2c1.7-0.4,4.1,0,4.8,1.8
					c0.1,0.3-0.3,0.5-0.5,0.4c-1.9-1-3.4-1.7-5.5-0.6c-1.8,0.9-2.8,2.6-4.3,3.9C146.3,203.4,146.1,203.3,146.2,203.1z M144.9,219.2
					c2,0,3.8,1,5.2,2.4c0.3,0.3-0.1,0.6-0.4,0.4c-1.4-1.2-3.1-1.9-4.9-2.4C144.6,219.6,144.6,219.2,144.9,219.2z"/>
				<path class="st4" d="M190,208.4c0.4,0,0.8-0.3,1.2-0.4c-0.1-0.6-0.2-1.3-0.5-1.8c-0.6-1-1.8-1.2-2.6-0.8
					c-0.3,0.9-0.3,1.9,0.4,2.6C188.8,208.3,189.4,208.4,190,208.4z"/>
				<path class="st3" d="M199.4,207.6c0.5,3.1,0.9,6.2,1.4,9.3c0.4,2.6,0.8,5.2,1.2,7.9c0.6-1.2,1.2-2.3,1.6-3.6
					c0.4-1.6,0.6-3.3,0.5-5C203.8,212.8,202.4,209.5,199.4,207.6z"/>
				<path class="st11" d="M115.9,242c-4.8-3.1-7.6-9.1-8.3-14.6c-0.7-5,0.6-11.1,5.8-13.2c4.3-1.8,8.9,1,10.6,5.1
					c1.5-2,3.8-3.4,5.5-5.3c2.1-2.3,3.8-5,4.5-8c1.5-6.5-0.3-12.9-2.5-19c-0.6-0.4-1.2-0.9-1.8-1.4c-0.1-0.1,0-0.3,0.2-0.3
					c4.7,2.4,9.2,4.6,14.4,6c4.6,1.3,9.4,2.1,14.1,2.9c-0.4-2.4-1.1-4.7-1.9-7c-0.1-0.3,0.3-0.5,0.5-0.2c0.3,0.5,0.6,1.1,0.8,1.6
					c4.5,1.9,9.1,2.9,13.9,3.8c4.9,1,9.8,1.7,14.7,2.3c-1.3-3.4-3.2-6.4-5.8-9c-0.2-0.2,0.1-0.6,0.4-0.4c0.8,0.7,1.6,1.4,2.3,2.2
					c0,0,0,0,0.1,0c2.9,0.5,5.6,1.5,8.5,1.8c2.7,0.3,5.4,0.1,8.1,0c0.4,0,0.5,0.6,0.1,0.7c-1.1,0.3-2.3,0.4-3.4,0.5
					c1.3,4.2,1.6,8.9,2.3,13.3c0.2,1,0.3,2,0.5,3c2,0.5,3.5,2.1,4.5,3.9c1.3-1.3,2.8-2.3,4.1-3.6c1.5-1.6,2.8-3.4,3.9-5.3
					c0.6-1,1.4-2.4,1.6-3.5c0.2-1.9-0.8-2.6-2-3.7c-1.7-1.5-3.6-2.8-5.2-4.5c-0.1-0.1-0.1-0.2-0.1-0.2c0-0.1,0-0.1,0-0.2
					c3.7-7.5,6.1-15.4,6.2-23.8c-2.9-0.4-5.8-0.6-8.8-0.5c-2.7,0.1-5.3,0.9-8,0.9c-0.3,0.3-1-0.1-0.8-0.5c2.2-5.6,3.9-11.1,4.7-17
					c-5.8-0.3-11.6-0.1-17.4,0.7c-2.9,0.4-5.8,1-8.6,1.7c-2.8,0.7-5.6,1.8-8.4,2.4c-0.3,0.1-0.6-0.3-0.3-0.6c0-0.1,0-0.1,0-0.2
					c0.1-2.3,0.1-4.7,0-7c0-1,0-2.1-0.2-3.1c-0.1-0.4-0.1-1.7-0.6-1.8c-0.2-0.1-1,0.3-1.2,0.4c-3.6,1.2-7,2.7-10.3,4.5
					c-3.3,1.7-6.4,3.7-9.4,5.9c-3,2.2-5.7,4.9-8.6,7.2c0,0-0.1,0-0.1,0c0,0,0,0,0,0c-0.1,0.5-0.8,0.5-0.8,0
					c-0.3-3.8-0.5-7.5-1.4-11.2c-3.1,2.8-5.6,6.2-7.6,9.8c-1.2,2.1-2.2,4.3-3.1,6.6c-0.7,1.8-1.1,3.9-2.3,5.4c0,0,0,0,0,0
					c0,0.2-0.2,0.5-0.5,0.5c-7,0.4-13.7,1-20.4,2.9c1.3,2.1,2.7,4,4.3,5.9c1.5,1.7,3.3,3.3,4.7,5.1c0.1,0.1,0.1,0.2,0,0.3
					c0,0.2-0.1,0.4-0.2,0.5c-2.7,1.9-5.4,3.8-8,5.9c-1.1,0.9-2.3,1.8-3.4,2.7c-1.1,0.9-2.7,1.9-3.5,3.1c-1.6,2.3,3.5,6.3,5.1,7.8
					c2.2,2,4.6,3.7,6.9,5.7c0.3,0.2,0.1,0.6-0.1,0.7c0,0,0,0,0,0.1c-3.9,4.6-7.2,9.6-9.8,15.1c1.8,1.4,3.7,2.6,5.7,3.7
					c1.7,1,3.8,1.7,5.4,2.8c0.4,0.1,0.7,0.3,0.9,0.6c0,0,0.1,0.1,0.1,0.1c0.1,0.1,0.1,0.2,0,0.2c-0.2,1.6-0.4,3.1-0.7,4.7
					c-0.3,1.9-1.1,4,1,5.1c1.3,0.6,3.5,0.6,4.9,0.9c1.6,0.3,3.2,0.6,4.9,0.9c0.4,0.1,0.5,0.5,0.3,0.8c0.5,2.3,0.7,4.8,0.9,7.1
					c4.2-1.3,8.3-2.9,12.4-4.7c-1.2-2.1-2-4.4-2.3-6.9C124.9,244.7,119.1,244.1,115.9,242z"/>
				<path class="st12" d="M211.2,194.6c-1.7-1.5-3.6-2.8-5.2-4.5c-0.1-0.1-0.1-0.2-0.1-0.2c0-0.1,0-0.1,0-0.2
					c0.1-0.1,0.1-0.3,0.2-0.4c-5-0.1-10.2,0.2-14.6-2.6c-0.3-0.2-0.3-0.6,0-0.7c0.9-0.7,1.4-1.8,2.2-2.6c-2.9-1.1-6-1-9.1-1.3
					c-0.4,0-0.6-0.5-0.2-0.8c2.5-1.7,5.1-3.2,7.6-4.8c-3.8-0.2-7.7,0.3-11.5,0.4c-3.3,0.1-7.2,0.1-10-1.9c-0.3-0.2-0.3-0.6,0-0.7
					c1.6-1,3.3-2,4.8-3.1c-7,0.3-14.6,2.3-21.3-0.4c-0.3-0.1-0.4-0.4-0.3-0.6c0.9-1.8,2.1-3.2,3.1-4.8c1.5-2.5-3.8-3.2-5.3-3.1
					c-5.8,0.1-10.8,3.4-16.3,4.7c-0.4,0.1-0.6-0.3-0.5-0.6c2.5-5.7,6.2-11.1,10.4-15.9c-0.8,0.6-1.6,1.1-2.4,1.7
					c-3,2.2-5.7,4.9-8.6,7.2c0,0-0.1,0-0.1,0c0,0,0,0,0,0c-0.1,0.5-0.8,0.5-0.8,0c-0.3-3.8-0.5-7.5-1.4-11.2
					c-3.1,2.8-5.6,6.2-7.6,9.8c-1.2,2.1-2.2,4.3-3.1,6.6c-0.7,1.8-1.1,3.9-2.3,5.4c0,0,0,0,0,0c0,0.2-0.2,0.5-0.5,0.5
					c-7,0.4-13.7,1-20.4,2.9c1.3,2.1,2.7,4,4.3,5.9c1.5,1.7,3.3,3.3,4.7,5.1c0.1,0.1,0.1,0.2,0,0.3c0,0.2-0.1,0.4-0.2,0.5
					c-2.7,1.9-5.4,3.8-8,5.9c-1.1,0.9-2.3,1.8-3.4,2.7c-1.1,0.9-2.7,1.9-3.5,3.1c-1.6,2.3,3.5,6.3,5.1,7.8c2.2,2,4.6,3.7,6.9,5.7
					c0.3,0.2,0.1,0.6-0.1,0.7c0,0,0,0,0,0.1c-3.9,4.6-7.2,9.6-9.8,15.1c1.8,1.4,3.7,2.6,5.7,3.7c1.7,1,3.8,1.7,5.4,2.8
					c0.4,0.1,0.7,0.3,0.9,0.6c0,0,0.1,0.1,0.1,0.1c0.1,0.1,0.1,0.2,0,0.2c-0.2,1.6-0.4,3.1-0.7,4.7c-0.3,1.9-1.1,4,1,5.1
					c1.3,0.6,3.5,0.6,4.9,0.9c1.6,0.3,3.2,0.6,4.9,0.9c0.4,0.1,0.5,0.5,0.3,0.8c0.5,2.3,0.7,4.8,0.9,7.1c4.2-1.3,8.3-2.9,12.4-4.7
					c-1.2-2.1-2-4.4-2.3-6.9c-2.5,3.6-8.2,3-11.5,0.9c-4.8-3.1-7.6-9.1-8.3-14.6c-0.7-5,0.6-11.1,5.8-13.2c4.3-1.8,8.9,1,10.6,5.1
					c1.5-2,3.8-3.4,5.5-5.3c2.1-2.3,3.8-5,4.5-8c1.5-6.5-0.3-12.9-2.5-19c-0.6-0.4-1.2-0.9-1.8-1.4c-0.1-0.1,0-0.3,0.2-0.3
					c4.7,2.4,9.2,4.6,14.4,6c4.6,1.3,9.4,2.1,14.1,2.9c-0.4-2.4-1.1-4.7-1.9-7c-0.1-0.3,0.3-0.5,0.5-0.2c0.3,0.5,0.6,1.1,0.8,1.6
					c4.5,1.9,9.1,2.9,13.9,3.8c4.9,1,9.8,1.7,14.7,2.3c-1.3-3.4-3.2-6.4-5.8-9c-0.2-0.2,0.1-0.6,0.4-0.4c0.8,0.7,1.6,1.4,2.3,2.2
					c0,0,0,0,0.1,0c2.9,0.5,5.6,1.5,8.5,1.8c2.7,0.3,5.4,0.1,8.1,0c0.4,0,0.5,0.6,0.1,0.7c-1.1,0.3-2.3,0.4-3.4,0.5
					c1.3,4.2,1.6,8.9,2.3,13.3c0.2,1,0.3,2,0.5,3c2,0.5,3.5,2.1,4.5,3.9c1.3-1.3,2.8-2.3,4.1-3.6c1.5-1.6,2.8-3.4,3.9-5.3
					c0.6-1,1.4-2.4,1.6-3.5C213.5,196.4,212.4,195.7,211.2,194.6z"/>
				<path class="st13" d="M183.4,291.4c0.9,2.3,0.9,4.9-0.3,7c0,0,0,0,0,0c0.4,0.7,0.7,1.5,1.1,2.3c0.5,0.9,1.2,1.6,1.6,2.5
					c1.5,0.3,3,0.5,4.6,0.8c0,0,0-0.1,0-0.1c-0.1-3,0-6,0-9c0-2.3-0.3-5,0.3-7.3L183.4,291.4z M190.1,287.7
					c-2.2,1.2-4.3,2.5-6.6,3.6l6.8-3.8C190.2,287.6,190.1,287.7,190.1,287.7z"/>
				<path class="st4" d="M172.7,264c-0.6,2.1-3.1,3.9-4.9,4.8c-1.5,0.8-3.1,1.3-4.8,1.4c0,0.1,0,0.1,0,0.2c0.7,0.3,1.3,0.6,1.9,0.9
					c0.6,0.4,1.3,0.7,1.8,1.3c1.5-1.5,5-3.7,7.8-4.6c0,0,0,0,0,0c0-0.8,0.1-1.5,0.1-2.3c0-0.6-0.1-1.2,0-1.8
					C173.9,264,173.3,264,172.7,264z"/>
				<path class="st13" d="M185.6,265.4c-0.4,0.2-0.9,0.4-1.3,0.6c-1.9,0.9-3.7,1.9-5.5,3c1.4,4.7,2.2,9.7,3.2,14.4
					c0.5,2.4,0.9,4.7,1.4,7.1c2.1-1.2,4.2-2.4,6.2-3.6c0.2-0.1,0.3-0.2,0.5-0.3c-0.6-3.1-1-6.4-1.7-9.5
					C187.5,273.3,186.4,269.4,185.6,265.4z"/>
				<path class="st6" d="M206.1,283.2c-0.6-0.8-1.6-1.1-2.6-1.1c-1.5,0.1-2.3,1-2.8,2.1c1.1-0.3,2.3-0.4,3.3-0.6
					C204.6,283.5,205.4,283.2,206.1,283.2z"/>
				<path class="st1" d="M147.2,276.8c0.5,1.4,0.6,2.4,0.7,3.9c0.1,1.9,0.3,3.4,2.5,3c0.6-0.1,1.3-0.4,1.9-0.6
					c3.1-1.1,6-2.8,8.6-4.8c0,0,0.1,0,0.1,0c0-0.4,0.1-0.8,0.1-1.1c0-0.4,0-0.8,0-1.2c-0.1,0-0.1,0-0.2,0c-1.5-0.4-2.9-0.9-4.5-1
					c-1-0.1-3.5-0.3-4.2,0.3c-0.2,0.1-0.3,0.1-0.4,0c0.4,0.2,0.8,0.4,1.2,0.5c0.6,0.2,1.2,0.4,1.9,0.6c1.5,0.3,3.1,0.2,4.6,0.1
					c0.3,0,0.4,0.5,0.1,0.6c-2.1,0.6-4.4,0.4-6.5-0.3c-0.7-0.3-2.4-0.6-2.1-1.7c0.3-1.2,3.3-1.1,4.2-1.2c2,0,4.2,0.4,6,1.4
					c0-0.8,0-1.7,0.1-2.5c-3.2-1.2-6.2-2.9-9.5-3.8c-2.4-0.6-4.8,0-5.3,2.8C146,273.5,146.6,275.2,147.2,276.8z"/>
				<path class="st1" d="M178,269.7c-1.9-1.6-4.9-0.2-6.8,0.8c-1.7,0.8-3,2.2-4.6,3c0.1,0.4,0.1,0.9,0.2,1.3c0,0.1,0,0.1,0,0.2
					c1.5-0.9,3.2-1.5,4.9-1.8c1-0.2,3.4-0.9,4.2-0.2c1.9,1.6-4,2.6-4.7,2.6c-0.3,0-0.3-0.4-0.1-0.5c0.6-0.2,3.9-0.7,4-1.2
					c0.1-0.3,0-0.1-0.5-0.1c-0.6,0-1.3,0.1-2,0.2c-2,0.3-3.9,1-5.8,1.8c0,0.6,0,1.2,0,1.8c1.9,0.8,3.5,2.4,5.4,3.4
					c2.7,1.3,5.5,1.5,8.3,0.2C179.5,277.3,178.7,273.5,178,269.7C178,269.7,178,269.7,178,269.7z"/>
				<path class="st5" d="M166.4,321.8c3.8-0.7,7.6-1.6,11.4-2.6c-0.3-0.1-0.6-0.2-1-0.3c-0.1-0.1-0.2-0.2-0.3-0.3c0,0,0,0,0,0
					c-3.2-2.8-5-8.7-4-13c-2.1,1.3-4.8,1.3-7.3,1.1c-0.6,2.4-1.3,4.6-1.2,7.2C164.1,316.8,164.9,319.4,166.4,321.8z"/>
				<path class="st13" d="M161.8,272.7c0.3,1.2,0.2,2.7,0.2,3.9c0,0.9-0.3,2.5,0.9,2.6c0.9,0,2.4-0.8,2.5-1.7c0,0,0,0,0,0
					c0-1.1,0.1-2.2,0-3.2c-0.2-1.6-1.3-2.1-2.8-1.8c-0.3,0.1-0.5,0.1-0.8,0.1C161.9,272.6,161.9,272.6,161.8,272.7z"/>
				<path class="st6" d="M176.2,288.6c0.3-2.8,4.2-1.5,5.5-0.1c0.1,0.1,0.1,0.1,0.2,0.2c-0.3-1.8-0.7-3.6-1-5.3
					c-0.1-0.4-0.2-0.9-0.3-1.3c-1.7,1.1-3.9,1.2-5.9,0.8c0,2-0.7,4.1-1.2,6c-0.6,2-1.2,4-2,6c-1.4,3.7-3.1,7.3-5.2,10.6
					c2.2,0.1,4.5-0.1,6.2-1.3c0.2-0.2,0.4-0.1,0.6,0c0.4-1,1.1-1.9,1.6-2.8c0.7-1.3,1.1-2.7,1.4-4.1c0.6-2.9,0.1-5.5-0.2-8.4
					C175.9,288.7,176,288.6,176.2,288.6z"/>
				<path class="st2" d="M162.8,270.9c-0.1,0.2-0.1,0.4-0.2,0.5c0,0,0,0,0,0c0.2-0.1,0.5-0.1,0.7-0.1
					C163.1,271.1,162.9,271,162.8,270.9z"/>
				<path class="st4" d="M160.4,270.2c-4.5-0.5-8.7-3.7-9.9-8.1c-1.1-0.3-2.1-0.7-3.2-1.1c-0.2,0.1-0.4,0.1-0.7,0.2
					c0.2,1.1,0.3,2.3,0.4,3.5c0.1,1.1,0.4,2.2,0.3,3.3c0.4-0.2,0.8-0.4,1.2-0.5c2-0.4,4.1,0.4,6,1.1c2.3,0.9,4.6,1.9,6.7,3.2
					c0,0,0,0,0,0c0-0.1,0.2-0.1,0.3,0c0,0,0,0,0,0c0.1-0.2,0.2-0.5,0.3-0.7c0.2-0.3,0.3-0.7,0.5-1
					C161.7,270.3,161.1,270.3,160.4,270.2z"/>
				<path class="st2" d="M278.3,239.4c-0.6,0.3-1.1,0.6-1.7,0.9c-1,0.5-2.1,1-3.1,1.5c-2.1,1-4.1,2.2-6.4,2.9
					c-0.2,0.1-0.2-0.2-0.1-0.3c1-0.7,2-1.3,3.1-1.9c0-0.1,0.1-0.1,0.1-0.2c2.2-1.4,4.4-2.7,6.4-4.3c0.9-0.8,1.9-1.6,2.7-2.5
					c1-1.1,1-2,1-3.4c-1.6-0.7-2.9,0.2-4.4,1c-1.3,0.7-2.7,1.5-4,2.2c-2.6,1.5-5.2,3.4-8.1,4.4c-0.1,0-0.2,0-0.2-0.1
					c-0.1,0-0.1,0.1-0.2,0.1c-0.3,0.1-0.5-0.2-0.3-0.4c2.1-1.9,4.5-3.6,6.8-5.3c2.1-1.5,4.2-3.4,6.6-4.5c0.2-0.6,0.4-1.2,0.2-1.8
					c-0.2-0.6-0.7-1-1.2-1.3c-1.5,0.9-3.5,1.3-5.1,2c-1.7,0.7-3.4,1.6-5,2.5c-1.8,1.1-3.6,2.3-5.3,3.7c-1,0.8-1.9,1.9-3.1,2.5
					c0.4,1.1,0.6,2.2,0.7,3.1c0.3,2.3,0.1,4.9-1.2,6.8c-0.2,0.2-0.5,0.1-0.5-0.2c0.5-2.5,1.1-4.7,0.6-7.2c-0.3-1.9-1.6-3.4-1.9-5.2
					c-0.1-0.1-0.2-0.2-0.2-0.3c0.4-2.8,2.1-9.6-2-10.4c-1.4,0.3-2.5,0.3-2.6,2.6c0,1.1,0.2,2.2,0.1,3.3c-0.1,1.4-0.5,2.7-1.2,3.9
					c0.1,0.1,0.2,0.2,0.1,0.4c-0.7,2.4-2.1,4.6-2.8,7c-0.7,2.5-0.8,4.9-1.2,7.4c0.1,0.1,0.2,0.3,0.1,0.5c1.3,1.7,2.2,3.8,3.4,5.6
					c0.8,1.2,1.6,2.3,2.5,3.4c0.5,0.7,1.2,1.3,1.6,2c4.8-1.7,9.7-3.2,14.4-5.2c2.5-1,4.9-2.1,7.3-3.3c1.9-1,3.9-1.8,5.3-3.5
					c0-0.8-0.5-1.3-1.9-1.2c-0.7,0-1.6,0.4-2.3,0.6c-1.4,0.3-2.7,0.8-4.1,0.9c-0.5,0.1-0.9,0.2-1.4,0.3c-0.2,0-0.3-0.3-0.1-0.5
					c1.7-0.9,12.8-5.6,11.4-8.8C280.8,238.4,278.9,239.1,278.3,239.4z M267.7,250.8c-1.2-2.1-2.1-4.4-3.4-6.5
					c-1.4-2.3-3.2-4.3-4.9-6.3c-0.1-0.2,0.1-0.3,0.2-0.2c3.7,3.1,7.4,8.2,8.5,12.9C268.1,250.8,267.8,251,267.7,250.8z"/>
				<path class="st3" d="M162.3,263.4c-0.4,0-0.7-0.1-1.1-0.1c-0.1,0-0.1-0.1-0.1-0.2c-1.5-0.4-2.9-0.9-4.3-1.3
					c-8.9-2.7-16.8-7.8-21.3-16.1c-3.9-7.3-4.5-15.3-3.4-23.3c1-7,3-15.9,8.7-20.7c2.7-2.3,5.7-2.9,8.7-2.6c0.8-0.5,1.6-0.9,2.4-1.1
					c1.7-0.4,4.1,0,4.8,1.8c0.1,0.3-0.3,0.5-0.5,0.4c-1.8-0.9-3.1-1.6-5-0.8c5.3,0.9,10.9,3.8,16.1,3.7c-0.2-1.7-0.2-3.4-0.2-5.1
					c0-0.3,0.3-0.5,0.5-0.4c7.4,2.6,15,2.8,22.7,3.2c2.3,0.1,4.6,0.4,6.9,0.6c0-0.2-0.1-0.4-0.1-0.6c-0.5-3.3-1.2-6.7-1.2-10.1
					c-1.6,0.1-3.3,0-4.9-0.2c-2.3-0.3-4.7-0.7-6.9-1.7c1.5,1.8,2.6,3.9,3.4,6.2c2.3,0,4.6,1.2,5.2,3.6c0.1,0.3-0.3,0.4-0.4,0.2
					c-1-1.6-2.6-2.9-4.6-2.8c-0.1,0-0.1,0-0.2,0c-0.1,0.1-0.2,0.2-0.4,0.2c-0.1,0-0.2,0-0.3,0c-1.5,0.4-2.5,1.7-3.3,3.1
					c-0.2,0.2-0.6,0.2-0.6-0.2c0.1-1.5,0.8-2.6,1.8-3.2c-4.8-0.6-9.5-1.3-14.2-2.3c-2.8-0.6-5.6-1.2-8.3-1.9c-1.4-0.4-2.9-0.9-4-1.8
					c0.6,1.6,1.1,3.3,1.4,5.1c0.1,0.4-0.2,0.8-0.7,0.7c-5.3-0.9-10.7-1.8-15.9-3.4c-3.4-1-7.1-2.3-10.3-4.3c3,5.1,3.8,12.5,2.5,18.1
					c-0.7,2.8-2.1,5.4-4,7.6c-1.9,2.2-4.4,5-7.1,6.3c0.1,0.4,0.2,0.7,0.3,1.1c0,0.2-0.2,0.3-0.3,0.1c-1.2-2.2-2.5-4.3-4.8-5.5
					c-2.4-1.2-5.1-0.9-7.2,0.8c-3.8,3-4,8.4-3.1,12.8c1.7,7.8,9.9,18.4,18.1,10.9c0,0,0,0,0,0c0-0.6,0-1.2,0-1.8
					c0-0.2,0.2-0.2,0.3,0c0.7,6.3,4.4,12,9.3,15.8c3.4,2.7,7.2,4.4,11.2,6c0,0,0,0,0,0l0.4,0.2c2.2,0.9,4.4,1.7,6.6,2.6
					c0.3,0.1,0.2,0.5-0.1,0.5c-1.2-0.2-2.5-0.6-3.7-0.9c2.1,3.6,5.5,6.4,9.9,6.7c2.3,0.2,4.7-0.4,6.7-1.6c1-0.6,1.8-1.4,2.6-2.2
					c-2,0-4.2-0.4-6-1.3C163.6,263.7,163,263.5,162.3,263.4z M124,233.8c0,0.4-0.7,0.6-0.8,0.1c-0.4-1.8-0.7-3.7-1.2-5.4
					c-0.3,0-0.6,0.1-1,0.3c-0.5,0.3-0.9,0.7-1.1,1.2c-0.6,0.9-0.9,1.9-0.9,3c0,0.3-0.5,0.3-0.5,0c-0.1-1.6,0.3-3.3,1.5-4.4
					c0.4-0.4,1-0.8,1.7-0.9c-0.2-0.5-0.3-0.9-0.6-1.4c-0.7-1.5-2-3.3-4-2.8c-1.9,0.4-2.6,2.6-2.7,4.3c0,0.3-0.5,0.3-0.5,0
					c0-2.9,2.1-6.6,5.5-5c1.7,0.9,3,2.9,3.7,5.1c0.1,0.1,0.2,0.2,0.3,0.4c0.1,0.1,0,0.3,0,0.4C123.9,230.5,124.1,232.4,124,233.8z
					 M133.1,246.3c-0.1,0.1-0.2,0-0.2-0.1c0.1-0.6,0.3-1.3,0.5-1.9c0.1-0.2,0.4-0.1,0.3,0.1C133.5,245,133.4,245.7,133.1,246.3z
					 M134.3,247.1c-0.1,0.1-0.3,0.1-0.3-0.1c0-0.5,0.2-1,0.3-1.5c0.1-0.3,0.5-0.2,0.4,0.1C134.7,246.1,134.6,246.6,134.3,247.1z
					 M136.5,249.2c0,0.1-0.2,0.1-0.2,0c0-0.4,0-0.9,0-1.3c0-0.2,0.3-0.2,0.3,0C136.5,248.3,136.5,248.8,136.5,249.2z"/>
				<path class="st3" d="M257.4,238.1c0.2,0.8,0.4,1.6,0.5,2.3c0.3,2.3,0.1,4.9-1.2,6.8c-0.2,0.2-0.5,0.1-0.5-0.2
					c0-0.1,0-0.2,0.1-0.4c-1,3.4-1.5,7.8,1.4,9.4c1.1,0.7,2.7,0.9,4.2,0.7c1.3-0.5,2.6-0.9,3.9-1.4c1-0.8,1.6-1.8,1.7-3.2
					c0-0.9-0.1-1.8-0.4-2.7c-0.9-1.7-1.6-3.4-2.7-5.1c-0.2-0.4-0.5-0.7-0.7-1.1c-0.2-0.3-0.4-0.5-0.6-0.8
					C262.4,241.8,258.7,237.4,257.4,238.1z"/>
				<path class="st5" d="M247.9,255.7c-1.3-1.8-2.8-4-3.4-6.3c-1.9,0.9-3.8,1.8-5.7,2.6c1,2.2,1.8,4.5,3.1,6.6
					c1.4,2.3,3.2,4.1,5.1,6.1c0.6-0.4,1.1-0.8,1.7-1.2c1.2-0.9,2.5-1.9,3.8-2.6C250.6,259.9,249.1,257.4,247.9,255.7z"/>
				<path class="st5" d="M238.5,252.2c-8.1,3.5-16.6,6.3-25.2,8.1c-5.5,1.2-11,2-16.6,2.4c-2.8,0.2-5.7,0.4-8.5,0.4
					c-2.2,0-4.5,0.1-6.6-0.2c-2.1,0.5-4.2,0.8-6.4,0.9c0.6,1,0.5,2.8,0.3,4c1.2-0.2,2.2-0.2,2.8,0.5l0.4-0.2
					c1.8-1.1,3.7-2.2,5.6-3.1c0.4-0.2,0.9-0.4,1.3-0.6l0.7-0.3l0.4,1c1.3,4,2.2,8.1,3.1,12.2c0.6,2.8,1.4,5.7,1.8,8.6l0.1,0.6
					c1.7-0.3,3.4-0.5,5.1-0.6c-1.2-3.1,1.3-6.3,4.2-7.6c-0.3-0.3-0.7-0.7-0.9-1c-0.7-0.7-1.5-1.3-2-2.2c0,0,0-0.1,0-0.1
					c0,0,0,0,0-0.1c-0.1-0.7,0.5-1.4,0.8-1.9c0.4-0.6,0.9-1.2,1.6-1.5c0.1,0,0.2,0,0.3,0c0.8-0.4,1.8-0.4,2.7-0.5
					c1-0.1,2.3-0.4,3.3,0c0.1,0,0.1,0.1,0.1,0.1c0.5,0.1,0.8,0.5,1.2,0.9c0.4,0.6,0.8,1.2,1,1.9c0,0.1,0,0.2,0,0.3c0,0,0,0,0,0
					c0.1,0.1,0.2,0.2,0.2,0.3c-0.1,0.7-0.9,1.3-1.3,1.9c-0.4,0.6-0.8,1.3-1.3,1.8c1.7,0.8,3.1,2.2,3.8,4c3.8-1.5,7.7-2.6,11.5-4.2
					c3.8-1.5,7.6-3.2,11.2-5.1c3.6-1.8,7.1-3.9,10.5-6c1-0.6,1.9-1.2,2.9-1.9C242.7,262.2,239.1,256.9,238.5,252.2z M194.4,272.2
					c-0.8-0.2-1.7-0.6-2.2-1.2c-0.1-0.1,0-0.3,0.2-0.3c0.8,0.1,1.7,0.6,2.3,1.1C194.8,272,194.6,272.3,194.4,272.2z M199.7,267.8
					c-0.6-0.8-1-1.8-1.3-2.7c-0.1-0.2,0.2-0.2,0.3-0.1c0.5,0.8,1.1,1.8,1.3,2.7C200,267.9,199.8,268,199.7,267.8z M207.5,265.7
					c-0.1,0.5-0.3,1-0.5,1.4c-0.1,0.2-0.4,0.1-0.4-0.1c0-0.5,0.2-1,0.3-1.5c0.1-0.4,0.2-0.9,0.6-1.2c0.1-0.1,0.2,0,0.2,0.1
					C207.8,264.8,207.6,265.3,207.5,265.7z M210.6,268.8c-0.1,0.1-0.3,0-0.2-0.2c0.3-0.4,0.6-0.8,0.9-1.1c0.3-0.4,0.6-0.8,1-1.1
					c0.2-0.1,0.4,0.1,0.3,0.3c-0.2,0.4-0.6,0.7-0.9,1C211.3,268.2,211,268.5,210.6,268.8z M215.1,271.6c-0.6,0.7-1.5,1.1-2.4,1.4
					c-0.2,0-0.3-0.2-0.1-0.3c0.8-0.4,1.5-1,2.3-1.4C215,271.3,215.2,271.5,215.1,271.6z"/>
				<path class="st6" d="M163.5,321.5c-6.3-0.7-12.9-2.6-18.3-6c-4.9-3.1-7.4-7.5-8-13.3c-0.6-5.5,0.2-12.2,4.8-15.8
					c0.4-0.3,1,0.3,0.6,0.6c0,0,0,0-0.1,0.1c0.1,3.4,0.6,7,2.3,10c1.7,2.9,4.4,4.9,7.4,6.1c2.3,1,4.8,1.5,7.3,1.8
					c-2.7-2.5-4.9-6.1-6.6-9.3c-1-1.8-1.8-3.8-2.5-5.7c-0.6-1.6-1.3-3.4-1.3-5.2c-1.1-0.2-2.1-0.8-2.4-2c-0.2-0.9,0.2-1.8,0.2-2.7
					c0.1-1.4-0.6-2.6-1.1-3.9c-0.9-2.5-1-5.9,1-7.7c-0.5-1.1-0.4-2.3-0.5-3.4c-0.1-1.2-0.1-2.4,0-3.6c-6.9,2.5-12.9,6.3-17.2,12.5
					c-4.7,6.9-6.1,15.2-4.7,23.1c0,0,0.1,0.1,0.1,0.2c0,0,0,0.1,0,0.1c1.2,6.4,4.4,12.4,9.3,17c5.6,5.2,12.9,8.1,20.5,8.5
					c3.7,0.2,7.4-0.1,11-0.7c-0.1-0.1-0.1-0.3-0.2-0.4C164.6,321.6,164.1,321.5,163.5,321.5z"/>
				<path class="st5" d="M180.9,349.4c1.8-0.5,3.6-1,5.3-1.6c0-0.2,0-0.4,0-0.6c-2.8,0.7-5.5,1.9-8.2,2.9
					C179,349.9,179.9,349.7,180.9,349.4z"/>
				<path class="st5" d="M164.5,350.9c-0.5-0.4-0.9-0.7-1.3-1.2c0.2,0.9,0.4,1.8,0.6,2.7c1.3-0.3,2.7-0.4,4-0.5
					C166.6,351.8,165.4,351.5,164.5,350.9z"/>
				<path class="st6" d="M160.4,340.5l0.5-3l0.5,2.8c0.2,1.2,0.4,2.3,0.6,3.5c3.7-1.8,8.2-3,10.6-6.4c-7.5-0.9-17,1-22.8-5
					c-0.2-0.2-0.1-0.5,0.1-0.7c7.2-4.7,15.8-6.5,23.6-10c-7.8,2-16.1,3.2-24,1.8c-12.1-2.1-21.9-11.1-25.5-22.5
					c-0.9,7.9-2,15.8-3,23.6c-1,8.2-1.9,16.4-3.1,24.6c6.1,1.9,12.1,3.3,18.6,3.7c7,0.4,14,0,21-0.2c0.7-2.4,1.4-4.8,1.9-7.3
					C159.8,343.7,160.1,342.1,160.4,340.5z"/>
				<path class="st6" d="M238.1,267.3c-4.1,0.8-8.2,1.8-12.3,2.6c-3.7,0.8-7.5,1.6-11.2,2.2c-0.6,0.5-1.3,0.8-2,1
					c-0.2,0-0.3-0.2-0.1-0.3c0.3-0.2,0.7-0.4,1-0.6c-1.7,0.2-3.5,0.4-5.2,0.5c0.2,0.4,0.5,0.8,0.6,1.2c0,0.1,0,0.2,0,0.3
					c0,0,0,0,0,0c0.1,0.1,0.2,0.2,0.2,0.3c-0.1,0.7-0.9,1.3-1.3,1.9c-0.4,0.6-0.8,1.3-1.3,1.8c1.7,0.8,3.1,2.2,3.8,4
					c3.8-1.5,7.7-2.6,11.5-4.2c3.8-1.5,7.6-3.2,11.2-5.1c3.6-1.8,7.1-3.9,10.5-6c1-0.6,1.9-1.2,2.9-1.9c0,0-0.1-0.1-0.1-0.1
					C243.7,266.3,240.9,266.7,238.1,267.3z"/>
				<path class="st6" d="M197.9,275.1c0,0,0-0.1,0-0.1c0,0,0,0,0-0.1c-0.1-0.7,0.5-1.4,0.8-1.9c0.2-0.3,0.4-0.5,0.6-0.8
					c-4.2-0.5-8.5-1.6-11.9-4c0.8,3,1.5,6,2.1,9c0.6,2.8,1.4,5.7,1.8,8.6l0.1,0.6c1.7-0.3,3.4-0.5,5.1-0.6c-1.2-3.1,1.3-6.3,4.2-7.6
					c-0.3-0.3-0.7-0.7-0.9-1C199.1,276.6,198.3,276,197.9,275.1z M194.4,272.2c-0.8-0.2-1.7-0.6-2.2-1.2c-0.1-0.1,0-0.3,0.2-0.3
					c0.8,0.1,1.7,0.6,2.3,1.1C194.8,272,194.6,272.3,194.4,272.2z"/>
				<path class="st6" d="M183.1,263.1c-0.5,0-1.1-0.1-1.6-0.2c-2.1,0.5-4.2,0.8-6.4,0.9c0.6,1,0.5,2.8,0.3,4
					c1.2-0.2,2.2-0.2,2.8,0.5l0.4-0.2c1.8-1.1,3.7-2.2,5.6-3.1c0,0,0.1,0,0.1,0C183.8,264.4,183.4,263.8,183.1,263.1z"/>
				<g>
					<path d="M213.1,291.3c0.2,0.1,0.3-0.1,0.2-0.3c-0.5-0.6-1.2-1.1-1.8-1.6c-0.2-0.1-0.4,0.1-0.2,0.2
						C211.8,290.3,212.4,290.9,213.1,291.3z"/>
					<path d="M212.2,292c-0.1-0.1-0.3,0.1-0.2,0.2c0.4,0.4,0.7,0.8,1.1,1.1c0.1,0.1,0.2-0.1,0.2-0.2
						C213,292.7,212.5,292.3,212.2,292z"/>
					<path class="st9" d="M198.4,265.1c0.3,0.9,0.7,1.9,1.3,2.7c0.1,0.1,0.3,0.1,0.3-0.1c-0.2-0.9-0.8-1.9-1.3-2.7
						C198.5,264.9,198.3,265,198.4,265.1z"/>
					<path class="st9" d="M207.4,264.3c-0.3,0.3-0.4,0.8-0.6,1.2c-0.2,0.5-0.3,1-0.3,1.5c0,0.2,0.3,0.3,0.4,0.1
						c0.3-0.4,0.4-0.9,0.5-1.4c0.1-0.4,0.3-0.9,0.2-1.3C207.6,264.3,207.5,264.2,207.4,264.3z"/>
					<path class="st9" d="M212.3,266.5c-0.4,0.3-0.7,0.7-1,1.1c-0.3,0.4-0.6,0.7-0.9,1.1c-0.1,0.1,0.1,0.3,0.2,0.2
						c0.4-0.3,0.7-0.7,1.1-1c0.3-0.3,0.7-0.6,0.9-1C212.6,266.6,212.4,266.4,212.3,266.5z"/>
					<path class="st9" d="M214.8,271.4c-0.8,0.4-1.5,1-2.3,1.4c-0.1,0.1,0,0.3,0.1,0.3c0.9-0.3,1.8-0.7,2.4-1.4
						C215.2,271.5,215,271.3,214.8,271.4z"/>
					<path class="st9" d="M192.3,270.8c-0.1,0-0.3,0.1-0.2,0.3c0.6,0.6,1.5,1,2.2,1.2c0.2,0,0.4-0.2,0.2-0.4
						C194,271.4,193.1,270.9,192.3,270.8z"/>
					<path d="M259.6,237.7c-0.2-0.1-0.3,0.1-0.2,0.2c1.7,2,3.5,4,4.9,6.3c1.3,2.1,2.2,4.4,3.4,6.5c0.1,0.2,0.4,0.1,0.4-0.1
						C267,245.9,263.3,240.8,259.6,237.7z"/>
					<path d="M123.4,228.2c-0.1-0.2-0.2-0.3-0.3-0.4c-0.7-2.2-1.9-4.3-3.7-5.1c-3.4-1.7-5.5,2-5.5,5c0,0.3,0.5,0.3,0.5,0
						c0.1-1.7,0.8-3.9,2.7-4.3c2-0.5,3.3,1.3,4,2.8c0.2,0.5,0.4,0.9,0.6,1.4c-0.6,0.1-1.3,0.5-1.7,0.9c-1.2,1.2-1.7,2.8-1.5,4.4
						c0,0.3,0.5,0.3,0.5,0c0-1.1,0.3-2.1,0.9-3c0.3-0.4,0.7-0.9,1.1-1.2c0.4-0.2,0.7-0.3,1-0.3c0.5,1.8,0.8,3.6,1.2,5.4
						c0.1,0.5,0.7,0.3,0.8-0.1c0.1-1.4-0.1-3.3-0.6-5.1C123.5,228.5,123.5,228.4,123.4,228.2z"/>
					<path d="M176.6,223.4c1.2,1,3-0.1,4.3,0.4c2.2,0.9,1.4,3.4,0.1,4.7c-0.9,0.9-2.2,1.5-3.3,2.2c-0.3,0.2-0.1,0.6,0.2,0.5
						c2.9-0.8,7.5-4.4,4.5-7.8c-1.6-1.8-3.5-0.1-5.3-1c-1.4-0.7-1.7-3.1-1.9-4.6c-0.2-1.6-0.3-3.2-0.3-4.8c0-0.1-0.2-0.2-0.3,0
						c-0.3,1.9-0.3,3.8,0.1,5.7C175.1,220,175.4,222.4,176.6,223.4z"/>
					<path d="M159,247.8c3.4,4.9,9.9,5.2,15.2,4.2c4.6-0.9,12.1-3.7,10.9-9.8c0.1-0.5,0-1-0.1-1.4c-0.1-0.4-0.1-0.8-0.3-1.2
						c0.1,0,0.1,0,0.2,0c0.2-0.1,0.2-0.5-0.1-0.5c-0.2,0-0.4,0-0.6,0.1c0,0,0,0,0,0c-7.5,0.7-14.7,0.7-22.1-0.9
						c-2.2-0.5-3.4,0-4.2,2.3c-0.1,0.4-0.2,0.7-0.3,1.1c-0.1,0.1-0.1,0.2-0.1,0.4C157.2,243.9,157.8,246.1,159,247.8z M159.3,239.8
						c1.1-1.1,2-0.6,3.1-0.4c2.3,0.5,4.7,0.9,7.1,1.1c4.7,0.4,9.6,0.2,14.3-0.8c0,0.4,0.1,0.8,0.2,1.2c0,0.3,0,0.7,0.1,1
						c-4.4,0.9-8.5,2.1-13.1,2.1c-4.3-0.1-8.4-1-12.4-2.5C158.8,240.9,159,240.2,159.3,239.8z M158.5,242.5c4,1.7,8.3,2.5,12.6,2.6
						c4.3,0.1,9.2-0.4,13-2.5c-0.1,5.9-6.3,7.8-11.3,8.7c-4.5,0.8-10.3,0.1-13-3.8c0,0,0,0,0,0c3.5-0.8,6.8-1.4,10.4-1.1
						c1.7,0.1,3.4,0.5,5.1,1c1.5,0.4,2.9,1.3,4.4,1.5c0.2,0,0.3-0.3,0.2-0.4c-1.1-1.1-2.9-1.6-4.4-2c-1.7-0.5-3.5-0.8-5.3-1
						c-3.5-0.2-7.3,0.2-10.5,1.7c0,0,0,0-0.1,0.1c-0.3-0.5-0.6-1.1-0.8-1.8C158.5,244.4,158.4,243.4,158.5,242.5z"/>
					<path d="M146.4,203.3c1.5-1.2,2.5-2.9,4.3-3.9c2.1-1.1,3.6-0.4,5.5,0.6c0.3,0.1,0.7-0.1,0.5-0.4c-0.7-1.8-3.1-2.2-4.8-1.8
						c-2.5,0.6-4.8,2.9-5.8,5.2C146.1,203.3,146.3,203.4,146.4,203.3z"/>
					<path d="M154,208.7c-0.6-0.3-1.3-0.2-1.9,0.2c-1.2,0.9-1.3,2.7-1.4,4.1c-0.1,2.1,0.8,7.1,4.1,5.7c2.6-1,2.7-6.2,1.6-8.3
						C155.9,209.6,155,208.9,154,208.7z M154.8,212.9c-0.6,0.1-1.2-0.1-1.6-0.5c-0.8-0.7-0.7-1.7-0.4-2.6c0.9-0.4,2-0.1,2.6,0.8
						c0.3,0.5,0.5,1.2,0.5,1.8C155.6,212.6,155.2,212.9,154.8,212.9z"/>
					<path d="M190,214.2c2.6-1,2.7-6.2,1.6-8.3c-0.5-0.9-1.4-1.5-2.4-1.7c-0.6-0.3-1.3-0.2-1.9,0.2c-1.2,0.9-1.3,2.7-1.4,4.1
						C185.8,210.5,186.7,215.5,190,214.2z M188,205.3c0.9-0.4,2-0.1,2.6,0.8c0.3,0.5,0.5,1.2,0.5,1.8c-0.4,0.1-0.7,0.4-1.2,0.4
						c-0.6,0.1-1.2-0.1-1.6-0.5C187.6,207.2,187.7,206.2,188,205.3z"/>
					<path d="M150.1,221.6c-1.4-1.4-3.2-2.3-5.2-2.4c-0.2,0-0.3,0.3-0.1,0.4c1.8,0.5,3.5,1.1,4.9,2.4
						C150,222.2,150.4,221.8,150.1,221.6z"/>
					<path d="M193.3,215.6c0.6-0.4,1.2-0.8,1.7-1.3c0.1-0.1,0-0.3-0.2-0.2c-0.6,0.4-1.2,0.8-1.7,1.3
						C192.9,215.5,193.1,215.7,193.3,215.6z"/>
					<path d="M133.4,244.3c-0.2,0.6-0.4,1.2-0.5,1.9c0,0.1,0.1,0.2,0.2,0.1c0.3-0.6,0.5-1.3,0.7-1.9
						C133.8,244.2,133.5,244.1,133.4,244.3z"/>
					<path d="M134.4,245.5c-0.1,0.5-0.3,1-0.3,1.5c0,0.1,0.2,0.2,0.3,0.1c0.2-0.5,0.3-1,0.5-1.5
						C134.9,245.3,134.4,245.2,134.4,245.5z"/>
					<path d="M136.2,247.9c0,0.4,0,0.9,0,1.3c0,0.1,0.2,0.1,0.2,0c0-0.4,0-0.9,0-1.3C136.5,247.7,136.2,247.7,136.2,247.9z"/>
					<path d="M190.1,287.7c0.1,0,0.1-0.1,0.2-0.1l-6.8,3.8C185.7,290.2,187.9,289,190.1,287.7z"/>
					<path d="M279.1,237.9c-0.4,0.1-0.9,0.3-1.3,0.5c0.5-0.4,1-0.8,1.4-1.3c1-1,3.3-3.5,2-5c0-0.1,0-0.1,0-0.2
						c-0.6-3-4.9-0.2-6.1,0.4c-1.6,0.9-3.1,1.8-4.7,2.7c0.2-0.1,0.3-0.2,0.5-0.3c1.9-1.4,4.2-2.7,5.9-4.4c0.1,0,0.2,0,0.3,0
						c1-0.5,1.2-2,0.7-3c-0.4-0.8-1-1.3-1.8-1.5c0,0-0.1-0.1-0.2-0.1c-0.1,0-0.2,0-0.3,0c0,0,0,0,0,0c-1.8,0.1-3.8,1-5.4,1.7
						c-1.8,0.7-3.5,1.6-5.1,2.6c-1.6,1-3.2,2.1-4.7,3.3c-1.1,0.9-2.6,1.9-3.4,3.2c-0.4-1-1-1.8-1.7-2.3c1.1-2.5,1.8-5.8,1-8.5
						c-0.4-1.4-1.5-2.7-2.8-2.8c0,0,0,0-0.1-0.1c-1.8-0.5-3.9,0.1-4.4,2.1c-0.3,1.3,0.1,2.7,0.1,4c0,1.8-0.5,3.4-1,5.1
						c-1.4,1.8-2.2,4.4-2.8,6.5c-0.6,2.4-1,5.1-0.6,7.5c-0.1,0-0.1,0-0.2,0.1c-10,5-20.6,8.7-31.6,11c-5.5,1.2-11.1,2-16.7,2.4
						c-2.7,0.2-5.4,0.4-8.1,0.4c-1.2,0-2.4,0-3.6,0c4.7-1.5,9-4,12.5-8c6.8-7.7,6.6-17.9,5.3-27.6c2.7-2.7,3.4-7.7,2.9-11.3
						c-0.2-1.3-0.6-2.7-1.1-4c1.9-0.9,3.7-2.8,5-4.3c1.8-2,3.3-4.2,4.4-6.7c0.9-1.9,1.8-3.5,0.1-5.2c-1.9-2-4.4-4.2-7-5.4
						c4.6-7.2,6.7-15.8,6.7-24.3c0-0.2-0.2-0.5-0.4-0.5c-3.1-0.5-6.3-0.7-9.5-0.6c-2.4,0.1-5.2,0.3-7.5,1.2c2.5-5.4,4-11.4,4.7-17.3
						c0-0.3-0.3-0.6-0.6-0.6c-6-0.4-12-0.2-18,0.7c-5.3,0.8-11.4,1.8-16.4,4.2c0.2-2.6,0.2-5.2,0.1-7.8c-0.1-1.1,0.3-4.1-0.9-4.9
						c-1.1-0.7-3.3,0.6-4.4,1c-2,0.7-3.9,1.6-5.8,2.5c-4,1.9-7.9,4.2-11.5,6.8c-3.1,2.3-6.4,4.8-8.9,7.9c0.2-3.8-0.4-7.8-1.3-11.4
						c-0.1-0.5-0.7-0.5-1-0.3c-3.6,3-6.4,6.7-8.6,10.8c-1,1.9-2,3.9-2.8,6c-0.7,1.9-1.9,4.1-1.9,6.2c0,0,0,0,0,0
						c-7.1-0.5-14.7,1-21.5,3c-0.4,0.1-0.6,0.5-0.3,0.9c1.3,2.2,2.8,4.3,4.5,6.2c1.4,1.7,3,3.6,4.9,4.8c-3,2-5.8,4.1-8.6,6.3
						c-1.5,1.2-3,2.4-4.4,3.7c-1,0.8-2.8,1.9-3.1,3.3c-0.2,1.1,0.6,1.9,1.3,2.7c1.2,1.4,2.4,2.7,3.7,4c2.3,2.3,4.9,4.6,7.7,6.3
						c-4,4.6-7.3,9.9-9.9,15.4c-0.1,0.2-0.1,0.6,0.1,0.7c2,1.5,4,2.9,6.2,4.1c1.9,1,4.1,2.4,6.3,2.5c0,0,0,0,0.1,0c0,0,0,0,0.1,0.1
						c-0.5,2.3-1,4.5-1.4,6.8c-0.2,1.1-0.6,2.4,0.4,3.3c1,1,3,1,4.3,1.2c2.3,0.4,4.6,0.9,6.9,1.3c-0.1,2.5,0.4,5.1,0.6,7.6
						c0,0.3,0.3,0.7,0.7,0.5c4.5-1.4,9-3.1,13.2-5.1c3.4,5.3,9.4,9.1,15.6,11.6c-6.2,1.5-11.9,5.7-15.8,10.5
						c-4.9,5.9-7.4,13.4-7.3,21.1c0,2.4,0.3,4.7,0.9,7c-1.4,8.2-2.4,16.5-3.5,24.7c-1.1,8.3-2.3,16.7-2.9,25.1l-0.1,0.9l0.7,0.3
						c0.1,0.1,0.3,0.1,0.4,0.2c-1.6,6.2,1,12.9,3,18.7c2.3,6.6,4.6,13.3,7,19.8c-3.2-0.8-6.4-1.3-9.6-2.1c-1.9-0.5-3.9-1-5.8-1.6
						c-1.1-0.3-2.1-0.7-3.2-1c-0.7-0.2-2.8-0.6-3.2-1.2c-0.2-0.2-0.7-0.2-0.7,0.1c0,0,0,0,0,0c0,0,0.1,0,0.1,0
						c-0.2,0.1-0.4,0.3-0.6,0.5c0,0,0,0,0,0c-2.3-2-10.5-4.5-12.9-1.2c-0.1,0-0.1,0-0.1,0.1c-1.8,3.1-2.5,7.1-3.1,10.7
						c-0.6,3.8-1,7.7-1,11.5c0,3.2-0.1,6.8,1.4,9.7c0.9,1.8,2.6,3.1,4.5,3.9c-2.1,0-4.4-0.2-6.4,0.3c-0.2,0-0.2,0.3,0,0.4
						c2.3,0.5,4.7,0.2,7,0.2c2.6,0.1,5.2,0.1,7.8,0c5.2-0.1,10.3-0.2,15.5-0.4c0.1,0,0.1-0.2,0-0.2c-5.2-0.1-10.3-0.3-15.5-0.4
						c-0.1,0-0.2,0-0.3,0c0.9-0.5,1.7-1.2,2.3-2.1c3.5-5.2-3.7-8.9-3.3-13.7c6.1,3.1,12.5,5.8,18.9,8.3c6.2,2.4,12.7,4.6,19.4,4.7
						c5.5,0,11.4-1.4,15.6-5.2c1.9-1.7,3.2-3.9,3.6-6.4c0.4-3.1-0.6-6.3-1.3-9.3c-1.8-7.2-3.9-14.4-5.9-21.5c3.6,0,7.3-0.9,10.9-1.3
						c3.7-0.4,7.4-0.7,11.1-0.9c3.5-0.2,7.1-0.3,10.6-0.2c1.6,0.1,3.3,0.2,4.8,0.6c1.5,0.4,2.8,1,4.2,1.6c-0.8,2.5-0.4,5.3,0,7.9
						c0.4,2.8,0.9,5.6,1.1,8.5c0.2,2.9,0.1,5.9-0.1,8.8c-0.2,2.7-1,5.7-0.5,8.4c-0.1,0.2-0.1,0.4,0.1,0.5c0.3,0.1,0.6,0.2,0.9,0.3
						c-1.4,1.7-1.9,4.2-2.1,6.3c-0.1,1.3,0,3.2,1.1,4.1c0,0,0,0,0.1,0.1c0.1,0.1,0.2,0.2,0.3,0.3c-1.7,0-3.3-0.1-5-0.1
						c-0.2,0-0.2,0.3,0,0.3c8.7,0.9,17.3,1.3,26,1.2c8.3,0,17.1,0.2,25.3-1.4c0.2,0,0.2-0.4-0.1-0.4c-2.9-0.1-5.7,0-8.6,0.2
						c1.1-0.4,2.1-1,2.7-2.3c0.8-1.9,0-4.3-1.5-5.6c-1.8-1.7-4.2-2.2-6.5-2.4c-1.8-0.1-3.5-0.1-5.3-0.3c-1.2-0.2-2.3-0.5-3.5-1
						c0.2-0.1,0.4-0.3,0.3-0.6c-1.2-14.9,2.5-29.9,0-44.7c-0.5-2.9-1.1-6.1-2.8-8.6c-1.6-2.5-4.1-3.7-7-4.1
						c-3.4-0.5-6.9-0.4-10.4-0.3c-3.2,0.1-6.8,0-10,0.5l0-0.9c-0.2-3.6-0.5-7.2-0.7-10.8c-0.3-5.2-0.3-10.4-0.8-15.6
						c3.3,0.3,6.7,0.2,10.1-0.5c5.3-1.1,11.8-3.5,15.3-7.7c0.1-0.1,0.1-0.2,0.1-0.3c0.2,0,0.3-0.1,0.5-0.1c0.1,0,0.2-0.1,0.2-0.2
						c0.6-0.2,1.1-0.3,1.7-0.6c1.3-0.5,2.9-1.1,3.8-2.2c0.7-0.8,1.1-3.6-0.1-3.9c-0.1-0.1-0.2-0.1-0.3-0.1c-0.2,0-0.4,0-0.7,0
						c0-2-0.1-4-0.2-5.9c-0.1-4.4-0.3-8.9-0.9-13.4l-0.2-1.3l-0.8,0.1c-1.2,0.1-2.4,0.2-3.5,0.2c0,0,0,0,0,0c0-0.7-0.1-1.3-0.3-2
						c7.7-1.6,15.4-5.2,22.4-8.7c3.6-1.8,7.1-3.8,10.6-6c1.8-1.1,3.5-2.3,5.2-3.5c1.6-1.1,3.4-2.3,4.6-3.8c0.1-0.1,0.1-0.2,0-0.3
						c5.5-1.3,10.9-3.6,16.1-5.8c2.6-1.2,5.3-2.4,7.8-3.8c0.8-0.5,1.6-1,2.2-1.7c0.1,0.1,0.1,0.1,0.2,0c1.1-1.1,2-3.2-0.1-3.8
						c-1.1-0.3-2.5,0.3-3.5,0.6c1.5-0.8,2.9-1.8,4.1-2.8c0.9-0.7,2.2-2.3,2.3-3.6C282.8,238.4,280.5,237.5,279.1,237.9z
						 M204.1,216.3c0.1,1.7,0,3.3-0.5,5c-0.3,1.3-1,2.4-1.6,3.6c-0.4-2.7-0.9-5.4-1.2-7.9c-0.5-3.1-0.9-6.2-1.4-9.3
						C202.4,209.5,203.8,212.8,204.1,216.3z M117.3,252.7c-0.2-2.4-0.3-4.8-0.9-7.1c0.2-0.3,0.1-0.7-0.3-0.8
						c-1.6-0.3-3.2-0.6-4.9-0.9c-1.4-0.3-3.6-0.3-4.9-0.9c-2.1-1-1.4-3.1-1-5.1c0.3-1.5,0.5-3.1,0.7-4.7c0-0.1,0-0.2,0-0.2
						c0-0.1-0.1-0.1-0.1-0.1c-0.3-0.3-0.6-0.5-0.9-0.6c-1.6-1.1-3.7-1.8-5.4-2.8c-2-1.1-3.8-2.4-5.7-3.7c2.6-5.5,5.9-10.4,9.8-15.1
						c0,0,0,0,0-0.1c0.3-0.1,0.4-0.5,0.1-0.7c-2.2-2-4.7-3.6-6.9-5.7c-1.6-1.5-6.7-5.5-5.1-7.8c0.8-1.1,2.5-2.2,3.5-3.1
						c1.1-0.9,2.2-1.8,3.4-2.7c2.6-2.1,5.3-4,8-5.9c0.2-0.1,0.3-0.3,0.2-0.5c0.1-0.1,0.1-0.2,0-0.3c-1.3-1.9-3.2-3.4-4.7-5.1
						c-1.6-1.8-3-3.8-4.3-5.9c6.8-1.9,13.4-2.5,20.4-2.9c0.3,0,0.5-0.3,0.5-0.5c0,0,0,0,0,0c1.2-1.5,1.6-3.7,2.3-5.4
						c0.9-2.2,1.9-4.5,3.1-6.6c2-3.7,4.5-7,7.6-9.8c0.8,3.7,1.1,7.4,1.4,11.2c0,0.5,0.7,0.5,0.8,0c0,0,0,0,0,0c0,0,0.1,0,0.1,0
						c2.9-2.3,5.6-5,8.6-7.2c3-2.2,6.1-4.2,9.4-5.9c3.3-1.8,6.8-3.2,10.3-4.5c0.2-0.1,1-0.5,1.2-0.4c0.5,0.2,0.6,1.4,0.6,1.8
						c0.2,1,0.1,2.1,0.2,3.1c0.1,2.3,0.1,4.7,0,7c0,0.1,0,0.2,0,0.2c-0.2,0.2,0,0.6,0.3,0.6c2.8-0.6,5.6-1.7,8.4-2.4
						c2.8-0.7,5.7-1.3,8.6-1.7c5.7-0.9,11.6-1.1,17.4-0.7c-0.8,5.9-2.5,11.5-4.7,17c-0.2,0.5,0.5,0.8,0.8,0.5c2.6,0,5.3-0.8,8-0.9
						c2.9-0.1,5.9,0,8.8,0.5c-0.2,8.4-2.5,16.3-6.2,23.8c0,0.1,0,0.2,0,0.2c0,0.1,0,0.2,0.1,0.2c1.6,1.7,3.5,3,5.2,4.5
						c1.2,1.1,2.3,1.8,2,3.7c-0.1,1.1-1,2.5-1.6,3.5c-1.1,1.9-2.4,3.7-3.9,5.3c-1.2,1.3-2.8,2.3-4.1,3.6c-1-1.9-2.4-3.4-4.5-3.9
						c-0.2-1-0.3-2-0.5-3c-0.7-4.4-1-9.1-2.3-13.3c1.2-0.1,2.3-0.2,3.4-0.5c0.4-0.1,0.3-0.7-0.1-0.7c-2.7,0.1-5.4,0.3-8.1,0
						c-2.9-0.3-5.6-1.3-8.5-1.8c0,0,0,0-0.1,0c-0.7-0.8-1.5-1.5-2.3-2.2c-0.2-0.2-0.6,0.1-0.4,0.4c2.6,2.6,4.5,5.6,5.8,9
						c-4.9-0.6-9.9-1.3-14.7-2.3c-4.8-0.9-9.4-1.9-13.9-3.8c-0.3-0.6-0.5-1.1-0.8-1.6c-0.1-0.3-0.6-0.1-0.5,0.2
						c0.9,2.3,1.6,4.6,1.9,7c-4.7-0.8-9.5-1.6-14.1-2.9c-5.1-1.4-9.6-3.7-14.4-6c-0.2-0.1-0.3,0.1-0.2,0.3c0.6,0.5,1.2,1,1.8,1.4
						c2.2,6,4.1,12.5,2.5,19c-0.7,3.1-2.4,5.7-4.5,8c-1.7,1.9-3.9,3.3-5.5,5.3c-1.7-4.1-6.2-6.8-10.6-5.1c-5.2,2.1-6.5,8.2-5.8,13.2
						c0.7,5.5,3.5,11.5,8.3,14.6c3.2,2.1,9,2.7,11.5-0.9c0.3,2.5,1.1,4.8,2.3,6.9C125.6,249.8,121.5,251.4,117.3,252.7z M136.8,254
						c-4.9-3.9-8.6-9.5-9.3-15.8c0-0.2-0.3-0.2-0.3,0c0,0.6,0,1.2,0,1.8c0,0,0,0,0,0c-8.2,7.4-16.4-3.2-18.1-10.9
						c-1-4.4-0.8-9.8,3.1-12.8c2.1-1.6,4.8-2,7.2-0.8c2.3,1.2,3.6,3.3,4.8,5.5c0.1,0.2,0.4,0.1,0.3-0.1c-0.1-0.4-0.2-0.8-0.3-1.1
						c2.7-1.3,5.2-4,7.1-6.3c1.9-2.2,3.3-4.7,4-7.6c1.3-5.6,0.4-13-2.5-18.1c3.2,2,6.9,3.3,10.3,4.3c5.2,1.6,10.6,2.5,15.9,3.4
						c0.4,0.1,0.8-0.2,0.7-0.7c-0.3-1.8-0.8-3.4-1.4-5.1c1.1,0.9,2.6,1.4,4,1.8c2.7,0.8,5.6,1.4,8.3,1.9c4.7,0.9,9.4,1.7,14.2,2.3
						c-1,0.7-1.7,1.7-1.8,3.2c0,0.3,0.4,0.4,0.6,0.2c0.9-1.4,1.8-2.7,3.3-3.1c0.1,0,0.2,0,0.3,0c0.2,0,0.3-0.1,0.4-0.2
						c0.1,0,0.1,0,0.2,0c2-0.1,3.6,1.2,4.6,2.8c0.1,0.2,0.5,0.1,0.4-0.2c-0.6-2.4-3-3.6-5.2-3.6c-0.8-2.3-2-4.3-3.4-6.2
						c2.1,1,4.6,1.4,6.9,1.7c1.6,0.2,3.3,0.3,4.9,0.2c0,3.3,0.7,6.8,1.2,10.1c0.5,3.5,1,7,1.6,10.5c1,7,2.4,14,3,21.1
						c0.5,6.3,0.1,13-3.5,18.5c-3.2,5-8.4,8.5-13.9,10.4c-3.8,1.3-7.7,2-11.7,2.2l-0.4,0c-2,0.1-3.9,0.1-5.9,0l-0.9,0
						c-0.6,0-1.2-0.1-1.9-0.1l-0.3,0c-0.7,0-1.3-0.1-2-0.1c-0.1,0-0.2,0.2,0,0.2c0.8,0.1,1.6,0.2,2.4,0.3c1.9,1.2,4.3,1.7,6.6,1.7
						c-0.8,0.8-1.5,1.6-2.6,2.2c-2,1.2-4.4,1.8-6.7,1.6c-4.3-0.3-7.7-3.1-9.9-6.7c1.3,0.4,2.5,0.7,3.7,0.9c0.3,0.1,0.4-0.3,0.1-0.5
						c-2.2-0.9-4.4-1.7-6.6-2.6L148,260c0,0,0,0,0,0C144,258.4,140.2,256.7,136.8,254z M190.4,294.7c0,3-0.2,6,0,9
						c0,0.1,0,0.1,0,0.1c-1.5-0.2-3-0.5-4.6-0.8c-0.4-0.9-1.2-1.6-1.6-2.5c-0.4-0.7-0.7-1.5-1.1-2.3c0,0,0,0,0,0
						c1.2-2,1.1-4.7,0.3-7l7.2-4C190.1,289.7,190.4,292.5,190.4,294.7z M189.6,286.9c-2.1,1.2-4.2,2.4-6.2,3.6
						c-0.4-2.4-0.9-4.7-1.4-7.1c-1-4.8-1.8-9.7-3.2-14.4c1.8-1,3.6-2.1,5.5-3c0.4-0.2,0.9-0.4,1.3-0.6c0.8,3.9,1.9,7.8,2.8,11.8
						c0.7,3.1,1.1,6.3,1.7,9.5C189.9,286.7,189.8,286.8,189.6,286.9z M176.1,297.2c-0.3,1.4-0.8,2.8-1.4,4.1c-0.5,1-1.2,1.8-1.6,2.8
						c-0.2-0.1-0.4-0.2-0.6,0c-1.7,1.3-4,1.4-6.2,1.3c2.1-3.3,3.8-7,5.2-10.6c0.8-2,1.4-4,2-6c0.5-1.9,1.2-4,1.2-6
						c2,0.4,4.2,0.3,5.9-0.8c0.1,0.4,0.2,0.9,0.3,1.3c0.3,1.8,0.7,3.6,1,5.3c-0.1-0.1-0.1-0.1-0.2-0.2c-1.3-1.4-5.1-2.7-5.5,0.1
						c-0.1,0-0.3,0.1-0.3,0.3C176.2,291.8,176.7,294.3,176.1,297.2z M162.7,272.4c1.5-0.3,2.6,0.2,2.8,1.8c0.1,1.1,0,2.1,0,3.2
						c0,0,0,0,0,0c-0.1,0.9-1.5,1.8-2.5,1.7c-1.2-0.1-0.9-1.7-0.9-2.6c0-1.2,0.1-2.7-0.2-3.9c0,0,0.1-0.1,0.1-0.1
						C162.2,272.5,162.4,272.5,162.7,272.4z M162.6,271.4C162.6,271.4,162.6,271.4,162.6,271.4c0.1-0.2,0.2-0.4,0.2-0.6
						c0.2,0.1,0.3,0.3,0.5,0.4C163,271.3,162.8,271.3,162.6,271.4z M161.9,271.2c-0.1,0.2-0.2,0.5-0.3,0.7c0,0,0,0,0,0
						c0-0.1-0.2-0.1-0.3,0c0,0,0,0,0,0c-2.1-1.4-4.4-2.3-6.7-3.2c-1.9-0.7-3.9-1.6-6-1.1c-0.5,0.1-0.9,0.3-1.2,0.5
						c0.1-1.1-0.2-2.2-0.3-3.3c-0.1-1.2-0.2-2.3-0.4-3.5c0.2-0.1,0.4-0.2,0.7-0.2c1.1,0.4,2.1,0.7,3.2,1.1c1.3,4.4,5.5,7.5,9.9,8.1
						c0.7,0.1,1.3,0.1,2,0.1C162.2,270.6,162,270.9,161.9,271.2z M151.6,269c3.3,0.8,6.3,2.6,9.5,3.8c-0.2,0.8-0.2,1.6-0.1,2.5
						c-1.8-1-4-1.4-6-1.4c-1,0-3.9-0.1-4.2,1.2c-0.3,1.1,1.4,1.4,2.1,1.7c2.1,0.7,4.4,0.9,6.5,0.3c0.3-0.1,0.3-0.6-0.1-0.6
						c-1.5,0.1-3.1,0.2-4.6-0.1c-0.6-0.1-1.3-0.3-1.9-0.6c-0.4-0.1-0.8-0.3-1.2-0.5c0.1,0.1,0.3,0.1,0.4,0c0.8-0.6,3.3-0.4,4.2-0.3
						c1.6,0.1,3,0.6,4.5,1c0.1,0,0.1,0,0.2,0c0,0.4,0,0.8,0,1.2c0,0.3,0,0.7-0.1,1.1c0,0-0.1,0-0.1,0c-2.6,2-5.5,3.7-8.6,4.8
						c-0.6,0.2-1.2,0.5-1.9,0.6c-2.2,0.3-2.5-1.2-2.5-3c-0.1-1.4-0.2-2.5-0.7-3.9c-0.6-1.6-1.2-3.3-0.9-5
						C146.8,269,149.2,268.4,151.6,269z M155.1,283.1c2.1-1,4.1-2.2,5.9-3.5c0.1,0.4,0.3,0.7,0.8,0.8c0.3,0.1,0.8,0.1,1.3-0.1
						c-0.6,3.8-0.3,7.9-0.5,11.7c-0.2,4.2-0.4,8.4-0.3,12.6c0,0.4,0.6,0.4,0.6,0c0.3-4,0.3-8.1,0.3-12.2c0-4,0.6-8.2,0.1-12.2
						c0.9-0.2,1.9-0.7,2.6-1.2c0.2,0,0.3-0.1,0.4-0.3c0.1-0.2,0.1-0.4,0.2-0.7c1.5,2,4.3,3.6,6.6,4.4c0.3,0.1,0.5,0.2,0.8,0.3
						c-0.7,1.6-1,3.5-1.4,5.2c-0.6,2-1.2,4-1.9,6c-1.5,4-3.5,7.7-5.5,11.5c-0.8-0.1-1.6-0.1-2.3-0.2c-0.7,0-1.3-0.1-2-0.2
						c-2.3-3.2-4.9-6.1-6.8-9.7c-1-1.8-1.9-3.8-2.6-5.7c-0.6-1.6-0.9-3.3-1.6-4.8C151.6,284.8,153.6,283.8,155.1,283.1z
						 M165.2,306.7c2.5,0.2,5.2,0.2,7.3-1.1c-1,4.3,0.8,10.2,4,13c0,0,0,0,0,0c0,0.1,0.1,0.2,0.3,0.3c0.3,0.1,0.6,0.2,1,0.3
						c-3.8,1-7.6,1.9-11.4,2.6c-1.4-2.5-2.3-5.1-2.4-7.9C163.9,311.3,164.6,309.1,165.2,306.7z M180.3,281c-2.8,1.2-5.5,1.1-8.3-0.2
						c-1.9-0.9-3.5-2.6-5.4-3.4c0.1-0.6,0.1-1.2,0-1.8c1.9-0.8,3.8-1.5,5.8-1.8c0.6-0.1,1.3-0.2,2-0.2c0.5,0,0.6-0.2,0.5,0.1
						c-0.1,0.5-3.4,1.1-4,1.2c-0.3,0.1-0.2,0.5,0.1,0.5c0.7,0,6.6-1,4.7-2.6c-0.8-0.7-3.2,0-4.2,0.2c-1.7,0.3-3.4,1-4.9,1.8
						c0-0.1,0-0.1,0-0.2c0-0.4-0.1-0.9-0.2-1.3c1.6-0.8,3-2.1,4.6-3c2-1,4.9-2.4,6.8-0.8c0,0,0,0,0,0
						C178.7,273.5,179.5,277.3,180.3,281z M174.5,265.8c0,0.8-0.1,1.5-0.1,2.3c0,0,0,0,0,0c-2.8,0.9-6.4,3.1-7.8,4.6
						c-0.5-0.6-1.2-0.9-1.8-1.3c-0.6-0.4-1.3-0.7-1.9-0.9c0-0.1,0-0.1,0-0.2c1.7-0.2,3.3-0.6,4.8-1.4c1.8-0.9,4.3-2.7,4.9-4.8
						c0.6,0,1.3,0,1.9-0.1C174.4,264.5,174.5,265.2,174.5,265.8z M129,274c4.3-6.3,10.3-10,17.2-12.5c-0.1,1.2-0.1,2.4,0,3.6
						c0.1,1.1,0.1,2.4,0.5,3.4c-2,1.7-1.9,5.2-1,7.7c0.5,1.3,1.2,2.5,1.1,3.9c0,0.9-0.4,1.8-0.2,2.7c0.3,1.2,1.3,1.8,2.4,2
						c0.1,1.7,0.8,3.5,1.3,5.2c0.7,2,1.6,3.9,2.5,5.7c1.7,3.2,3.8,6.7,6.6,9.3c-2.5-0.3-4.9-0.8-7.3-1.8c-3-1.3-5.7-3.3-7.4-6.1
						c-1.8-3-2.2-6.6-2.4-10.1c0-0.2-0.3-0.2-0.3,0c-0.5,7.3,2.3,14.1,9.3,17.2c3.5,1.6,7.3,2.1,11,2.4c0.7,0,1.4,0.1,2.1,0.2
						c-2.6,4.4-1.5,11.1,0.8,15.4c-3.6,0.6-7.3,0.9-11,0.7c-7.7-0.4-14.9-3.2-20.5-8.5c-4.9-4.6-8.1-10.6-9.3-17c0,0,0-0.1,0-0.1
						c0-0.1,0-0.1-0.1-0.2C122.9,289.2,124.4,280.9,129,274z M100.4,401.1c-1.9,3.1,1.6,6.5,2.9,9.2c1.5,2.9,0.3,5.8-2.7,7
						c-2,0.8-4,0.4-5.9-0.3c-2.2-1.2-4.2-2.4-4.9-5.4c-0.7-3.1-0.6-6.5-0.4-9.7c0.1-3.4,0.5-6.7,1.1-10.1c0.5-2.6,1.3-5.2,1.8-7.8
						c0,0,0.1-0.1,0.1-0.1c2.9-4,8.5-0.8,12.4-0.1c-1.7,1.9-2.7,5.4-3.3,7.5C100.5,394.4,99.9,397.9,100.4,401.1z M226.3,408.4
						c2.2,0.2,4.9,0.9,6.1,2.9c1.8,2.9-0.4,5.5-3.3,6.3c-0.7,0-1.4,0.1-2.1,0.1c-4.3,0.2-8.5,0.3-12.8,0.3c-6.2,0-12.5,0-18.8-0.2
						c-0.3-0.2-0.6-0.4-0.9-0.5c0,0,0-0.1-0.1-0.1c-2.3-3.3-0.4-6.6,0.4-10c3.4,1,7.4,1,10.7,0.9c2-0.1,4-0.2,6-0.6
						c1.4-0.2,3.3-0.3,4.6-1C218.7,408.7,223.2,408.1,226.3,408.4z M196.6,349.1c3.4-0.1,6.9-0.1,10.3,0.2c3.9,0.4,6.5,2.3,7.8,6
						c1.1,3,1.6,6.4,1.9,9.6c1.3,13.5-2.2,27-0.4,40.5c-1.3-0.1-2.7,0.5-3.9,0.7c-2.2,0.4-4.5,0.6-6.8,0.7c-2,0.1-3.9,0-5.9-0.2
						c-1.9-0.2-3.8-0.6-5.6-0.7c0.8-2.3,0.7-5.3,0.9-7.8c0.2-2.9,0.3-5.9,0.1-8.8c-0.1-2.6-0.5-5.1-0.9-7.6c-0.5-3-0.5-6-0.8-9
						c0.2-0.1,0.3-0.5,0.1-0.7c-2-2-5.3-2.5-7.9-2.8c-3.7-0.3-7.6-0.1-11.3,0c-4.1,0.2-8.2,0.5-12.2,1c-3.6,0.4-7.7,0.6-11.1,1.8
						c-0.2-0.8-0.4-1.5-0.6-2.3c-0.1-0.4-0.8-0.2-0.6,0.2c2.2,8,4.1,16.2,6.1,24.3c1,4,2.5,8.5,0.2,12.3c-1.9,3.2-5.5,5.2-8.9,6.3
						c-7.7,2.3-15.8,0.5-23.1-2.1c-7.7-2.7-15.1-6.2-22.5-9.7c0.1-3.4,0.2-6.5,1.1-9.8c0.5-1.7,1.1-3.3,1.9-4.8
						c0.4-0.9,1-1.7,1.3-2.6c0,0,0.1,0.1,0.1,0.1c3.9,1.7,8.2,2.8,12.3,3.8c4.1,1,8.4,2.2,12.6,2.3c0.4,0,0.4-0.5,0.1-0.6
						c-0.5-0.2-1-0.3-1.6-0.5c-2.1-6.5-4.4-12.9-6.6-19.4c-1.1-3.1-2.2-6.2-2.9-9.4c-0.8-3.3-0.9-6.4-0.8-9.7
						c5.1,2.1,11.1,2.8,16.4,3.2c7.2,0.5,14.6,0.4,21.8-0.2l1-0.2l0.3-1.1c0,0,0,0,0,0c0.7-2.4,1.3-4.6,1.7-6.9
						c0.2-0.7,0.3-1.4,0.5-2.2c0.2,0.9,0.3,1.8,0.5,2.7c0.4,2.2,0.7,4.5,1.2,6.7l0.2,0.7l1.3,0.1c2.2,0,4.5-0.5,6.6-0.8
						c3.5-0.5,6.9-1.2,10.3-2.1c1.7-0.4,3.4-0.9,5.2-1.4C189.5,349.6,193.2,349.1,196.6,349.1z M186.2,347.8
						c-1.7,0.6-3.5,1.1-5.3,1.6c-3,0.8-6.1,1.5-9.2,2c-2.6,0.4-5.4,0.5-8,1c-0.4-2-0.9-4-1.2-5.9c-0.4-2.1-0.7-4.2-1.1-6.2l-0.5-2.8
						l-0.5,3c-0.3,1.6-0.6,3.2-0.9,4.8c-0.5,2.4-1.3,4.8-1.9,7.3c-7,0.1-14,0.6-21,0.2c-6.5-0.4-12.5-1.7-18.6-3.7
						c1.3-8.1,2.1-16.4,3.1-24.6c1-7.9,2.1-15.7,3-23.6c3.5,11.4,13.4,20.4,25.5,22.5c9.9,1.8,20.2-0.5,29.7-3.4
						c0.1,0,0.2-0.1,0.2-0.2c1.9,0.6,3.8,1,5.8,1.2c-0.3,5.3,0.1,10.7,0.4,16C185.8,340.6,185.9,344.2,186.2,347.8z M216.6,306.4
						c0.2,0.5,0.4,1,0.2,1.6c-0.3,1-1.3,1.8-2.1,2.3c-1.2,0.7-2.6,1.2-4,1.6c-1.9,0.1-3.7,0.5-5.6,0.6c-2.1,0.2-4.3,0.2-6.4,0.1
						c-0.2,0-0.2,0.3,0,0.3c3.5,0.2,7.5,0.6,11.1,0c-2,1.3-3.9,2.7-6,3.8c-2.6,1.3-5.3,2.3-8.1,2.8c-3.4,0.7-6.8,0.9-10.2,0.5
						c-0.1-0.2-0.3-0.2-0.4,0c-2.7-0.3-5.4-1-8.1-1.9c-1.3-2.1-2.6-3.9-3.2-6.3c-0.6-2.4-0.5-4.7-0.5-7.1c0,0,0-0.1,0-0.1
						c2.2-1.2,3.3-5.1,3.8-7.3c0.5-2.6,0.7-5.8-0.6-8.3c2.4-2.3,4.7,0.5,5.6,2.8c0.8,2,0.6,4,0.4,6.1c0,0-0.1,0-0.1,0.1
						c-0.3,1.5,0.7,3.8,2,4.9c-0.8-0.1-1.7-0.2-2.5-0.3c-0.2,0-0.2,0.2,0,0.3c5.4,2.1,11.7,2.6,17.4,3.2c3,0.3,6,0.4,9.1,0.5
						c2.1,0,4.7,0.1,6.3,0v0c0,0,0.1,0,0.1,0C215.4,306.6,216.1,306.5,216.6,306.4z M214.3,286.2c0.2,4.4,0.6,8.9,0.7,13.3
						c0.1,1.9,0,3.9,0,5.9c-2.3,0-4.5,0.1-6.8,0.1c-2.9-0.1-5.9-0.2-8.8-0.5c-2.8-0.2-5.5-0.6-8.3-1c0.1-0.1,0.1-0.1,0.1-0.3
						c0.2-3,0.2-6,0.2-9c0-2.3,0.5-5.1,0-7.4c6.2,0.2,12.5-0.6,18.6-1C211.5,286.3,212.9,286.2,214.3,286.2z M201.3,274.9
						c-1,0-2-0.1-2.9-0.1c0.4-0.4,0.9-0.9,1.2-1.3c0.3-0.3,0.2-0.6,1-1c0,0,0,0,0,0C200.5,273.3,200.9,274.2,201.3,274.9z
						 M204.1,277.7C204.1,277.7,204.1,277.7,204.1,277.7c-0.2,0-0.4,0-0.7,0c-0.2-0.3-0.4-0.6-0.6-0.9c-0.2-0.3-0.4-0.7-0.7-1
						c0.8,0,1.7,0,2.5-0.1c-0.1,0.3-0.3,0.6-0.4,0.9C204.2,276.9,204,277.3,204.1,277.7z M202.7,277.7c0,0-0.1,0-0.1,0
						c-0.2,0-0.4,0.1-0.7,0.1c0-0.4-0.1-0.7-0.2-1.1c0-0.3-0.1-0.7-0.1-1c0,0,0.1,0,0.1,0c0.1,0.5,0.3,1,0.6,1.4
						C202.5,277.3,202.6,277.5,202.7,277.7z M202.3,275c0.1-0.2,0.3-0.4,0.4-0.6c0.2-0.3,0.4-0.7,0.5-1c0.2,0.3,0.4,0.6,0.6,0.9
						c0.2,0.2,0.3,0.4,0.5,0.6c-0.4,0-0.8,0.1-1.2,0.1C202.8,275,202.5,275,202.3,275z M204.8,276.8c0.1-0.4,0.2-0.8,0.2-1.2
						c0.1,0,0.2,0,0.3-0.1c0.1,0.5,0.2,1,0.3,1.5c0.1,0.3,0.1,0.7,0.3,1c0,0,0,0.1,0,0.1c-0.5-0.2-1-0.3-1.6-0.4
						C204.7,277.5,204.7,277.1,204.8,276.8z M205.6,275.4c0.7-0.1,1.4-0.3,2-0.5c-0.3,0.3-0.5,0.7-0.7,1c-0.2,0.4-0.5,0.8-0.7,1.2
						c0-0.1-0.1-0.2-0.1-0.3C206,276.3,205.8,275.9,205.6,275.4z M205.4,274.7c0.3-0.3,0.6-0.7,0.8-1c0.3-0.4,0.5-0.7,0.7-1.1
						c0,0,0.1,0.1,0.1,0.1c0.3,0.5,0.6,1,0.8,1.5C207,274.3,206.2,274.5,205.4,274.7z M205.8,273.3c-0.3,0.5-0.6,0.9-0.8,1.4
						c0,0,0,0,0,0c0,0,0,0,0,0c0,0,0,0,0,0c-0.1-0.3-0.5-0.6-0.7-0.9c-0.3-0.3-0.6-0.5-0.9-0.8c1.2,0.1,2.4-0.2,3.2-1.1
						c0,0.1,0.1,0.2,0.2,0.2C206.3,272.4,206.1,272.9,205.8,273.3z M203.9,272.4c-1.1,0.1-2.2,0-3.2-0.5c0,0,0,0,0,0
						c0,0,0-0.1,0-0.1c0.9,0.3,2,0.1,3,0.1c0.9,0,1.8,0,2.6-0.3c0,0,0,0,0,0C205.5,271.9,204.8,272.3,203.9,272.4z M203,273
						c-0.3,0.4-0.5,0.7-0.8,1.1c-0.2,0.3-0.4,0.5-0.5,0.9c-0.3-0.9-0.9-1.7-1.3-2.5c0,0-0.1-0.1-0.1-0.1c0.1-0.1,0.1-0.1,0.2-0.2
						C201.2,272.6,202.1,272.9,203,273z M201.2,275.7c-0.1,0.5-0.2,1-0.1,1.5c-0.3-0.2-0.6-0.5-0.8-0.7c-0.5-0.4-1-0.9-1.5-1.3
						C199.6,275.5,200.4,275.6,201.2,275.7z M202.3,278.8c4-0.8,7.3,2.3,7.5,6.2c0,0,0,0.1,0,0.1c0,0,0,0-0.1,0
						c-0.7,0-1.5,0.1-2.2,0.1c0,0,0.1-0.1,0.1-0.1c0.9-2.2-2-4.1-3.9-4c-1.9,0.1-3.8,1.6-4.1,3.5c-0.2,0.1-0.3,0.2-0.3,0.4
						c0,0.2,0.1,0.3,0.3,0.3c0,0,0,0,0,0c0,0.1,0,0.2,0,0.3c-0.8,0.1-1.7,0.1-2.5,0.2c0.3-1.4,0.3-2.7,1-3.9
						C198.9,280.3,200.5,279.2,202.3,278.8z M204,284.7c0.8-0.2,1.8-0.2,2.5-0.6c0.1,0.4,0.2,0.8,0.4,1.1c0,0.1,0.1,0.1,0.1,0.1
						c-2.3,0.1-4.7,0.2-7,0.3c0.1-0.2,0.1-0.3,0.2-0.5C201.5,285.3,202.9,284.9,204,284.7z M200.6,284.2c0.5-1.1,1.4-2,2.8-2.1
						c1-0.1,1.9,0.3,2.6,1.1c-0.7,0-1.4,0.3-2.1,0.4C202.9,283.8,201.7,283.9,200.6,284.2z M243.5,267c-3.4,2.2-6.9,4.2-10.5,6
						c-3.7,1.9-7.4,3.6-11.2,5.1c-3.8,1.5-7.7,2.7-11.5,4.2c-0.7-1.8-2.1-3.2-3.8-4c0.5-0.5,0.9-1.2,1.3-1.8
						c0.4-0.6,1.2-1.2,1.3-1.9c0-0.1-0.1-0.3-0.2-0.3c0,0,0,0,0,0c0-0.1,0-0.2,0-0.3c-0.2-0.7-0.6-1.3-1-1.9
						c-0.3-0.4-0.7-0.8-1.2-0.9c0,0-0.1-0.1-0.1-0.1c-1-0.4-2.2-0.1-3.3,0c-0.9,0.1-1.9,0.1-2.7,0.5c-0.1,0-0.2,0-0.3,0
						c-0.7,0.3-1.1,0.9-1.6,1.5c-0.4,0.5-0.9,1.2-0.8,1.9c0,0,0,0,0,0.1c0,0,0,0.1,0,0.1c0.4,0.9,1.3,1.5,2,2.2
						c0.3,0.3,0.6,0.7,0.9,1c-2.9,1.3-5.4,4.5-4.2,7.6c-1.7,0.2-3.4,0.3-5.1,0.6l-0.1-0.6c-0.5-2.9-1.2-5.8-1.8-8.6
						c-0.9-4.1-1.8-8.2-3.1-12.2l-0.4-1l-0.7,0.3c-0.4,0.2-0.9,0.4-1.3,0.6c-1.9,0.9-3.8,2-5.6,3.1l-0.4,0.2
						c-0.5-0.6-1.5-0.7-2.8-0.5c0.2-1.2,0.3-2.9-0.3-4c2.2-0.1,4.3-0.4,6.4-0.9c2.2,0.3,4.5,0.2,6.6,0.2c2.8,0,5.7-0.2,8.5-0.4
						c5.6-0.5,11.1-1.3,16.6-2.4c8.7-1.8,17.1-4.6,25.2-8.1c0.6,4.7,4.2,10,7.9,12.9C245.4,265.8,244.5,266.4,243.5,267z
						 M248.7,263.5c-0.6,0.4-1.1,0.8-1.7,1.2c-1.9-1.9-3.7-3.8-5.1-6.1c-1.3-2.1-2-4.4-3.1-6.6c1.9-0.8,3.8-1.7,5.7-2.6
						c0.6,2.2,2.2,4.4,3.4,6.3c1.2,1.7,2.7,4.2,4.6,5.3C251.2,261.7,249.9,262.7,248.7,263.5z M270,247.9c-0.2,0.1-0.1,0.5,0.1,0.5
						c0.5-0.1,0.9-0.1,1.4-0.3c1.4-0.1,2.8-0.5,4.1-0.9c0.7-0.2,1.6-0.6,2.3-0.6c1.5-0.1,1.9,0.4,1.9,1.2c-1.4,1.7-3.4,2.5-5.3,3.5
						c-2.4,1.2-4.8,2.3-7.3,3.3c-4.7,2-9.6,3.5-14.4,5.2c-0.5-0.7-1.1-1.3-1.6-2c-0.9-1.1-1.7-2.2-2.5-3.4c-1.2-1.8-2.1-3.9-3.4-5.6
						c0.1-0.2,0-0.4-0.1-0.5c0.4-2.5,0.5-5,1.2-7.4c0.7-2.5,2-4.6,2.8-7c0-0.2,0-0.3-0.1-0.4c0.7-1.2,1-2.5,1.2-3.9
						c0.1-1.1-0.1-2.2-0.1-3.3c0.1-2.3,1.2-2.3,2.6-2.6c4.1,0.8,2.4,7.6,2,10.4c0,0.1,0.1,0.3,0.2,0.3c0.3,1.8,1.6,3.3,1.9,5.2
						c0.5,2.6-0.1,4.8-0.6,7.2c-0.1,0.3,0.3,0.4,0.5,0.2c1.3-1.9,1.5-4.5,1.2-6.8c-0.1-0.9-0.3-2-0.7-3.1c1.2-0.5,2.1-1.7,3.1-2.5
						c1.7-1.4,3.4-2.6,5.3-3.7c1.6-1,3.3-1.8,5-2.5c1.6-0.7,3.5-1.1,5.1-2c0.5,0.3,1.1,0.7,1.2,1.3c0.2,0.6,0,1.2-0.2,1.8
						c-2.4,1-4.5,3-6.6,4.5c-2.3,1.7-4.7,3.3-6.8,5.3c-0.2,0.2,0.1,0.6,0.3,0.4c0.1,0,0.1-0.1,0.2-0.1c0,0.1,0.1,0.1,0.2,0.1
						c2.8-1,5.4-2.9,8.1-4.4c1.3-0.8,2.7-1.5,4-2.2c1.5-0.8,2.8-1.7,4.4-1c0,1.4-0.1,2.3-1,3.4c-0.8,0.9-1.8,1.7-2.7,2.5
						c-2,1.7-4.2,3-6.4,4.3c-0.1,0-0.1,0.1-0.1,0.2c-1.1,0.6-2.1,1.2-3.1,1.9c-0.1,0.1-0.1,0.3,0.1,0.3c2.2-0.7,4.3-1.9,6.4-2.9
						c1-0.5,2.1-1,3.1-1.5c0.6-0.3,1.1-0.6,1.7-0.9c0.6-0.3,2.5-1,3.1-0.3C282.8,242.2,271.7,247,270,247.9z"/>
				</g>
			</g>
			<g>
				<path class="st1" d="M238.3,150.1c4.6-6,9.6-12.4,10.1-20.2c0.3-3.8-0.7-10.2-6-8.4c-3.9,1.3-4.3,5.4-5.9,8.6
					c0.1,0.3-0.4,0.5-0.5,0.2c-1.7-3.3-3.8-8.1-8.3-7.8c-5,0.3-4.4,7.7-3.8,11C225.4,141.3,231,147.2,238.3,150.1z"/>
				<path class="st1" d="M264.4,167.6c1.2-0.8,2.3-1.6,3.4-2.5c2-1.7,3.7-3.6,5.2-5.7c0.9-1.3,1.8-2.7,2-4.3
					c0.2-1.9-0.9-3.9-3.1-3.8c-3.1,0.1-5.3,2.8-6.5,5.4c0,0.1-0.1,0.1-0.2,0.2c0,0.1,0,0.1,0,0.2c0,0.4-0.6,0.5-0.7,0.1
					c-0.6-2.5,0.1-5.8-1.8-7.9c-1.8-2-4.1-0.5-4.8,1.7c-0.4,1.2-0.4,2.5-0.4,3.8c-0.1,5.4,1.9,10,4.5,14.5
					C262.7,168.6,263.6,168.2,264.4,167.6z"/>
				<g>
					<path d="M238.2,150.7c0.2,0.3,0.6,0.4,0.8,0.1c5.8-7.2,12.8-16.3,10.4-26.2c-0.9-3.7-4.1-5.7-7.7-4.1c-3.1,1.3-5,4.9-5.5,8.3
						c-1.2-3.6-3.4-7.2-7.5-7.5c-4.7-0.4-6.1,4.2-6.2,8C222.2,138.9,228.7,148.2,238.2,150.7z M227.7,122.4c4.5-0.2,6.6,4.5,8.3,7.8
						c0.1,0.3,0.6,0.1,0.5-0.2c1.6-3.2,2-7.3,5.9-8.6c5.3-1.8,6.3,4.6,6,8.4c-0.6,7.8-5.5,14.3-10.1,20.2
						c-7.3-2.9-12.9-8.7-14.4-16.6C223.3,130.1,222.8,122.7,227.7,122.4z"/>
					<path d="M261.6,169.7c0,0.1,0.1,0.1,0.2,0.1c0,0.1,0.1,0.2,0.2,0.1c1.6-0.2,3-1.3,4.3-2.2c1.5-1,2.9-2.2,4.2-3.5
						c2.4-2.4,5.5-5.7,5.7-9.3c0.1-2.9-2-5.1-4.9-4.6c-2.6,0.4-5,2.4-6,4.8c0-2.6,0.1-5.4-2.1-7.2c-2.2-1.9-5-0.6-6.1,1.9
						c-1.3,3-0.9,6.9-0.2,10C257.5,163.4,259.1,167,261.6,169.7z M257.9,151c0.7-2.1,3-3.7,4.8-1.7c1.9,2.1,1.2,5.3,1.8,7.9
						c0.1,0.4,0.7,0.3,0.7-0.1c0-0.1,0-0.1,0-0.2c0.1,0,0.1-0.1,0.2-0.2c1.2-2.5,3.4-5.3,6.5-5.4c2.2-0.1,3.3,1.9,3.1,3.8
						c-0.2,1.6-1,3-2,4.3c-1.5,2.1-3.2,4-5.2,5.7c-1.1,0.9-2.2,1.8-3.4,2.5c-0.8,0.5-1.7,1-2.4,1.6c-2.7-4.5-4.6-9.2-4.5-14.5
						C257.5,153.5,257.6,152.2,257.9,151z"/>
				</g>
			</g>
			<g>
				<path class="st10" d="M350.9,209.5c0.3,0.4,0.5,0.9,0.5,1.5c0,0,0,0,0,0c1.9,2.3,2.5,5.3,2.8,8.2c0.3,2,0.4,4.1,0.5,6.2
					c0.1,2,0.4,4,0,5.9c0,0,0,0,0,0c1.6,1.9,2.9,4,4.6,5.8c1.9,2,4,3.7,6.3,5.1c0.4,0.3,0.9,0.5,1.4,0.8c-0.2-3.2,0.1-6.5,0.1-9.7
					c-0.2,0-0.3,0-0.5-0.2c-3.2-4.2-5.1-9.5-5.8-14.7c-0.4-2.5-0.5-5-0.3-7.6c0.2-2.3,0.4-4.9,1.6-6.9c-1.7-0.4-3.4-1-5.1-1.3
					c-1.5-0.2-3-0.3-4.5-0.3C352.7,204.8,352.2,207.3,350.9,209.5z"/>
				<path class="st2" d="M362.2,218.7c0.8,4.8,2.6,9.1,5,13.3c0.1-3.1,0.2-6.3,0.5-9.4c0-0.2,0.3-0.2,0.3,0c0.3,3.5,0.3,7,0.2,10.5
					c0,3.4,0.2,7.1-0.2,10.5c3.4,1.9,7.2,4.3,7,8.4c0,0.4-0.6,0.5-0.7,0.1c-1.5-5.9-7.8-7.3-12.1-10.7c-3.2-2.4-6.8-5.9-8-9.9
					c-0.1,0-0.2-0.1-0.2-0.2c-0.8-3.3-0.5-7.1-0.8-10.5c-0.3-3.5-1.1-6.5-2.6-9.7c0-0.1,0-0.2,0-0.3c-1.5-1.8-4.8-1.2-6.8-0.9
					c-2,0.3-4,1-6,1.3c-0.4,0.2-0.7,0.5-1.1,0.7c2.3-0.7,4.8-1.4,7.2-1.2c0.1,0,0.2,0.1,0.3,0.1c0.6,0,1.2,0.3,1.5,1.1
					c0.6,1.4-0.3,3.1-1.6,3.6c0,0,0,0-0.1,0c-0.8,0.8-1.9,1.4-3.1,1.9c1.2-0.2,2.4-0.3,3.5-0.1c1.2-0.2,2.5,0.1,2.8,1.6
					c0.4,1.5-0.7,3.2-2.2,3.4c-0.1,0.1-0.3,0.1-0.5,0.2c-0.2,0.1-0.3,0.1-0.5,0.2c0.2,0,0.3,0,0.5,0c1.6,0.1,3.9,1.7,2.1,3.2
					c-0.1,0.1-0.1,0.1-0.2,0.1c-1,1-2.3,1.4-3.6,1.8c-2.1,0.6-4.2,1-6.1,1.9c-0.1,0.2-0.2,0.4-0.2,0.5c0,0,0,0,0,0
					c1.2,1.8,2,4,3.6,5.6c1.5,1.6,3.2,2.1,5.2,2.4c0.2-0.2,0.7-0.3,0.8,0.1c1.5,3.4,2.7,6.9,4.1,10.4c1.3,3.4,2.6,6.9,4.9,9.9
					c2.2,2.9,5.2,5,8.2,6.8c1.4,0.8,2.8,1.6,4.2,2.3c1.2,0.5,2.4,0.8,3.7,1.1c0,0-0.1-0.1-0.1-0.1c-0.1-0.1,0-0.3,0.1-0.3
					c1.1,0.3,2.1,0.7,3.2,0.7c1.7,0.1,2.3-0.7,3.3-2c0.1-0.1,0.2-0.1,0.3-0.1c2.4-2.7,4.3-5.5,5-9.2c0.5-2.7,0.5-5.6,0.3-8.4
					c-1.3-8.7-2.2-17.5-5.4-25.9c-1.5-3.9-3.4-7.6-5.9-11c-1.3-1.8-2.7-3.5-4.3-5c-1.4-1.3-2.9-2.5-4.3-3.8c0,0-0.1,0-0.1,0
					c-0.2,0-0.3-0.1-0.5-0.1c0,2.4-0.7,4.7-0.9,7.1C361.7,213.7,361.8,216.2,362.2,218.7z"/>
				<path class="st2" d="M316.6,257.4c4.4-5.1,7.6-11,11.2-16.5c-0.1-0.1-0.3-0.1-0.4-0.2c-0.2-0.1-0.2-0.5,0.1-0.5
					c1.6-0.5,3.1-0.3,4.6-1.2c1.6-1,2.7-2.7,2.9-4.6c0.3-1.9-0.3-4.1,1.6-5.1c1.1-0.9,2.4-1.3,3.8-1.7c2.1-0.6,4-1.2,5.9-2.2
					c0.4-1.6-3.3-1.2-3.7-1.1c-0.9,0.1-1.8,0.2-2.6,0.4c-1.6,0.3-3.1,1-4.7,1.3c-0.1,0-0.2-0.1-0.1-0.2c1-0.8,2.3-1.5,3.7-1.9
					c0.7-0.3,1.5-0.6,2.3-0.9c1-0.4,3.3-0.8,4.4-1.7c0.4-0.4,0.7-0.9,0.7-1.4c0-0.7-0.4-1.1-0.9-1.3c0,0,0,0,0,0
					c-1.9,0.4-3.9,0.2-5.8,0.8c-2.1,0.6-3.9,1.6-5.9,2.5c-0.2,0.1-0.3-0.1-0.2-0.3c0.4-0.5,0.9-0.9,1.5-1.3c2.1-3.8,7.9-3.3,9.8-7.3
					c0-0.1,0-0.3-0.1-0.4c-0.2-0.6-0.9-0.7-1.6-0.7c-2,0.5-4.1,0.7-6.1,1.3c-2.3,0.7-4.5,1.8-6.8,2.5c-0.1,0-0.3-0.1-0.1-0.2
					c0.8-0.7,1.7-1.2,2.6-1.6c0,0,0,0,0,0c1.1-1.1,2.5-1.9,3.8-2.7c1.1-0.7,3-1.4,3.6-2.7c-0.1-2.7-4.1-0.7-5.3-0.2
					c-1.2,0.6-2.5,1.1-3.7,1.7c-2.2,1.1-4.1,2.4-6.1,3.7c-0.6,0.8-1.5,1.4-2,2.2c-0.6,1-0.2,2-0.3,3.1c0,0,0.1,0.1,0.1,0.2
					c0.3,1.8,0,3.8,0,5.6c0,1.8,0.3,3.8,0,5.6c0,0.2-0.2,0.2-0.4,0.1c-0.8,1.8-2.4,3.5-3.8,4.9c-1.6,1.6-3.3,3-5.2,4.3
					c-4.5,3.1-9,5.4-11.5,10.5c-0.1,0.3-0.5,0.1-0.4-0.2c0.7-4.1,4.4-6.8,7.7-8.9c0,0,0,0,0,0c-0.5-2.6,0.1-5.7,0.4-8.4
					c0.3-2.8,0.8-5.5,1.3-8.2c0-0.2,0.3-0.1,0.3,0c-0.2,2.3-0.3,4.5-0.4,6.8c1-1.6,2.1-3.1,3-4.8c1-1.9,1.9-3.9,2.5-6
					c0.6-2.1,1.1-4.2,1.3-6.4c0.2-1.8,0.1-3.7,0.3-5.5c0,0-0.1,0.1-0.2,0.1c-10.4,3.7-16.6,13.4-21.1,23.1c-2.3,5-4,10.3-4.5,15.8
					c-0.2,2.7-0.2,5.5,0.1,8.2c0.3,2.7,1.3,5.2,1.8,7.8c0.1,0,0.2,0,0.2,0.1c0.8,0.8,1.5,1.8,2.5,2.4c0.9,0.6,1.8,0.7,2.9,0.8
					c0.5-0.1,1-0.2,1.6-0.4c0.2,0,0.3,0,0.4,0.2c2.6-0.9,5.2-1.4,7.7-2.7C312,261.9,314.5,259.9,316.6,257.4z"/>
				<path class="st4" d="M364.7,269.8c-9.1,1.7-18.4,2.5-27.6,2.9c-4.8,0.2-9.5,0.3-14.3,0.2c-4.4-0.1-8.9-0.1-13.2-0.9
					c-0.1,2-0.2,4.1-0.7,6.1c4.7-0.1,9.5,0.8,14.1,1.1c4.7,0.3,9.4,0.3,14.1,0.2c9.8-0.2,19.3-1.6,28.9-3.1c0,0,0.1,0,0.1,0
					c-0.4-1.1-0.7-2.3-0.9-3.5C365,271.8,364.8,270.8,364.7,269.8z"/>
				<path class="st1" d="M356.5,412.5c-2.2,0.7-4.5,0.7-6.7,0.4c-2.1-0.3-4.8-0.8-6.6-1.9c0.1,1.7,0.1,3.3,0.2,5
					c0,0.2-0.1,0.3-0.1,0.4c3,0.1,6.1,0.9,9.1,1.2c3.3,0.4,6.6,0.7,9.9,0.9c3.3,0.2,6.6,0.2,9.9,0.2c2.9-0.1,5.7,0,7.9-2.1
					c0.1-0.1,0.2-0.1,0.3-0.1c0.7-1.8-0.4-4.1-1.8-5.3c-1.9-1.6-4.3-2.6-6.5-3.5c-2.4-1-4.8-1.8-7.3-2.4c-0.5-0.1-1.1-0.2-1.7-0.3
					C363.1,408.5,359.8,411.5,356.5,412.5z"/>
				<path class="st10" d="M323.6,271.6c4.5,0.1,9-0.1,13.5-0.3c9.3-0.4,18.4-1.3,27.6-2.9h0c0,0,0-0.3,0-0.5
					c-0.6-0.3-1.1-0.5-1.6-0.8c-3-1.8-6-3.8-8.3-6.4c-2.4-2.7-3.9-6.1-5.2-9.4c-1.5-3.9-3.1-7.8-4.4-11.7c-4.4,1.1-8.2-4.5-9.1-8.3
					c-0.2,1.3,0.1,2.7-0.2,3.9c-0.3,1.2-0.9,2.4-1.7,3.3c-1.3,1.4-3.8,2.9-5.8,2.5c-1.1,3.5-3.3,6.6-5.3,9.6c-2,2.9-3.9,5.9-6.3,8.4
					c-2.1,2.2-4.5,4.1-7.2,5.5c0.6,2.1,0.3,4.5,0.1,6.7C314.3,271.1,319,271.5,323.6,271.6z"/>
				<path class="st2" d="M315.7,352.2c-1.8,0-3.5-0.3-5.1-0.8c0.6,4,0.4,8.2,0.6,12.3c0.2,4.4,0.4,8.8,0.7,13.3
					c0.5,9,1.5,17.9,2.1,26.8c0,0.3-0.3,0.5-0.6,0.5c-1.8,1-4,1.4-5.9,2.1c-0.1,0-0.2,0.1-0.3,0.1c2.5,3.4,6.5,3.8,10.5,3.9
					c1.8,0.1,3.7,0.1,5.5-0.1c1.9-0.2,3.5-1.1,5.3-1.5c0.1,0,0.2,0,0.3,0.1c-0.1-8.4,0-16.7,0.1-25.1c0.1-5.6,0.2-11.3,0.4-16.9
					c0.1-2.8,0.2-5.5,0.3-8.3c0.1-2.5,0-5.2,0.5-7.7c-0.8-0.1-1.5-0.1-2.3-0.1C323.8,350.8,319.9,352.1,315.7,352.2z"/>
				<path class="st1" d="M316.1,411.4c-3.5-0.2-8-1.1-9.3-4.8c-2,0.8-4,1.7-6,2.7c-3.6,1.9-8.6,4.4-7.5,8.8c0.3,0.4,0.6,0.7,1,1.1
					c0.6,0.5,1.3,0.8,2.1,1c0.3,0.1,0.7,0.1,1,0.1c1.4,0.1,2.9,0,4.3-0.1c3-0.1,5.9-0.3,8.8-0.5c6.2-0.5,12.4-1.4,18.5-2.4
					c0,0,0,0,0,0c-0.1-2.6-0.1-5.2-0.1-7.9C326.1,412.4,319.8,411.7,316.1,411.4z"/>
				<path class="st10" d="M322.7,280.4c-4.5-0.3-9.4-0.3-13.7-1.6c0,0.1,0.1,0.2,0,0.3c-1.8,6.8-4.1,13.5-6.1,20.3
					c-2,6.8-3.8,13.6-5.4,20.5c-1.7,6.9-3.2,13.8-4.5,20.7c-0.2,1.2-0.5,2.4-0.7,3.6c1.9,0.7,4,1.1,6.1,1.4c2,0.4,4,0.8,5.9,1.6
					c1.7,0.7,3.2,1.7,4.8,2.4c4,1.9,8.1,1.4,12.3,0.8c3.6-0.6,7.1-0.9,10.8-0.4c3.6,0.5,7.1,1.4,10.7,1.7c4.1,0.3,7.6-0.6,11.3-2.4
					c2.9-1.4,5.6-2.6,8.8-2.7c3.9-0.2,7.6,0,11.4-0.8c2.9-0.6,5.6-1.4,8.2-2.6c-0.2-2.7-0.4-5.3-0.7-8c-0.7-6.8-1.6-13.6-2.8-20.4
					c-1.1-6.2-2.6-12.4-4.4-18.5c-1.9-6.1-4.4-11.9-6.9-17.7c-0.1,0.2-0.4,0.2-0.6,0c-0.3-0.4-0.5-0.8-0.7-1.3
					c-0.1,0-0.1,0.1-0.2,0.1c-9.4,2.1-19.3,3-28.9,3.2C332.5,280.8,327.6,280.7,322.7,280.4z"/>
				<path class="st14" d="M426.1,145.8c-3.2-0.6-5.4,1.4-7,3.9c2.1-1.5,5.3-1.5,7.1,0.7c2.3,2.8,1,7.6-2.5,8.6
					c-4.1,1.3-9.5-1.9-12-5.1c-2.9-3.7-2.5-8.7-0.6-12.8c2.3-5.2,6.4-9.5,9.3-14.4c3.2-5.4,5.7-11.3,6.2-17.5
					c1-10.8-4.8-21.4-14.7-26.1c-5.2-2.4-11.3-3-16.9-1.7c-5.1,1.2-10.5,4-13,8.8c3.2,0.1,6.5,1.2,8.7,3c4.1,3.3,6.9,10.5,4.4,15.6
					c1.4,1.9,2.6,4,3.6,6.1c5.5,11.5,5.4,25.8-1.5,36.7c2.8,5.6,2,12.8-1.5,18c2.1,6.8,8.2,10.1,15.2,8.8c5.9-1.1,11-4.7,14.5-9.5
					c3.2-4.4,5.1-9.8,5.1-15.3C430.5,150.6,429.7,146.5,426.1,145.8z"/>
				<path class="st2" d="M396.8,154.3c-0.2-0.5-0.3-1-0.6-1.5c-0.5,0.1-1-0.4-0.6-0.9c0-0.1,0.1-0.1,0.1-0.2
					c-0.8-1.3-1.8-2.4-3.4-2.7c-2.1-0.4-4.5,0.4-6.3,1.6c-3.5,2.2-5,5.4-6.1,9.2c0,0.1-0.1,0.1-0.1,0.1c0,0,0,0.1,0,0.1
					c0,0.3-0.4,0.4-0.5,0.1c-1.1-2-1.4-4.6-1.8-6.8c-0.3-2.1-0.5-4.2-0.6-6.4c-0.1-3.4,0-7.1,0.8-10.5c-3.3,0.8-7.3-0.1-10.6-1.7
					c-0.1,0.1-0.1,0.1-0.2,0.1c-5.7,1.5-11.8,0.6-16.8-2.1c0.1,0.2,0.1,0.5-0.1,0.6c-3.6,1.6-7.9,2.3-11.8,2.8
					c-3.5,0.5-7.1,0.5-10.6-0.2c-1-0.2-1.9-0.5-2.9-0.8c0,0.1-0.1,0.3-0.2,0.4c-6.8,4-16.5,1.5-21.5-4.6c0.3,3.5,0.1,7.2,0.1,10.7
					c0,4.2-0.1,8.4-0.3,12.6c-0.2,6.9-0.9,13.9-0.7,20.8c0.2,6.6,2,12.8,6.5,17.7c4,4.4,9.4,7.4,15.1,9.1c5,1.4,10,1.6,15.1,1.7
					c-1.8,0.6-3.6,1-5.4,1.2c-0.6,0-1.3-0.1-1.9-0.2c0.1,0.5,0.1,0.9,0.1,1.4c0.1,0.7,0.2,1.3,0.3,2c1.3-0.6,2.6-1.2,3.8-1.7
					c1.4-0.6,3.3-1.2,4.6-0.1c0.9,0.7,1.1,1.8,0.5,2.7c0,0.1-0.1,0.1-0.1,0.1c-0.2,0.4-0.6,0.8-1,1.1c2.3-0.9,6-1.9,8.7-1.7
					c0.2-1.1,0.9-2.1,1.2-3.2c0.3-1,0.6-2,0.8-3c-0.2,0-0.3,0-0.5,0c-0.6,0.2-1.2,0.5-1.7,0.6c-0.4,0.1-0.8-0.4-0.4-0.7
					c1.4-1.1,3.1-1.7,4.7-2.6c1.8-0.9,3.5-1.9,5.2-2.9c3.4-2,6.6-4.2,9.5-6.7c5.5-4.9,9.3-10.8,11.4-17.9c0.1-0.4,0.5-0.3,0.7-0.1
					c0-0.1,0.2-0.1,0.2-0.1c0.8,0.5,1.5,1.2,2.3,1.8c0.7,0.5,1.4,0.8,2.1,1.1c0.4-1.3,0.8-2.4,1.1-3.1c0-0.1-0.1-0.1-0.1-0.2
					c-0.1-0.2,0.1-0.4,0.3-0.2c0,0,0,0,0,0c0.2-0.3,0.6,0,0.6,0.3c0,0.1,0,0.2-0.1,0.3c0.8,1,1.4,2,1.9,3.2c3.5-2,6.4-4.4,8.3-7.9
					C397.8,163.2,398.1,158.5,396.8,154.3z M305.7,168.1c1.6-1.5,3.5-2.6,5.6-3c0.1,0,0.3,0.2,0.1,0.3c-1.9,0.8-3.8,1.7-5.4,3.1
					C305.8,168.6,305.5,168.3,305.7,168.1z M312.6,166.6c-1.2,1-2.6,2-4,2.6c-0.1,0.1-0.3-0.1-0.2-0.2c1.1-1.1,2.5-2,3.9-2.8
					C312.5,166,312.8,166.4,312.6,166.6z M317.2,159.1c-0.7,2-1.9,4.7-4.3,5c-2,0.3-3.2-1.4-3.4-3.2c-0.2-2.1-0.1-4.8,1.1-6.7
					c-0.4-0.3-0.7-0.8-0.9-1.2c-0.4-0.6-0.6-1.2-0.7-1.9c0-0.2,0.2-0.2,0.3,0c0.2,0.6,0.5,1.3,0.9,1.8c0.2,0.3,0.5,0.6,0.8,0.9
					c0.1-0.1,0.2-0.3,0.3-0.4c0.5-0.5,1.1-0.9,1.7-1.1c1.1-0.5,2.6-0.4,3.5,0.5C318.3,154.3,317.9,157.2,317.2,159.1z M318.6,141.6
					c-4.8-2.1-7.4,1.1-10.5,4.3c-0.3,0.3-0.8-0.1-0.6-0.5c1.3-2.1,3.1-4.2,5.4-5.2c1.9-0.8,4.7-1,6.2,0.8
					C319.4,141.3,319.1,141.8,318.6,141.6z M357,139.5c1.8-0.2,5.1,1.4,3.7,3.6c-0.2,0.3-0.6,0.2-0.7-0.1c-1.8-5.4-7,0-9.8,1.3
					c-0.1,0-0.3,0-0.2-0.2C350.8,141.7,354.6,139.8,357,139.5z M328,171.1c1-0.7,1.7-1.4,2.5-2.4c0.1-0.1,0.4,0,0.4,0.2
					c-0.1,1.3-1,2.1-2,2.8c-1.5,1.1-0.1,2.2,0.9,3.1c0.7,0.6,1.3,1.2,1.8,1.9c0.2,0.2-0.2,0.5-0.4,0.4c-1.4-0.7-4.1-2.6-4.1-4.3
					C327,171.9,327.4,171.5,328,171.1z M350.9,180.9c-3.4,2.8-8.4,4.1-12.7,4.9c-4.5,0.8-9.2,0.9-13.6-0.2c-0.2-0.1-0.2-0.4,0.1-0.4
					c4.6,0.2,9.1,0.3,13.6-0.5c4.4-0.8,8.2-2.8,12.3-4.2C350.9,180.2,351.2,180.7,350.9,180.9z M354.1,162.4c-2,0.3-3.2-1.4-3.4-3.2
					c-0.3-2.4,0-5.7,1.8-7.5c0.5-0.5,1.1-0.9,1.7-1.1c1.1-0.5,2.6-0.4,3.5,0.5c0.5,0.5,0.8,1,1,1.7c0.4-0.2,0.8-0.3,1.1-0.5
					c0.6-0.3,1-0.7,1.5-1.2c0.1-0.1,0.3,0,0.2,0.2c-0.4,0.6-0.8,1.1-1.4,1.5c-0.3,0.3-0.8,0.6-1.3,0.7c0.2,1.3-0.1,2.8-0.5,3.9
					C357.7,159.3,356.4,162,354.1,162.4z M358.5,165.6c1.5-1,3.2-2.2,4.9-2.7c0.3-0.1,0.4,0.3,0.2,0.5c-1.6,1-3.3,1.6-4.9,2.6
					C358.4,166.2,358.2,165.8,358.5,165.6z M365.4,164.4c-0.7,0.6-1.6,1-2.4,1.5c-0.3,0.2-0.5-0.3-0.3-0.4c0.8-0.5,1.6-1,2.5-1.3
					C365.4,164,365.6,164.3,365.4,164.4z M391.8,152.2c-2.3,2.1-4.2,4.7-5.5,7.6c-0.2,0.4-0.3,0.7-0.4,1.1c2.4,1.5,4.4,4.5,4,7.4
					c0,0.3-0.5,0.4-0.6,0.1c-0.7-2.7-1.6-4.9-3.7-6.7c-0.7,2.4-0.9,4.8-1.2,7.3c0,0.4-0.6,0.5-0.7,0.1c-1.2-6.4,2.6-13.6,7.6-17.4
					C391.7,151.5,392,152,391.8,152.2z"/>
				<path class="st4" d="M355,151.7c-2,0.7-2,3.6-0.1,4.5c0.8,0.4,1.6,0.4,2.5,0.3C357.9,154,357.9,150.7,355,151.7z"/>
				<path class="st1" d="M385.3,172.9c-0.4,2.2-1.1,4.3-1.4,6.6c-0.2,1.5-0.4,3-0.5,4.6c0,0.6-0.2,1.3,0,1.9
					c0.7,1.9,2.2,1.4,3.2,0.6c1.9-1.6,1.3-5.5,0.8-7.7C387,176.6,386.2,174.8,385.3,172.9z"/>
				<path class="st4" d="M313.9,153.4c-2,0.7-2,3.6-0.1,4.5c0.8,0.4,1.6,0.4,2.5,0.3C316.8,155.8,316.8,152.4,313.9,153.4z"/>
				<path class="st4" d="M350.2,205.7c-0.3,0.9-0.6,2-1.2,2.8c0.5,0.1,0.9,0.2,1.3,0.5c1.1-2.1,1.8-4.2,1.9-6.6c-0.5,0-0.9,0-1.4,0
					C350.8,203.5,350.5,204.6,350.2,205.7z"/>
				<path class="st2" d="M339.9,352.4C339.9,352.4,339.9,352.4,339.9,352.4c0.5,2.4,0.6,5,0.7,7.5c0.2,2.7,0.3,5.5,0.5,8.2
					c0.3,5.2,0.5,10.4,0.8,15.7c0.4,8.8,0.9,17.5,1.2,26.3c1.6,0.1,3.2,0.8,4.8,1.2c2,0.5,4.1,0.8,6.1,0.5c4.3-0.5,7.2-3,8.1-7.1
					c-1.4-0.2-2.9-0.4-4.1-1c-0.2,0.4-0.9,0.3-0.9-0.2c-0.4-4.6,0.1-9.5,0.2-14.1c0.1-4.6,0.2-9.1,0.3-13.7c0.2-9,0-18.2,0.9-27.2
					c-2.8,1-5.3,2.6-8.1,3.5C346.9,353.2,343.4,353,339.9,352.4z"/>
				<path class="st3" d="M311.3,365.6c6,0.9,12,1,18.1,0.7c0.1-2.6,0.2-5.1,0.3-7.7c0.1-2.5,0-5.2,0.5-7.7c-0.8-0.1-1.5-0.1-2.3-0.1
					c-4.1,0-8.1,1.3-12.2,1.4c-1.8,0-3.5-0.3-5.1-0.8c0.6,4,0.4,8.2,0.6,12.3C311.3,364.3,311.3,364.9,311.3,365.6z"/>
				<path class="st3" d="M340.7,359.9c0.1,1.6,0.2,3.3,0.3,4.9c1.9-0.3,3.9-0.7,5.8-1.2c3.7-0.8,7.4-1.8,11.1-2.9
					c0.1-4.1,0.3-8.2,0.7-12.2c-2.8,1-5.3,2.6-8.1,3.5c-3.5,1.1-7,0.9-10.5,0.4c0,0,0,0,0,0C340.5,354.9,340.5,357.5,340.7,359.9z"
					/>
				<path class="st3" d="M382,257.4c-4.2,3.2-10.2,2.7-14.7,0.7c-3-1.3-5.8-3.2-8-5.6c-3.2-3.4-6.7-7.2-8.4-11.5
					c-0.8-2.1-1.3-4.5-2.9-6.2c-1.3-1.3-3-2.2-4.2-3.6c-0.9-1.1-1.4-2.1-1.3-3c-2,0.6-4,0.9-5.9,1.8c-0.1,0.2-0.2,0.4-0.2,0.5
					c0,0,0,0,0,0c1.2,1.8,2,4,3.6,5.6c1.5,1.6,3.2,2.1,5.2,2.4c0.2-0.2,0.7-0.3,0.8,0.1c1.5,3.4,2.7,6.9,4.1,10.4
					c1.3,3.4,2.6,6.9,4.9,9.9c2.2,2.9,5.2,5,8.2,6.8c1.4,0.8,2.8,1.6,4.2,2.3c1.2,0.5,2.4,0.8,3.7,1.1c0,0-0.1-0.1-0.1-0.1
					c-0.1-0.1,0-0.3,0.1-0.3c1.1,0.3,2.1,0.7,3.2,0.7c1.7,0.1,2.3-0.7,3.3-2c0.1-0.1,0.2-0.1,0.3-0.1c2.4-2.7,4.3-5.5,5-9.2
					c0.1-0.6,0.2-1.2,0.3-1.8C382.8,256.7,382.4,257.1,382,257.4z"/>
				<path class="st3" d="M344.7,225.1c0.5-0.3,0.9,0.5,0.4,0.7c0.3-0.2,0.7-0.3,1-0.5c0.2-1-1.1-1.2-2.2-1.2c-2.9,1.6-6,3.1-9,4.2
					c-2.9,1.1-5.9,2.2-7.5,5c-1.2,2.2-1.9,4.6-3,6.8c-2,4.2-4.5,8.5-7.9,11.9c-4.5,4.5-12.8,8.2-18.6,3.6c-3.9-3.1-5.2-8.4-5.3-13.4
					c-0.3,1.6-0.6,3.2-0.7,4.8c-0.2,2.7-0.2,5.5,0.1,8.2c0.3,2.7,1.3,5.2,1.8,7.8c0.1,0,0.2,0,0.2,0.1c0.8,0.8,1.5,1.8,2.5,2.4
					c0.9,0.6,1.8,0.7,2.9,0.8c0.5-0.1,1-0.2,1.6-0.4c0.2,0,0.3,0,0.4,0.2c2.6-0.9,5.2-1.4,7.7-2.7c2.9-1.5,5.3-3.6,7.4-6
					c4.4-5.1,7.6-11,11.2-16.5c-0.1-0.1-0.3-0.1-0.4-0.2c-0.2-0.1-0.2-0.5,0.1-0.5c1.6-0.5,3.1-0.3,4.6-1.2c1.6-1,2.7-2.7,2.9-4.6
					c0.3-1.9-0.3-4.1,1.6-5.1c1.1-0.9,2.4-1.3,3.8-1.7c0.9-0.2,1.7-0.5,2.6-0.8C343.3,226.2,343.9,225.6,344.7,225.1z"/>
				<path class="st3" d="M396.8,154.3c-0.2-0.5-0.3-1-0.6-1.5c-0.5,0.1-1-0.4-0.6-0.9c0-0.1,0.1-0.1,0.1-0.2
					c-0.8-1.3-1.8-2.4-3.4-2.7c-2.1-0.4-4.5,0.4-6.3,1.6c-3.5,2.2-5,5.4-6.1,9.2c0,0.1-0.1,0.1-0.1,0.1c0,0,0,0.1,0,0.1
					c0,0.3-0.4,0.4-0.5,0.1c-1.1-2-1.4-4.6-1.8-6.8c-0.3-2.1-0.5-4.2-0.6-6.4c-0.1-3.4,0-7.1,0.8-10.5c-3.3,0.8-7.3-0.1-10.6-1.7
					c-0.1,0.1-0.1,0.1-0.2,0.1c-5.7,1.5-11.8,0.6-16.8-2.1c0.1,0.2,0.1,0.5-0.1,0.6c-3.6,1.6-7.9,2.3-11.8,2.8
					c-3.5,0.5-7.1,0.5-10.6-0.2c-1-0.2-1.9-0.5-2.9-0.8c0,0.1-0.1,0.3-0.2,0.4c-6.8,4-16.5,1.5-21.5-4.6c0.2,2.3,0.2,4.5,0.1,6.8
					c1.5,1.7,3.5,3,5.9,3.4c0.7,0.1,1.5,0.2,2.2,0.2c0.6-0.5,1.2-0.8,1.9-1.1c1.9-0.8,4.7-1,6.2,0.7c2.2,0,4.4,0.2,6.6,0.2
					c3.6,0.1,7.2-0.3,10.8-0.9c6.4-1,13.1-2.4,19.5-1.2c3.6,0.7,7.1,1.2,10.7,1.9c1.3,0.3,2.6,0.7,3.9,0.9c0.4,0.1,0.9,0.1,1.2,0.4
					c1.2,1.2,1.8,3.1,2.1,4.7c0.4,2.3,0.7,4.6,0.9,6.9c0.5,5.6,0.3,11.4-1,16.9c-2.3,9.7-9,17.5-17.5,22.6
					c-7.7,4.7-16.5,7.6-25.5,8.3c-2.3,0.2-4.8,0.3-7.4,0.2c0.1,0,0.1,0,0.2,0.1c5,1.4,10,1.6,15.1,1.7c-1.8,0.6-3.6,1-5.4,1.2
					c-0.6,0-1.3-0.1-1.9-0.2c0.1,0.5,0.1,0.9,0.1,1.4c0.1,0.7,0.2,1.3,0.3,2c1.3-0.6,2.6-1.2,3.8-1.7c1.4-0.6,3.3-1.2,4.6-0.1
					c0.9,0.7,1.1,1.8,0.5,2.7c0,0.1-0.1,0.1-0.1,0.1c-0.2,0.4-0.6,0.8-1,1.1c2.3-0.9,6-1.9,8.7-1.7c0.2-1.1,0.9-2.1,1.2-3.2
					c0.3-1,0.6-2,0.8-3c-0.2,0-0.3,0-0.5,0c-0.6,0.2-1.2,0.5-1.7,0.6c-0.4,0.1-0.8-0.4-0.4-0.7c1.4-1.1,3.1-1.7,4.7-2.6
					c1.8-0.9,3.5-1.9,5.2-2.9c3.4-2,6.6-4.2,9.5-6.7c5.5-4.9,9.3-10.8,11.4-17.9c0.1-0.4,0.5-0.3,0.7-0.1c0-0.1,0.2-0.1,0.2-0.1
					c0.8,0.5,1.5,1.2,2.3,1.8c0.7,0.5,1.4,0.8,2.1,1.1c0.4-1.3,0.8-2.4,1.1-3.1c0-0.1-0.1-0.1-0.1-0.2c-0.1-0.2,0.1-0.4,0.3-0.2
					c0,0,0,0,0,0c0.2-0.3,0.6,0,0.6,0.3c0,0.1,0,0.2-0.1,0.3c0.8,1,1.4,2,1.9,3.2c3.5-2,6.4-4.4,8.3-7.9
					C397.8,163.2,398.1,158.5,396.8,154.3z M391.8,152.2c-2.3,2.1-4.2,4.7-5.5,7.6c-0.2,0.4-0.3,0.7-0.4,1.1c2.4,1.5,4.4,4.5,4,7.4
					c0,0.3-0.5,0.4-0.6,0.1c-0.7-2.7-1.6-4.9-3.7-6.7c-0.7,2.4-0.9,4.8-1.2,7.3c0,0.4-0.6,0.5-0.7,0.1c-1.2-6.4,2.6-13.6,7.6-17.4
					C391.7,151.5,392,152,391.8,152.2z"/>
				<path class="st2" d="M313.9,141.2c0.9-0.1,1.8-0.1,2.8-0.2C315.7,140.8,314.8,140.9,313.9,141.2z"/>
				<path class="st14" d="M299.4,151.1c0.9,0.1,1.7,0.4,2.1,1.1c0.1-3.7,0.2-7.3,0.2-11c0-3.8-0.1-7.7,0.2-11.5
					c-1.1-1.7-1.9-3.5-2.2-5.6c0-0.3,0.4-0.6,0.6-0.2c1.9,4.3,4.2,8,8.5,10.3c4.8,2.6,9.9,2.2,15,0.6c-4.6-1.8-8.4-5.1-10.1-10
					c-0.1-0.2,0.3-0.4,0.4-0.2c2.6,5.9,8.6,9.4,14.7,10.3c3.7,0.6,7.5,0.3,11.2-0.3c3.2-0.6,6.4-1.7,9.6-2.1c-5-2.7-9-7.2-10.7-12.9
					c0-0.1,0.2-0.2,0.3-0.1c2.4,4.9,5.6,9,10.4,11.7c4.9,2.8,10.4,3.5,15.9,2.7c-0.7-0.4-1.3-0.8-1.9-1.2c-4-2.8-6.7-6.9-8.1-11.5
					c-0.1-0.4,0.4-0.5,0.6-0.2c1.6,4.3,4.5,8.2,8.4,10.8c2.1,1.4,4.4,2.4,6.8,2.9c2.3,0.5,4.5,0.4,6.8,0.6c0.2-0.8,0.5-1.6,0.8-2.3
					c0.1-0.2,0.5-0.2,0.4,0.1c-0.4,4.5-1.3,8.9-1.2,13.5c0.1,2.5,0.3,5,0.7,7.5c0.2,1.3,0.6,2.7,0.8,4c1-7.3,12.1-14.8,17-7.7
					c7.1-12,6.2-27.3-1.2-39.1c-14.9-23.5-46.9-27.7-71.5-19c-12.3,4.3-23.2,12.4-29.7,23.8c-5.8,10.3-9.9,29.8,5,34.5
					C299.3,150.7,299.4,150.9,299.4,151.1z"/>
				<path class="st15" d="M426.1,145.8c-3.2-0.6-5.4,1.4-7,3.9c2.1-1.5,5.3-1.5,7.1,0.7c2.3,2.8,1,7.6-2.5,8.6
					c-1.2,0.4-2.4,0.3-3.7,0.1c-1.9,0.1-3.8-0.6-5.5-2.6c-1.1-0.8-2-1.7-2.7-2.6c-2-2.6-2.4-5.8-1.9-8.8c-0.2-1.3-0.4-2.5-0.5-3.7
					c-0.4-3.9,0.1-7.6,1.3-11.3c1.4-4.6,3.5-9.4,3.3-14.2c-0.1-3.7-2.7-6-4-9.2c-0.9-2.4-0.1-4.2,1.7-5.7c-1.7-1.5-3.9-2.5-5.6-4
					c-0.2-0.2-0.1-0.6,0.2-0.7c1.8-0.5,5.7-2.1,2.6-4c-2-1.2-4.2-1.6-6.5-1.7c-4.6-0.3-9.2,0.2-13.6,1.6c0.1,0,0.1,0.1,0.2,0.1
					c0,0,0,0,0,0c0.1,0,0.2,0.1,0.3,0.2c0.5,0.3,1,0.6,1.4,0.9c4.1,3.3,6.9,10.5,4.4,15.6c1.4,1.9,2.6,4,3.6,6.1
					c5.5,11.5,5.4,25.8-1.5,36.7c2.8,5.6,2,12.8-1.5,18c2.1,6.8,8.2,10.1,15.2,8.8c5.9-1.1,11-4.7,14.5-9.5
					c3.2-4.4,5.1-9.8,5.1-15.3C430.5,150.6,429.7,146.5,426.1,145.8z"/>
				<path class="st15" d="M395.3,111.4c-2.3-3.6-5-6.7-7.9-9.4c2.5,4.2,3.3,9.4,2.1,14.4c-0.1,0.2-0.3,0.4-0.5,0.3
					c-2.8-0.7-5.1-2.1-7.5-3.6c0.6,1.2,1.1,2.7,0.4,3.7c-0.8,1.1-2.2,1.1-3.4,1c-3.7-0.4-7-2-10.5-2.9c0.7,1.9,1.5,4.3,0.4,6
					c-0.8,1.2-2.5,1.2-3.7,0.9c-4-0.9-8.1-3.6-11-6.7c0.3,1.8,0.9,4.2,0,5.5c-1,1.4-3,1.4-4.5,0.8c-3.6-1.3-6.7-5.3-8.7-8.8
					c-0.3,3.5-1.5,8-5.7,5.4c-4-2.5-7-6.8-9.5-10.7c-0.9,2.2-2.8,6.2-5.4,5.2c-2.7-1.1-3.2-4.8-3.4-7.5c-5,1.8-8.7,5.9-12,10
					c-0.2,0.3-0.7,0-0.7-0.3c0-4.1,0.6-8.1,1.8-12c-4.5,3.8-8.4,8.3-11.4,13.5c-5.8,10.3-9.9,29.8,5,34.5c0.2,0.1,0.3,0.3,0.3,0.4
					c0.9,0.1,1.7,0.4,2.1,1.1c0.1-3.7,0.2-7.3,0.2-11c0-3.8-0.1-7.7,0.2-11.5c-1.1-1.7-1.9-3.5-2.2-5.6c0-0.3,0.4-0.6,0.6-0.2
					c1.9,4.3,4.2,8,8.5,10.3c4.8,2.6,9.9,2.2,15,0.6c-4.6-1.8-8.4-5.1-10.1-10c-0.1-0.2,0.3-0.4,0.4-0.2c2.6,5.9,8.6,9.4,14.7,10.3
					c3.7,0.6,7.5,0.3,11.2-0.3c3.2-0.6,6.4-1.7,9.6-2.1c-5-2.7-9-7.2-10.7-12.9c0-0.1,0.2-0.2,0.3-0.1c2.4,4.9,5.6,9,10.4,11.7
					c4.9,2.8,10.4,3.5,15.9,2.7c-0.7-0.4-1.3-0.8-1.9-1.2c-4-2.8-6.7-6.9-8.1-11.5c-0.1-0.4,0.4-0.5,0.6-0.2
					c1.6,4.3,4.5,8.2,8.4,10.8c2.1,1.4,4.4,2.4,6.8,2.9c2.3,0.5,4.5,0.4,6.8,0.6c0.2-0.8,0.5-1.6,0.8-2.3c0.1-0.2,0.5-0.2,0.4,0.1
					c-0.4,4.5-1.3,8.9-1.2,13.5c0.1,2.5,0.3,5,0.7,7.5c0.2,1.3,0.6,2.7,0.8,4c1-7.3,12.1-14.8,17-7.7
					C403.6,138.4,402.7,123.1,395.3,111.4z"/>
				<path class="st1" d="M394.2,107.5c0.4-2.2,0.6-4.2,0-6.6c-0.7-2.6-2.2-5-4.3-6.7c-2.3-1.8-5.2-2.7-8-2.7c-2.1,0-4,0.6-5.8,1.3
					C383.1,96.2,389.4,101.2,394.2,107.5z"/>
				<path class="st4" d="M329.2,204.9c0.1,0.8,0.2,1.5,0.3,2.3c0.1,0.5,0.3,1.1,0.3,1.6c0.3-0.2,0.6-0.3,0.9-0.5
					c-0.3-1.1-0.6-2.5-0.3-3.7C330.1,204.8,329.7,204.8,329.2,204.9z"/>
				<path class="st1" d="M300.7,176.8c-0.3,2.2-1.1,4.2-1,6.5c0.1,2,1.5,8.4,4.7,6.1c-2.2-3.8-3.3-8.1-3.6-12.6
					C300.8,176.8,300.7,176.8,300.7,176.8z"/>
				<path class="st10" d="M310.7,231.8c-0.1,0-0.1,0.1-0.2,0.1c0,0.3,0,0.5,0,0.8c-0.1,2.4,0.1,5.1-0.4,7.4c0,0,0,0,0.1,0
					c2.4-1.5,4.6-3,6.7-4.9c1.9-1.8,3.3-4.1,5.2-5.7c-0.4-1.6-0.4-3.3-0.4-4.9c0-1.7-0.2-3.7,0.3-5.4c-1.4-2.4,0.1-5.4,2.5-6.4
					c1.4-1.4,3.1-2.6,4.9-3.6c-0.2-0.6-0.3-1.4-0.4-2c-0.1-0.8-0.1-1.5-0.1-2.2c-0.5,0.1-1,0.1-1.4,0.2c-1.2,0.2-2.4,0.5-3.5,0.8
					c-1.8,0.5-3.6,1.5-5.5,1.9c1.1,4,0.1,8.8-1.1,12.6C316.1,224.3,314,229.1,310.7,231.8z"/>
				<path class="st16" d="M351.4,211C351.4,211,351.4,211,351.4,211c0.4,0.5,0.7,1.1,1,1.6c2.8-0.7,5.6-1.6,8.3-2.7
					c0.2-2,0.5-4.2,1.5-6c-1.7-0.4-3.4-1-5.1-1.3c-1.5-0.2-3-0.3-4.5-0.3c0.1,2.5-0.4,5-1.6,7.1C351.2,209.8,351.4,210.3,351.4,211z
					"/>
				<path class="st16" d="M363.1,267.1c-3-1.8-6-3.8-8.3-6.4c-0.8-0.9-1.5-1.9-2.1-2.9c-3.6,1.7-8.3,2.4-11,2.9
					c-6,1.1-12.5,3.3-18.6,2.5c-2.9-0.3-5.5-1.3-7.9-2.7c-1.7,1.6-3.6,3-5.7,4.1c0.6,2.1,0.3,4.5,0.1,6.7c4.6-0.2,9.3,0.3,13.9,0.3
					c4.5,0.1,9-0.1,13.5-0.3c9.3-0.4,18.4-1.3,27.6-2.9h0c0,0,0-0.3,0-0.5C364.2,267.6,363.6,267.4,363.1,267.1z"/>
				<path class="st16" d="M381.8,335.3c-0.7-6.8-1.6-13.6-2.8-20.4c-1.1-6.2-2.6-12.4-4.4-18.5c-1.9-6.1-4.4-11.9-6.9-17.7
					c-0.1,0.2-0.4,0.2-0.6,0c-0.3-0.4-0.5-0.8-0.7-1.3c-0.1,0-0.1,0.1-0.2,0.1c-9.4,2.1-19.3,3-28.9,3.2c-4.9,0.1-9.9,0.1-14.8-0.2
					c-4.5-0.3-9.4-0.3-13.7-1.6c0,0.1,0.1,0.2,0,0.3c-0.1,0.5-0.3,0.9-0.4,1.4c0.4,0.3,0.7,0.5,0.9,0.6c2.1,1.5,4.3,3,6.7,4
					c10.6,3.9,22,4,33.1,5.8c3.7,0.6,7.6,1.5,10.4,4.3c2.4,2.4,3.8,5.4,4.7,8.6c1.3,4.5,2.2,9.1,3.4,13.6c1.3,4.7,2.5,9.7,1.5,14.6
					c-0.1,0.2-0.3,0.3-0.5,0.3c-1.5-0.3-3-0.5-4.2-1.4c-1.2-0.9-1.9-2.4-2.6-3.6c-2.5-4.4-5.1-8.8-8.1-12.8c0.4,9.5,6,20.5-3,27.6
					c-2.8,2.2-7.3,4-11,3.5c-2.9-0.4-3.5-2.4-3.7-5c-0.4-5.2-0.6-10.4-1.4-15.5c-0.3-1.7-0.4-5.1-1.9-6.3c-0.9-0.7-1.9,2-2.1,2.5
					c-1,2.5-1.7,5.1-2.3,7.7c-0.9,3.7-1.8,8.1-4.9,10.6c-2.7,2.2-7.8,3.8-11.2,2.5c-1.9-0.8-2.7-3.1-2.9-5
					c-0.8-6.1,0.9-12.2,0.3-18.2c-0.1-0.8-0.2-2.3-1.1-2.7c-1.2-0.5-3.1,0.9-4,1.6c-4.1,3.1-6.7,7.8-9.1,12.3
					c-0.2,0.3-0.3,0.6-0.5,1c-0.7,3.2-1.4,6.5-2,9.7c-0.2,1.2-0.5,2.4-0.7,3.6c1.9,0.7,4,1.1,6.1,1.4c2,0.4,4,0.8,5.9,1.6
					c1.7,0.7,3.2,1.7,4.8,2.4c4,1.9,8.1,1.4,12.3,0.8c3.6-0.6,7.1-0.9,10.8-0.4c3.6,0.5,7.1,1.4,10.7,1.7c4.1,0.3,7.6-0.6,11.3-2.4
					c2.9-1.4,5.6-2.6,8.8-2.7c3.9-0.2,7.6,0,11.4-0.8c2.9-0.6,5.6-1.4,8.2-2.6C382.3,340.6,382.1,337.9,381.8,335.3z"/>
				<path class="st16" d="M318.6,208.1c0.5,1,1.1,1.8,1.4,2.2c1,1.1,2.2,2.1,3.5,2.9c0.3-0.2,0.6-0.4,0.9-0.5
					c1.4-1.4,3.1-2.6,4.9-3.6c-0.2-0.6-0.3-1.4-0.4-2c-0.1-0.8-0.1-1.5-0.1-2.2c-0.5,0.1-1,0.1-1.4,0.2c-1.2,0.2-2.4,0.5-3.5,0.8
					c-1.8,0.5-3.6,1.5-5.5,1.9C318.5,207.9,318.5,208,318.6,208.1z"/>
				<path class="st3" d="M300.7,175.8c-0.4-7.5,0.5-15.1,0.7-22.6c-1.2-0.6-2.1-1.3-3.5-0.9c-1.7,0.5-2.7,2.1-3.3,3.6
					c-0.9,2.5-1.3,5.4-1.5,8c-0.2,2.9,0.2,5.8,1.8,8.3c1.5,2.3,3.4,3,5.8,3.8C300.8,175.8,300.7,175.8,300.7,175.8z"/>
				<g>
					<path d="M391.4,151.7c-5,3.7-8.9,11-7.6,17.4c0.1,0.4,0.7,0.3,0.7-0.1c0.2-2.5,0.4-4.9,1.2-7.3c2,1.8,2.9,4,3.7,6.7
						c0.1,0.4,0.5,0.2,0.6-0.1c0.4-2.9-1.6-5.9-4-7.4c0.1-0.4,0.3-0.7,0.4-1.1c1.3-2.9,3.2-5.4,5.5-7.6
						C392,152,391.7,151.5,391.4,151.7z"/>
					<path d="M350.6,180.3c-4.2,1.4-8,3.4-12.3,4.2c-4.5,0.9-9,0.8-13.6,0.5c-0.2,0-0.3,0.4-0.1,0.4c4.4,1.2,9.2,1,13.6,0.2
						c4.3-0.8,9.3-2.1,12.7-4.9C351.2,180.7,350.9,180.2,350.6,180.3z"/>
					<path d="M331.2,177c0.2,0.1,0.5-0.1,0.4-0.4c-0.5-0.7-1.1-1.3-1.8-1.9c-1-0.9-2.4-2-0.9-3.1c1-0.7,1.9-1.5,2-2.8
						c0-0.2-0.3-0.3-0.4-0.2c-0.8,1-1.5,1.6-2.5,2.4c-0.6,0.4-1,0.9-1,1.6C327,174.5,329.8,176.3,331.2,177z"/>
					<path d="M350.2,144.3c2.8-1.3,8-6.7,9.8-1.3c0.1,0.3,0.5,0.4,0.7,0.1c1.4-2.2-1.9-3.8-3.7-3.6c-2.5,0.3-6.2,2.2-7.1,4.7
						C349.9,144.3,350.1,144.4,350.2,144.3z"/>
					<path d="M312.9,140.2c-2.3,1-4.1,3.1-5.4,5.2c-0.2,0.4,0.3,0.8,0.6,0.5c3.1-3.2,5.7-6.4,10.5-4.3c0.4,0.2,0.8-0.3,0.5-0.7
						C317.7,139.1,314.9,139.3,312.9,140.2z"/>
					<path d="M358.9,153.4c0.5-0.1,1-0.4,1.3-0.7c0.6-0.4,1-0.9,1.4-1.5c0.1-0.1-0.1-0.3-0.2-0.2c-0.4,0.5-0.9,0.9-1.5,1.2
						c-0.3,0.2-0.8,0.3-1.1,0.5c-0.2-0.6-0.5-1.2-1-1.7c-1-0.8-2.4-1-3.5-0.5c-0.6,0.2-1.2,0.6-1.7,1.1c-1.8,1.8-2.1,5.1-1.8,7.5
						c0.2,1.8,1.4,3.4,3.4,3.2c2.3-0.3,3.6-3,4.3-5C358.7,156.2,359,154.8,358.9,153.4z M357.3,156.4c-0.8,0.1-1.7,0.1-2.5-0.3
						c-1.8-0.9-1.9-3.9,0.1-4.5C357.9,150.7,357.9,154,357.3,156.4z"/>
					<path d="M313.1,152.4c-0.6,0.2-1.2,0.6-1.7,1.1c-0.1,0.1-0.2,0.3-0.3,0.4c-0.3-0.3-0.6-0.5-0.8-0.9c-0.4-0.6-0.6-1.2-0.9-1.8
						c0-0.1-0.3-0.1-0.3,0c0.1,0.7,0.3,1.3,0.7,1.9c0.2,0.4,0.5,0.8,0.9,1.2c-1.2,1.9-1.4,4.6-1.1,6.7c0.2,1.8,1.4,3.4,3.4,3.2
						c2.3-0.3,3.6-3,4.3-5c0.6-1.9,1.1-4.8-0.6-6.3C315.6,152,314.2,151.8,313.1,152.4z M316.2,158.1c-0.8,0.1-1.7,0.1-2.5-0.3
						c-1.8-0.9-1.9-3.9,0.1-4.5C316.8,152.4,316.8,155.8,316.2,158.1z"/>
					<path d="M363.4,163c-1.8,0.5-3.4,1.6-4.9,2.7c-0.3,0.2,0,0.6,0.2,0.4c1.6-1,3.3-1.7,4.9-2.6C363.8,163.3,363.7,162.9,363.4,163
						z"/>
					<path d="M365.2,164.1c-0.9,0.3-1.7,0.9-2.5,1.3c-0.3,0.2,0,0.6,0.3,0.4c0.8-0.5,1.7-0.9,2.4-1.5
						C365.6,164.3,365.4,164,365.2,164.1z"/>
					<path d="M311.3,165.1c-2.1,0.4-4,1.5-5.6,3c-0.2,0.2,0.1,0.5,0.3,0.3c1.6-1.3,3.5-2.2,5.4-3.1
						C311.6,165.3,311.4,165.1,311.3,165.1z"/>
					<path d="M312.3,166.1c-1.4,0.7-2.8,1.7-3.9,2.8c-0.1,0.1,0,0.3,0.2,0.2c1.4-0.6,2.8-1.6,4-2.6
						C312.8,166.4,312.5,166,312.3,166.1z"/>
					<path d="M429.9,146.9c-1.8-2.3-4.8-2.7-7.4-1.6c-2.6,1.1-4.3,3.8-5.1,6.4c0,0.1,0,0.2,0.1,0.3c0.1,0.2,0.4,0.3,0.6,0
						c1.1-1.9,3.6-2.9,5.7-2.1c2.7,1,3,4.6,1.3,6.6c-2.1,2.4-5.6,1.2-7.9-0.1c-2.5-1.3-4.8-3.2-5.8-6c-1.9-5.5,1.7-10.9,4.8-15.1
						c3-4.2,6-8.5,8.2-13.2c4-8.7,5.3-18.7,1-27.6c-3.8-7.8-11.3-13.5-19.9-14.9c-8.3-1.3-21.3,1.4-24.3,10.5
						c-2.2,0.1-4.4,0.7-6.1,2.1c-1.7-0.8-3.4-1.5-5.2-2.1c-26.4-9.1-61.6-0.4-76.4,24.4c-3.9,6.5-6.6,14.5-5.9,22.1
						c0.6,6.2,4.2,12.7,10.5,14.4c-0.7,0.1-1.3,0.3-1.8,0.6c-3.1,2-3.6,6.4-4,9.7c-0.5,3.7-0.5,7.7,1.6,11c1.3,2.1,3.7,4.2,6.2,4.3
						c-2,2.7-1.7,7.7-0.6,10.6c0.8,2.2,3.4,4.5,5.6,2.8c0.6,0.9,1.2,1.8,1.9,2.6c3.6,4.3,8.5,7.4,13.7,9.3c2,0.7,4.1,1.3,6.3,1.7
						c-1,0.2-2,0.5-2.8,0.7c-1.9,0.5-4.4,1.2-6,2.4c0,0-0.1,0-0.1,0.1c-0.1,0-0.1,0.1-0.2,0.1c-0.1-0.1-0.3-0.1-0.4-0.1
						c-10.8,2.5-17.8,14.6-22,23.8c-2.3,5.1-4,10.5-4.5,16.1c-0.5,5.1-0.3,11.9,2.6,16.4c0,0,0,0.1,0.1,0.1c0.7,2.7,5,5.4,7.5,3.6
						c2.6,0.1,5.4-1,7.7-2.1c0.1-0.1,0.2-0.1,0.4-0.2c-0.5,2-0.3,4.3-0.5,6.4c-0.2,2.6-0.6,5.2-0.4,7.8c0,0,0,0.1,0,0.1
						c-2.7,6.4-4.5,13.3-6.5,19.9c-2,6.9-3.8,13.9-5.5,20.8c-1.7,6.9-3.1,13.8-4.5,20.7c-0.2,1-0.4,2.1-0.6,3.1l-0.2,1l1.2,0.5
						c0.9,0.3,1.7,0.6,2.6,0.8c4,0.9,7.7,1.5,11.4,3.4c1.3,0.7,2.5,1.2,3.7,1.7c-0.5,4.1-0.1,8.4,0.1,12.6c0.2,4.6,0.4,9.1,0.7,13.6
						c0.5,8.8,1.1,17.6,2.3,26.3c-2.8,0-5.9,1.4-8.3,2.5c-2.8,1.2-5.5,2.5-8,4.1c-1.9,1.2-3.8,2.7-4.5,4.9c-0.5,1.6-0.3,3.8,1.3,4.7
						c0.1,0.1,0.2,0.1,0.3,0c0.1,0.1,0.3,0.2,0.4,0.4c1.3,1.3,3.6,1.3,5.3,1.3c3.5,0,6.9-0.2,10.4-0.4c6.6-0.5,13.2-1.3,19.6-2.5
						c0.3-0.1,0.5-0.3,0.5-0.6c0.1-0.1,0.2-0.2,0.2-0.4c0-11.2,0-22.3,0.2-33.5c0.1-5.5,0.2-11,0.3-16.5c0.1-2.8,0.1-5.5,0.2-8.3
						c0.1-2.7,0.4-5.7,0.1-8.4c2.9,0.3,5.7,0.9,8.6,1.4c0,0-0.1,0.1-0.1,0.1c-0.5,5.1,0.2,10.5,0.5,15.6c0.3,5.3,0.5,10.7,0.8,16
						c0.5,10.6,0.8,21.1,1.4,31.7c0,0.2,0.1,0.3,0.2,0.4c-0.1,0.1-0.1,0.4,0.1,0.5c3.3,1.3,7.1,1.6,10.6,2.1
						c3.9,0.5,7.8,0.8,11.8,0.9c3.6,0.1,7.3,0.3,10.9-0.1c1.2-0.1,2.7-0.4,3.7-1.2c0,0,0,0,0,0c1.9-0.9,2.7-3,2.2-5
						c-0.6-2.4-2.7-4-4.8-5.1c-2.9-1.6-6-2.9-9.2-3.8c-1.8-0.5-3.7-1-5.5-1.2c-1.3-0.2-2.7-0.5-3.9-0.2c0.5-4.4,0.3-8.9,0.4-13.3
						c0.1-4.7,0.2-9.4,0.3-14.1c0.2-9.1,0.8-18.3,0.3-27.4c0.4-0.1,0.9-0.3,1.4-0.4c3.8-0.8,7.9-0.2,11.8-0.7
						c3.4-0.5,6.9-1.4,10.3-2.7l1.3-0.5l-0.1-1.3c-0.2-2.9-0.5-5.7-0.8-8.5c-0.7-6.7-1.5-13.4-2.7-20c-2.3-12.3-5.5-25.2-11.9-36.1
						c-0.2-0.3-0.5-0.2-0.7,0c-0.4-1.7-1-3.4-1.4-5.2c-0.3-1.4-0.5-2.9-0.8-4.4c2.3,1.2,5,2.3,7.5,1.8c0,0,0,0,0,0
						c0.7,0.2,1.4,0.3,2.2,0.2c1.5-0.2,2.3-1.1,2.7-2.3c0,0,0.1,0,0.1,0c3.3-1.7,5.1-5.5,5.9-9c0.7-3.1,0.6-6.2,0.1-9.3
						c-0.3-9.2-2-18.8-5.5-27.3c-1.6-3.9-3.6-7.6-6.2-10.9c-2.3-3.1-5.4-6.7-9-8.2c-0.1,0-0.1,0-0.2,0c-1.8-1.3-4.5-1.7-6.6-1.9
						c-1.6-0.2-3.4-0.3-5-0.1c0.6-0.3,1.1-0.6,1.6-0.9c1.9-1,3.7-2,5.5-3c3.4-2,6.7-4.3,9.7-7c5.1-4.7,10-11.1,10.8-18.2v0
						c0.8,1.6,2.6,3.1,4.3,3.6c-1.5,5.5-2.7,13.6,2.4,12.3c3-0.8,3.2-4.4,3-7c-0.1-1.7-0.5-3.6-1.2-5.3c2.9-1,5.3-2.8,7.2-5.2
						c0.7,4.6,5.4,8.1,9.8,9c5.8,1.1,11.9-1.1,16.4-4.7c4.4-3.4,7.6-8.1,9.3-13.3C431.9,157.4,432.9,150.8,429.9,146.9z M381.9,91.5
						c2.9,0,5.8,0.9,8,2.7c2.1,1.7,3.6,4.1,4.3,6.7c0.6,2.3,0.4,4.4,0,6.6c-4.7-6.2-11.1-11.2-18.2-14.7
						C377.9,92.1,379.7,91.5,381.9,91.5z M294.1,116.1c6.5-11.4,17.5-19.5,29.7-23.8c24.6-8.6,56.6-4.5,71.5,19
						c7.4,11.7,8.3,27.1,1.2,39.1c-4.9-7.1-16,0.4-17,7.7c-0.2-1.4-0.6-2.7-0.8-4c-0.4-2.5-0.6-5-0.7-7.5c-0.1-4.6,0.7-9,1.2-13.5
						c0-0.3-0.4-0.3-0.4-0.1c-0.3,0.8-0.5,1.5-0.8,2.3c-2.3-0.2-4.5-0.1-6.8-0.6c-2.4-0.6-4.7-1.6-6.8-2.9
						c-3.8-2.6-6.8-6.5-8.4-10.8c-0.1-0.3-0.7-0.2-0.6,0.2c1.4,4.7,4.1,8.7,8.1,11.5c0.6,0.4,1.2,0.8,1.9,1.2
						c-5.5,0.9-11,0.1-15.9-2.7c-4.8-2.7-8.1-6.8-10.4-11.7c-0.1-0.1-0.3,0-0.3,0.1c1.7,5.7,5.7,10.2,10.7,12.9
						c-3.2,0.4-6.4,1.6-9.6,2.1c-3.7,0.6-7.5,0.9-11.2,0.3c-6.2-0.9-12.1-4.5-14.7-10.3c-0.1-0.2-0.5-0.1-0.4,0.2
						c1.7,4.8,5.5,8.1,10.1,10c-5.1,1.6-10.2,2-15-0.6c-4.3-2.3-6.6-6-8.5-10.3c-0.2-0.3-0.6-0.1-0.6,0.2c0.3,2,1.1,3.9,2.2,5.6
						c-0.3,3.8-0.2,7.7-0.2,11.5c0,3.7-0.1,7.3-0.2,11c-0.4-0.7-1.2-1-2.1-1.1c0-0.2,0-0.4-0.3-0.4
						C284.1,146,288.2,126.4,294.1,116.1z M294.9,172.1c-1.6-2.4-2-5.4-1.8-8.3c0.1-2.6,0.5-5.6,1.5-8c0.6-1.5,1.7-3.1,3.3-3.6
						c1.4-0.4,2.4,0.3,3.5,0.9c-0.2,7.5-1.1,15.1-0.7,22.6c0,0,0,0.1,0,0.1C298.3,175.1,296.4,174.3,294.9,172.1z M299.7,183.3
						c-0.1-2.3,0.7-4.3,1-6.5c0,0,0.1,0,0.1,0c0.3,4.5,1.4,8.8,3.6,12.6C301.2,191.6,299.8,185.3,299.7,183.3z M318.5,207.8
						c1.9-0.4,3.7-1.4,5.5-1.9c1.2-0.3,2.3-0.6,3.5-0.8c0.5-0.1,0.9-0.1,1.4-0.2c-0.1,0.7,0,1.5,0.1,2.2c0.1,0.6,0.1,1.4,0.4,2
						c-1.8,1-3.5,2.2-4.9,3.6c-2.5,1-4,4-2.5,6.4c-0.5,1.7-0.3,3.6-0.3,5.4c0,1.6,0,3.3,0.4,4.9c-1.9,1.7-3.3,4-5.2,5.7
						c-2,1.9-4.3,3.4-6.7,4.9c0,0,0,0-0.1,0c0.5-2.4,0.3-5,0.4-7.4c0-0.3,0-0.5,0-0.8c0.1,0,0.1,0,0.2-0.1c3.3-2.6,5.4-7.5,6.7-11.4
						C318.5,216.6,319.5,211.7,318.5,207.8z M330.8,208.3c-0.3,0.2-0.6,0.3-0.9,0.5c-0.1-0.6-0.2-1.1-0.3-1.6
						c-0.1-0.8-0.2-1.6-0.3-2.3c0.4-0.1,0.9-0.1,1.3-0.2C330.2,205.8,330.5,207.3,330.8,208.3z M301.5,266.2
						c-0.1-0.1-0.2-0.2-0.4-0.2c-0.6,0.1-1.1,0.3-1.6,0.4c-1-0.1-1.9-0.2-2.9-0.8c-1-0.7-1.7-1.6-2.5-2.4c-0.1-0.1-0.1-0.1-0.2-0.1
						c-0.5-2.6-1.4-5.1-1.8-7.8c-0.3-2.7-0.4-5.4-0.1-8.2c0.5-5.5,2.2-10.8,4.5-15.8c4.5-9.6,10.7-19.3,21.1-23.1
						c0.1,0,0.1-0.1,0.2-0.1c-0.1,1.8-0.1,3.7-0.3,5.5c-0.2,2.2-0.7,4.3-1.3,6.4c-0.6,2.1-1.5,4.1-2.5,6c-0.9,1.7-2.1,3.2-3,4.8
						c0.1-2.3,0.3-4.5,0.4-6.8c0-0.2-0.2-0.2-0.3,0c-0.5,2.7-1,5.5-1.3,8.2c-0.3,2.6-0.9,5.7-0.4,8.4c0,0,0,0,0,0
						c-3.3,2.1-7,4.8-7.7,8.9c0,0.3,0.3,0.5,0.4,0.2c2.6-5.1,7-7.4,11.5-10.5c1.9-1.3,3.6-2.7,5.2-4.3c1.4-1.4,3-3,3.8-4.9
						c0.1,0.1,0.3,0.1,0.4-0.1c0.3-1.8,0-3.7,0-5.6c0-1.8,0.3-3.8,0-5.6c0-0.1-0.1-0.1-0.1-0.2c0.1-1-0.3-2,0.3-3.1
						c0.5-0.9,1.4-1.5,2-2.2c2-1.4,3.9-2.6,6.1-3.7c1.2-0.6,2.4-1.2,3.7-1.7c1.2-0.5,5.2-2.5,5.3,0.2c-0.6,1.3-2.5,2-3.6,2.7
						c-1.3,0.8-2.7,1.6-3.8,2.7c0,0,0,0,0,0c-1,0.5-1.9,1-2.6,1.6c-0.1,0.1,0,0.3,0.1,0.2c2.3-0.6,4.5-1.8,6.8-2.5
						c2-0.6,4.1-0.8,6.1-1.3c0.7,0.1,1.4,0.1,1.6,0.7c0,0.1,0.1,0.3,0.1,0.4c-1.9,4-7.6,3.5-9.8,7.3c-0.6,0.4-1.1,0.9-1.5,1.3
						c-0.1,0.1,0,0.3,0.2,0.3c1.9-0.9,3.8-1.9,5.9-2.5c1.9-0.5,3.9-0.4,5.8-0.8c0,0,0,0,0,0c0.5,0.2,0.9,0.6,0.9,1.3
						c0,0.6-0.3,1-0.7,1.4c-1.2,0.9-3.5,1.3-4.4,1.7c-0.8,0.3-1.5,0.6-2.3,0.9c-1.4,0.5-2.7,1.1-3.7,1.9c-0.1,0.1,0,0.3,0.1,0.2
						c1.6-0.3,3.1-1,4.7-1.3c0.9-0.2,1.8-0.3,2.6-0.4c0.4,0,4.1-0.5,3.7,1.1c-1.9,1-3.8,1.7-5.9,2.2c-1.4,0.4-2.7,0.8-3.8,1.7
						c-1.9,1-1.3,3.2-1.6,5.1c-0.3,1.9-1.3,3.6-2.9,4.6c-1.5,0.9-3,0.7-4.6,1.2c-0.2,0.1-0.3,0.4-0.1,0.5c0.1,0.1,0.3,0.1,0.4,0.2
						c-3.6,5.6-6.8,11.5-11.2,16.5c-2.1,2.4-4.6,4.5-7.4,6C306.7,264.8,304,265.3,301.5,266.2z M309.5,264.6
						c2.7-1.4,5.1-3.3,7.2-5.5c2.4-2.6,4.4-5.5,6.3-8.4c2-3,4.2-6.1,5.3-9.6c2.1,0.4,4.6-1.1,5.8-2.5c0.8-0.9,1.4-2.1,1.7-3.3
						c0.3-1.2,0-2.7,0.2-3.9c0.9,3.8,4.6,9.4,9.1,8.3c1.4,3.9,2.9,7.8,4.4,11.7c1.3,3.4,2.8,6.7,5.2,9.4c2.3,2.6,5.3,4.6,8.3,6.4
						c0.5,0.3,1.1,0.5,1.6,0.8c0,0.2,0,0.5,0,0.5h0c-9.2,1.6-18.3,2.5-27.6,2.9c-4.5,0.2-9,0.3-13.5,0.3c-4.6-0.1-9.3-0.5-13.9-0.3
						C309.8,269.1,310.1,266.7,309.5,264.6z M329.1,417.3c-6.2,1-12.3,1.9-18.5,2.4c-2.9,0.2-5.9,0.4-8.8,0.5
						c-1.4,0-2.9,0.1-4.3,0.1c-0.4,0-0.7-0.1-1-0.1c-0.7-0.2-1.5-0.5-2.1-1c-0.4-0.3-0.7-0.7-1-1.1c-1.1-4.4,4-6.9,7.5-8.8
						c1.9-1,3.9-1.9,6-2.7c1.2,3.7,5.8,4.6,9.3,4.8c3.7,0.2,9.9,0.9,12.9-2C329,412.1,329.1,414.7,329.1,417.3
						C329.1,417.3,329.1,417.3,329.1,417.3z M329.7,358.6c-0.1,2.8-0.2,5.5-0.3,8.3c-0.2,5.6-0.3,11.3-0.4,16.9
						c-0.1,8.3-0.2,16.7-0.1,25.1c-0.1-0.1-0.2-0.1-0.3-0.1c-1.8,0.4-3.4,1.3-5.3,1.5c-1.8,0.2-3.7,0.2-5.5,0.1
						c-4-0.1-8-0.5-10.5-3.9c0.1,0,0.2-0.1,0.3-0.1c1.9-0.7,4.1-1.1,5.9-2.1c0.3,0,0.6-0.2,0.6-0.5c-0.6-9-1.5-17.9-2.1-26.8
						c-0.3-4.4-0.5-8.8-0.7-13.3c-0.2-4,0-8.3-0.6-12.3c1.6,0.5,3.3,0.8,5.1,0.8c4.1-0.1,8.1-1.3,12.2-1.4c0.8,0,1.5,0,2.3,0.1
						C329.8,353.4,329.8,356,329.7,358.6z M364.5,405.1c2.5,0.6,5,1.4,7.3,2.4c2.2,0.9,4.7,2,6.5,3.5c1.5,1.3,2.5,3.5,1.8,5.3
						c-0.1,0-0.2,0-0.3,0.1c-2.3,2.1-5,2.1-7.9,2.1c-3.3,0.1-6.6,0-9.9-0.2c-3.3-0.2-6.6-0.5-9.9-0.9c-3-0.4-6.1-1.1-9.1-1.2
						c0.1-0.1,0.1-0.2,0.1-0.4c0-1.6-0.1-3.3-0.2-5c1.9,1.2,4.5,1.6,6.6,1.9c2.2,0.3,4.6,0.3,6.7-0.4c3.2-1,6.6-4.1,6.3-7.7
						C363.4,404.9,364,405,364.5,405.1z M357.6,375.7c-0.1,4.6-0.2,9.1-0.3,13.7c-0.1,4.6-0.6,9.5-0.2,14.1c0,0.6,0.7,0.6,0.9,0.2
						c1.2,0.6,2.7,0.8,4.1,1c-0.9,4.1-3.8,6.6-8.1,7.1c-2.1,0.2-4.1-0.1-6.1-0.5c-1.6-0.4-3.2-1.1-4.8-1.2
						c-0.3-8.8-0.8-17.5-1.2-26.3c-0.3-5.2-0.5-10.4-0.8-15.7c-0.2-2.7-0.3-5.5-0.5-8.2c-0.2-2.5-0.2-5.1-0.7-7.5c0,0,0,0,0,0
						c3.5,0.5,7,0.8,10.5-0.4c2.8-0.9,5.3-2.5,8.1-3.5C357.6,357.5,357.8,366.7,357.6,375.7z M366.3,277.4c0.1,0,0.1,0,0.2-0.1
						c0.2,0.4,0.4,0.9,0.7,1.3c0.1,0.2,0.4,0.2,0.6,0c2.5,5.9,5,11.6,6.9,17.7c1.9,6.1,3.3,12.2,4.4,18.5c1.2,6.8,2.1,13.6,2.8,20.4
						c0.3,2.6,0.5,5.3,0.7,8c-2.6,1.1-5.3,2-8.2,2.6c-3.8,0.7-7.6,0.6-11.4,0.8c-3.2,0.2-5.9,1.3-8.8,2.7c-3.7,1.8-7.2,2.7-11.3,2.4
						c-3.6-0.3-7.1-1.2-10.7-1.7c-3.7-0.5-7.2-0.1-10.8,0.4c-4.2,0.7-8.3,1.1-12.3-0.8c-1.6-0.8-3.2-1.7-4.8-2.4
						c-1.9-0.8-3.9-1.2-5.9-1.6c-2.1-0.4-4.1-0.8-6.1-1.4c0.2-1.2,0.4-2.4,0.7-3.6c1.4-6.9,2.9-13.8,4.5-20.7
						c1.7-6.9,3.5-13.7,5.4-20.5c2-6.8,4.3-13.5,6.1-20.3c0-0.1,0-0.2,0-0.3c4.3,1.3,9.3,1.3,13.7,1.6c4.9,0.3,9.9,0.4,14.8,0.2
						C347.1,280.4,356.9,279.5,366.3,277.4z M366.1,276.3C366.1,276.3,366.1,276.3,366.1,276.3c-9.7,1.5-19.2,2.9-29,3.1
						c-4.7,0.1-9.4,0.1-14.1-0.2c-4.7-0.3-9.5-1.2-14.1-1.1c0.5-2,0.6-4.1,0.7-6.1c4.3,0.8,8.9,0.8,13.2,0.9c4.8,0.1,9.5,0,14.3-0.2
						c9.2-0.4,18.6-1.2,27.6-2.9c0.1,1,0.3,2,0.5,3C365.5,273.9,365.7,275.1,366.1,276.3z M363.2,204.1c0,0,0.1,0,0.1,0
						c1.4,1.3,2.9,2.5,4.3,3.8c1.6,1.5,3,3.2,4.3,5c2.4,3.4,4.4,7.1,5.9,11c3.2,8.4,4,17.1,5.4,25.9c0.2,2.8,0.2,5.6-0.3,8.4
						c-0.7,3.7-2.6,6.4-5,9.2c-0.1,0-0.2,0-0.3,0.1c-0.9,1.3-1.6,2.1-3.3,2c-1.1,0-2.2-0.4-3.2-0.7c-0.1,0-0.3,0.1-0.1,0.3
						c0,0,0.1,0.1,0.1,0.1c-1.2-0.3-2.5-0.6-3.7-1.1c-1.5-0.6-2.9-1.4-4.2-2.3c-3.1-1.9-6-4-8.2-6.8c-2.2-2.9-3.5-6.4-4.9-9.9
						c-1.3-3.5-2.6-6.9-4.1-10.4c-0.2-0.4-0.6-0.3-0.8-0.1c-2-0.3-3.7-0.8-5.2-2.4c-1.6-1.6-2.3-3.8-3.6-5.6c0,0,0,0,0,0
						c0.1-0.2,0.1-0.4,0.2-0.5c2-0.9,4-1.3,6.1-1.9c1.3-0.4,2.7-0.9,3.6-1.8c0.1,0,0.2,0,0.2-0.1c1.8-1.5-0.5-3.2-2.1-3.2
						c-0.2,0-0.3,0-0.5,0c0.2-0.1,0.3-0.1,0.5-0.2c0.2-0.1,0.3-0.1,0.5-0.2c1.5-0.2,2.6-2,2.2-3.4c-0.4-1.4-1.6-1.7-2.8-1.6
						c-1.1-0.2-2.3-0.2-3.5,0.1c1.2-0.5,2.3-1.1,3.1-1.9c0,0,0,0,0.1,0c1.3-0.6,2.2-2.3,1.6-3.6c-0.3-0.8-0.9-1.1-1.5-1.1
						c-0.1-0.1-0.1-0.1-0.3-0.1c-2.3-0.2-4.9,0.5-7.2,1.2c0.4-0.2,0.7-0.5,1.1-0.7c2-0.3,4-1.1,6-1.3c2-0.3,5.4-0.9,6.8,0.9
						c0,0.1,0,0.2,0,0.3c1.5,3.2,2.3,6.2,2.6,9.7c0.3,3.4,0,7.2,0.8,10.5c0,0.1,0.1,0.2,0.2,0.2c1.2,4,4.8,7.5,8,9.9
						c4.4,3.4,10.6,4.8,12.1,10.7c0.1,0.4,0.7,0.3,0.7-0.1c0.2-4.2-3.6-6.5-7-8.4c0.4-3.4,0.2-7,0.2-10.5c0-3.5,0.1-7-0.2-10.5
						c0-0.2-0.3-0.2-0.3,0c-0.3,3.1-0.4,6.2-0.5,9.4c-2.4-4.2-4.2-8.5-5-13.3c-0.4-2.5-0.5-5-0.4-7.6c0.1-2.4,0.9-4.7,0.9-7.1
						C362.9,204.1,363,204.1,363.2,204.1z M357.1,202.6c1.7,0.3,3.4,1,5.1,1.3c-1.2,2-1.4,4.6-1.6,6.9c-0.2,2.5-0.1,5.1,0.3,7.6
						c0.7,5.2,2.6,10.5,5.8,14.7c0.1,0.2,0.3,0.2,0.5,0.2c-0.1,3.2-0.4,6.5-0.1,9.7c-0.5-0.3-0.9-0.5-1.4-0.8
						c-2.3-1.4-4.5-3.1-6.3-5.1c-1.7-1.8-3-3.9-4.6-5.8c0,0,0,0,0,0c0.4-1.9,0.1-4,0-5.9c-0.1-2.1-0.3-4.1-0.5-6.2
						c-0.4-2.9-0.9-5.9-2.8-8.2c0,0,0,0,0,0c0-0.6-0.2-1.1-0.5-1.5c1.3-2.1,1.8-4.7,1.6-7.1C354,202.4,355.6,202.4,357.1,202.6z
						 M352.2,202.3c-0.1,2.4-0.8,4.5-1.9,6.6c-0.4-0.2-0.8-0.4-1.3-0.5c0.6-0.8,0.9-1.9,1.2-2.8c0.3-1.1,0.6-2.3,0.6-3.4
						C351.3,202.3,351.7,202.3,352.2,202.3z M386.6,186.5c-1,0.8-2.5,1.3-3.2-0.6c-0.2-0.5-0.1-1.3,0-1.9c0.1-1.5,0.3-3.1,0.5-4.6
						c0.3-2.2,1-4.4,1.4-6.6c0.9,1.9,1.7,3.8,2.1,5.9C387.9,180.9,388.5,184.8,386.6,186.5z M387.4,175.1c-0.5-1.2-1.1-2.2-1.9-3.2
						c0-0.1,0-0.2,0.1-0.3c0-0.3-0.4-0.6-0.6-0.3c0,0,0,0,0,0c-0.2-0.2-0.4,0-0.3,0.2c0,0.1,0.1,0.1,0.1,0.2
						c-0.3,0.7-0.7,1.8-1.1,3.1c-0.7-0.4-1.5-0.7-2.1-1.1c-0.8-0.5-1.5-1.2-2.3-1.8c-0.1-0.1-0.2,0-0.2,0.1
						c-0.1-0.3-0.6-0.3-0.7,0.1c-2.1,7.1-5.8,13-11.4,17.9c-2.9,2.6-6.1,4.8-9.5,6.7c-1.7,1-3.5,2-5.2,2.9c-1.6,0.8-3.3,1.5-4.7,2.6
						c-0.4,0.3,0,0.8,0.4,0.7c0.6-0.1,1.2-0.3,1.7-0.6c0.2,0,0.3,0,0.5,0c-0.3,1-0.5,2-0.8,3c-0.4,1-1,2.1-1.2,3.2
						c-2.7-0.2-6.3,0.8-8.7,1.7c0.4-0.3,0.8-0.7,1-1.1c0.1,0,0.1-0.1,0.1-0.1c0.6-0.9,0.4-2-0.5-2.7c-1.4-1.1-3.2-0.5-4.6,0.1
						c-1.2,0.5-2.5,1.1-3.8,1.7c-0.1-0.7-0.3-1.3-0.3-2c0-0.5,0-0.9-0.1-1.4c0.6,0.1,1.3,0.1,1.9,0.2c1.9-0.2,3.7-0.6,5.4-1.2
						c-5.1,0-10.1-0.2-15.1-1.7c-5.7-1.6-11.1-4.6-15.1-9.1c-4.5-4.9-6.3-11.2-6.5-17.7c-0.3-6.9,0.5-13.9,0.7-20.8
						c0.1-4.2,0.2-8.4,0.3-12.6c0-3.5,0.2-7.1-0.1-10.7c5,6,14.7,8.6,21.5,4.6c0.1-0.1,0.2-0.2,0.2-0.4c0.9,0.3,1.9,0.6,2.9,0.8
						c3.5,0.7,7.1,0.7,10.6,0.2c3.9-0.5,8.2-1.2,11.8-2.8c0.2-0.1,0.2-0.4,0.1-0.6c5.1,2.7,11.2,3.6,16.8,2.1c0.1,0,0.2-0.1,0.2-0.1
						c3.3,1.5,7.3,2.4,10.6,1.7c-0.8,3.4-0.9,7.1-0.8,10.5c0.1,2.1,0.2,4.3,0.6,6.4c0.4,2.3,0.7,4.8,1.8,6.8
						c0.1,0.2,0.5,0.1,0.5-0.1c0,0,0-0.1,0-0.1c0.1,0,0.1-0.1,0.1-0.1c1.1-3.8,2.6-7,6.1-9.2c1.8-1.1,4.2-2,6.3-1.6
						c1.6,0.3,2.7,1.4,3.4,2.7c0,0.1-0.1,0.1-0.1,0.2c-0.3,0.5,0.2,1,0.6,0.9c0.2,0.5,0.4,1,0.6,1.5c1.3,4.2,0.9,8.9-1.1,12.8
						C393.8,170.7,390.8,173.1,387.4,175.1z M425.4,168.9c-3.5,4.8-8.7,8.4-14.5,9.5c-6.9,1.3-13.1-2-15.2-8.8
						c3.5-5.2,4.3-12.4,1.5-18c6.9-10.9,7.1-25.2,1.5-36.7c-1-2.2-2.2-4.2-3.6-6.1c2.5-5.1-0.2-12.3-4.4-15.6
						c-2.2-1.8-5.5-2.9-8.7-3c2.4-4.9,7.8-7.6,13-8.8c5.6-1.3,11.7-0.8,16.9,1.7c9.9,4.6,15.7,15.3,14.7,26.1
						c-0.6,6.3-3,12.2-6.2,17.5c-2.9,4.9-7,9.2-9.3,14.4c-1.9,4.1-2.3,9.1,0.6,12.8c2.5,3.2,7.8,6.3,12,5.1c3.5-1.1,4.8-5.9,2.5-8.6
						c-1.8-2.1-5-2.2-7.1-0.7c1.6-2.4,3.8-4.5,7-3.9c3.6,0.7,4.4,4.8,4.4,7.8C430.6,159.1,428.7,164.5,425.4,168.9z"/>
				</g>
			</g>
		</g>
	</g>
</g>
</svg>
